  0
SECTION
  2
HEADER
  9
$ACADVER
  1
AC1032
  9
$ACADMAINTVER
 90
       55
  9
$DWGCODEPAGE
  3
ANSI_1252
  9
$LASTSAVEDBY
  1
cipulot
  9
$REQUIREDVERSIONS
160
                 0
  9
$INSBASE
 10
0.0
 20
0.0
 30
0.0
  9
$EXTMIN
 10
1.000000000000000E+20
 20
1.000000000000000E+20
 30
1.000000000000000E+20
  9
$EXTMAX
 10
-1.000000000000000E+20
 20
-1.000000000000000E+20
 30
-1.000000000000000E+20
  9
$LIMMIN
 10
0.0
 20
0.0
  9
$LIMMAX
 10
12.0
 20
9.0
  9
$ORTHOMODE
 70
     0
  9
$REGENMODE
 70
     1
  9
$FILLMODE
 70
     1
  9
$QTEXTMODE
 70
     0
  9
$MIRRTEXT
 70
     1
  9
$LTSCALE
 40
1.0
  9
$ATTMODE
 70
     1
  9
$TEXTSIZE
 40
0.2
  9
$TRACEWID
 40
0.05
  9
$TEXTSTYLE
  7
Standard
  9
$CLAYER
  8
0
  9
$CELTYPE
  6
ByBlock
  9
$CECOLOR
 62
   256
  9
$CELTSCALE
 40
1.0
  9
$DISPSILH
 70
     0
  9
$DIMSCALE
 40
1.0
  9
$DIMASZ
 40
0.18
  9
$DIMEXO
 40
0.0625
  9
$DIMDLI
 40
0.38
  9
$DIMRND
 40
0.0
  9
$DIMDLE
 40
0.0
  9
$DIMEXE
 40
0.18
  9
$DIMTP
 40
0.0
  9
$DIMTM
 40
0.0
  9
$DIMTXT
 40
0.18
  9
$DIMCEN
 40
0.09
  9
$DIMTSZ
 40
0.0
  9
$DIMTOL
 70
     0
  9
$DIMLIM
 70
     0
  9
$DIMTIH
 70
     1
  9
$DIMTOH
 70
     1
  9
$DIMSE1
 70
     0
  9
$DIMSE2
 70
     0
  9
$DIMTAD
 70
     0
  9
$DIMZIN
 70
     0
  9
$DIMBLK
  1

  9
$DIMASO
 70
     1
  9
$DIMSHO
 70
     1
  9
$DIMPOST
  1

  9
$DIMAPOST
  1

  9
$DIMALT
 70
     0
  9
$DIMALTD
 70
     2
  9
$DIMALTF
 40
25.4
  9
$DIMLFAC
 40
1.0
  9
$DIMTOFL
 70
     0
  9
$DIMTVP
 40
0.0
  9
$DIMTIX
 70
     0
  9
$DIMSOXD
 70
     0
  9
$DIMSAH
 70
     0
  9
$DIMBLK1
  1

  9
$DIMBLK2
  1

  9
$DIMSTYLE
  2
ISO-25
  9
$DIMCLRD
 70
     0
  9
$DIMCLRE
 70
     0
  9
$DIMCLRT
 70
     0
  9
$DIMTFAC
 40
1.0
  9
$DIMGAP
 40
0.09
  9
$DIMJUST
 70
     0
  9
$DIMSD1
 70
     0
  9
$DIMSD2
 70
     0
  9
$DIMTOLJ
 70
     1
  9
$DIMTZIN
 70
     0
  9
$DIMALTZ
 70
     0
  9
$DIMALTTZ
 70
     0
  9
$DIMUPT
 70
     0
  9
$DIMDEC
 70
     4
  9
$DIMTDEC
 70
     4
  9
$DIMALTU
 70
     2
  9
$DIMALTTD
 70
     2
  9
$DIMTXSTY
  7
Standard
  9
$DIMAUNIT
 70
     0
  9
$DIMADEC
 70
     0
  9
$DIMALTRND
 40
0.0
  9
$DIMAZIN
 70
     0
  9
$DIMDSEP
 70
    46
  9
$DIMATFIT
 70
     3
  9
$DIMFRAC
 70
     0
  9
$DIMLDRBLK
  1

  9
$DIMLUNIT
 70
     2
  9
$DIMLWD
 70
    -2
  9
$DIMLWE
 70
    -2
  9
$DIMTMOVE
 70
     2
  9
$DIMFXL
 40
1.0
  9
$DIMFXLON
 70
     0
  9
$DIMJOGANG
 40
0.7853981633974483
  9
$DIMTFILL
 70
     0
  9
$DIMTFILLCLR
 70
     0
  9
$DIMARCSYM
 70
     0
  9
$DIMLTYPE
  6

  9
$DIMLTEX1
  6

  9
$DIMLTEX2
  6

  9
$DIMTXTDIRECTION
 70
     0
  9
$LUNITS
 70
     2
  9
$LUPREC
 70
     4
  9
$SKETCHINC
 40
0.1
  9
$FILLETRAD
 40
0.0
  9
$AUNITS
 70
     0
  9
$AUPREC
 70
     0
  9
$MENU
  1
.
  9
$ELEVATION
 40
0.0
  9
$PELEVATION
 40
0.0
  9
$THICKNESS
 40
0.0
  9
$LIMCHECK
 70
     0
  9
$CHAMFERA
 40
0.0
  9
$CHAMFERB
 40
0.0
  9
$CHAMFERC
 40
0.0
  9
$CHAMFERD
 40
0.0
  9
$SKPOLY
 70
     0
  9
$TDCREATE
 40
2460983.118435475
  9
$TDUCREATE
 40
2460982.743435475
  9
$TDUPDATE
 40
2460983.12520603
  9
$TDUUPDATE
 40
2460982.75020603
  9
$TDINDWG
 40
0.0000000116
  9
$TDUSRTIMER
 40
0.0000000116
  9
$USRTIMER
 70
     1
  9
$ANGBASE
 50
0.0
  9
$ANGDIR
 70
     1
  9
$PDMODE
 70
     0
  9
$PDSIZE
 40
0.0
  9
$PLINEWID
 40
0.0
  9
$SPLFRAME
 70
     0
  9
$SPLINETYPE
 70
     6
  9
$SPLINESEGS
 70
     8
  9
$HANDSEED
  5
7D4
  9
$SURFTAB1
 70
     6
  9
$SURFTAB2
 70
     6
  9
$SURFTYPE
 70
     6
  9
$SURFU
 70
     6
  9
$SURFV
 70
     6
  9
$UCSBASE
  2

  9
$UCSNAME
  2

  9
$UCSORG
 10
0.0
 20
0.0
 30
0.0
  9
$UCSXDIR
 10
1.0
 20
0.0
 30
0.0
  9
$UCSYDIR
 10
0.0
 20
1.0
 30
0.0
  9
$UCSORTHOREF
  2

  9
$UCSORTHOVIEW
 70
     0
  9
$UCSORGTOP
 10
0.0
 20
0.0
 30
0.0
  9
$UCSORGBOTTOM
 10
0.0
 20
0.0
 30
0.0
  9
$UCSORGLEFT
 10
0.0
 20
0.0
 30
0.0
  9
$UCSORGRIGHT
 10
0.0
 20
0.0
 30
0.0
  9
$UCSORGFRONT
 10
0.0
 20
0.0
 30
0.0
  9
$UCSORGBACK
 10
0.0
 20
0.0
 30
0.0
  9
$PUCSBASE
  2

  9
$PUCSNAME
  2

  9
$PUCSORG
 10
0.0
 20
0.0
 30
0.0
  9
$PUCSXDIR
 10
1.0
 20
0.0
 30
0.0
  9
$PUCSYDIR
 10
0.0
 20
1.0
 30
0.0
  9
$PUCSORTHOREF
  2

  9
$PUCSORTHOVIEW
 70
     0
  9
$PUCSORGTOP
 10
0.0
 20
0.0
 30
0.0
  9
$PUCSORGBOTTOM
 10
0.0
 20
0.0
 30
0.0
  9
$PUCSORGLEFT
 10
0.0
 20
0.0
 30
0.0
  9
$PUCSORGRIGHT
 10
0.0
 20
0.0
 30
0.0
  9
$PUCSORGFRONT
 10
0.0
 20
0.0
 30
0.0
  9
$PUCSORGBACK
 10
0.0
 20
0.0
 30
0.0
  9
$USERI1
 70
     0
  9
$USERI2
 70
     0
  9
$USERI3
 70
     0
  9
$USERI4
 70
     0
  9
$USERI5
 70
     0
  9
$USERR1
 40
0.0
  9
$USERR2
 40
0.0
  9
$USERR3
 40
0.0
  9
$USERR4
 40
0.0
  9
$USERR5
 40
0.0
  9
$WORLDVIEW
 70
     1
  9
$SHADEDGE
 70
     3
  9
$SHADEDIF
 70
    70
  9
$TILEMODE
 70
     1
  9
$MAXACTVP
 70
    64
  9
$PINSBASE
 10
0.0
 20
0.0
 30
0.0
  9
$PLIMCHECK
 70
     0
  9
$PEXTMIN
 10
1.000000000000000E+20
 20
1.000000000000000E+20
 30
1.000000000000000E+20
  9
$PEXTMAX
 10
-1.000000000000000E+20
 20
-1.000000000000000E+20
 30
-1.000000000000000E+20
  9
$PLIMMIN
 10
0.0
 20
0.0
  9
$PLIMMAX
 10
12.0
 20
9.0
  9
$UNITMODE
 70
     0
  9
$VISRETAIN
 70
     1
  9
$PLINEGEN
 70
     0
  9
$PSLTSCALE
 70
     1
  9
$TREEDEPTH
 70
  3020
  9
$CMLSTYLE
  2
Standard
  9
$CMLJUST
 70
     0
  9
$CMLSCALE
 40
1.0
  9
$PROXYGRAPHICS
 70
     1
  9
$MEASUREMENT
 70
     1
  9
$CELWEIGHT
370
    -1
  9
$ENDCAPS
280
     0
  9
$JOINSTYLE
280
     0
  9
$LWDISPLAY
290
     0
  9
$INSUNITS
 70
     4
  9
$HYPERLINKBASE
  1

  9
$STYLESHEET
  1

  9
$XEDIT
290
     1
  9
$CEPSNTYPE
380
     0
  9
$PSTYLEMODE
290
     1
  9
$FINGERPRINTGUID
  2
{a74f67b7-9eea-f943-aa61-39d5a58de3ba}
  9
$VERSIONGUID
  2
{ED6C9561-7F52-479B-AE60-3BFA276864C4}
  9
$EXTNAMES
290
     1
  9
$PSVPSCALE
 40
0.0
  9
$OLESTARTUP
290
     0
  9
$SORTENTS
280
   127
  9
$INDEXCTL
280
     0
  9
$HIDETEXT
280
     1
  9
$XCLIPFRAME
280
     2
  9
$HALOGAP
280
     0
  9
$OBSCOLOR
 70
   257
  9
$OBSLTYPE
280
     0
  9
$INTERSECTIONDISPLAY
280
     0
  9
$INTERSECTIONCOLOR
 70
   257
  9
$DIMASSOC
280
     2
  9
$PROJECTNAME
  1

  9
$CAMERADISPLAY
290
     0
  9
$LENSLENGTH
 40
50.0
  9
$CAMERAHEIGHT
 40
0.0
  9
$STEPSPERSEC
 40
2.0
  9
$STEPSIZE
 40
6.0
  9
$3DDWFPREC
 40
2.0
  9
$PSOLWIDTH
 40
0.25
  9
$PSOLHEIGHT
 40
4.0
  9
$LOFTANG1
 40
1.570796326794897
  9
$LOFTANG2
 40
1.570796326794897
  9
$LOFTMAG1
 40
0.0
  9
$LOFTMAG2
 40
0.0
  9
$LOFTPARAM
 70
     7
  9
$LOFTNORMALS
280
     1
  9
$LATITUDE
 40
37.795
  9
$LONGITUDE
 40
-122.394
  9
$NORTHDIRECTION
 40
0.0
  9
$TIMEZONE
 70
 -8000
  9
$LIGHTGLYPHDISPLAY
280
     1
  9
$TILEMODELIGHTSYNCH
280
     1
  9
$CMATERIAL
347
76D
  9
$SOLIDHIST
280
     0
  9
$SHOWHIST
280
     1
  9
$DWFFRAME
280
     2
  9
$DGNFRAME
280
     2
  9
$REALWORLDSCALE
290
     1
  9
$INTERFERECOLOR
 62
   256
  9
$CSHADOW
280
     0
  9
$SHADOWPLANELOCATION
 40
0.0
  0
ENDSEC
  0
SECTION
  2
CLASSES
  0
CLASS
  1
ACDBDICTIONARYWDFLT
  2
AcDbDictionaryWithDefault
  3
ObjectDBX Classes
 90
        0
 91
        3
280
     0
281
     0
  0
CLASS
  1
SCALE
  2
AcDbScale
  3
ObjectDBX Classes
 90
     1153
 91
        3
280
     0
281
     0
  0
CLASS
  1
VISUALSTYLE
  2
AcDbVisualStyle
  3
ObjectDBX Classes
 90
     4095
 91
        3
280
     0
281
     0
  0
CLASS
  1
MATERIAL
  2
AcDbMaterial
  3
ObjectDBX Classes
 90
     1153
 91
        3
280
     0
281
     0
  0
CLASS
  1
TABLESTYLE
  2
AcDbTableStyle
  3
ObjectDBX Classes
 90
     4095
 91
        3
280
     0
281
     0
  0
CLASS
  1
MLEADERSTYLE
  2
AcDbMLeaderStyle
  3
ACDB_MLEADERSTYLE_CLASS
 90
     4095
 91
        3
280
     0
281
     0
  0
CLASS
  1
DICTIONARYVAR
  2
AcDbDictionaryVar
  3
ObjectDBX Classes
 90
        0
 91
        3
280
     0
281
     0
  0
CLASS
  1
CELLSTYLEMAP
  2
AcDbCellStyleMap
  3
ObjectDBX Classes
 90
     1152
 91
        3
280
     0
281
     0
  0
CLASS
  1
SUN
  2
AcDbSun
  3
SCENEOE
 90
     1153
 91
        3
280
     0
281
     0
  0
CLASS
  1
MENTALRAYRENDERSETTINGS
  2
AcDbMentalRayRenderSettings
  3
SCENEOE
 90
     1024
 91
        3
280
     0
281
     0
  0
CLASS
  1
ACDBDETAILVIEWSTYLE
  2
AcDbDetailViewStyle
  3
ObjectDBX Classes
 90
     1025
 91
        3
280
     0
281
     0
  0
CLASS
  1
ACDBSECTIONVIEWSTYLE
  2
AcDbSectionViewStyle
  3
ObjectDBX Classes
 90
     1025
 91
        3
280
     0
281
     0
  0
CLASS
  1
RASTERVARIABLES
  2
AcDbRasterVariables
  3
ISM
 90
        0
 91
        3
280
     0
281
     0
  0
CLASS
  1
ACDBPLACEHOLDER
  2
AcDbPlaceHolder
  3
ObjectDBX Classes
 90
        0
 91
        1
280
     0
281
     0
  0
CLASS
  1
LAYOUT
  2
AcDbLayout
  3
ObjectDBX Classes
 90
        0
 91
        1
280
     0
281
     0
  0
ENDSEC
  0
SECTION
  2
TABLES
  0
TABLE
  2
VPORT
  5
8
330
0
100
AcDbSymbolTable
 70
     1
  0
VPORT
  5
442
330
8
100
AcDbSymbolTableRecord
100
AcDbViewportTableRecord
  2
*Active
 70
     0
 10
0.0
 20
0.0
 11
1.0
 21
1.0
 12
344.1869158878504
 22
148.5
 13
0.0
 23
0.0
 14
10.0
 24
10.0
 15
10.0
 25
10.0
 16
0.0
 26
0.0
 36
1.0
 17
0.0
 27
0.0
 37
0.0
 40
297.0
 41
1.972972972850329
 42
50.0
 43
0.0
 44
0.0
 50
0.0
 51
0.0
 71
     0
 72
   100
 73
     1
 74
     3
 75
     0
 76
     0
 77
     0
 78
     0
281
     0
 65
     1
110
0.0
120
0.0
130
0.0
111
1.0
121
0.0
131
0.0
112
0.0
122
1.0
132
0.0
 79
     0
146
0.0
348
758
 60
     3
 61
     5
292
     1
282
     1
141
0.0
142
0.0
 63
   250
  0
ENDTAB
  0
TABLE
  2
LTYPE
  5
5
330
0
100
AcDbSymbolTable
 70
     4
  0
LTYPE
  5
14
330
5
100
AcDbSymbolTableRecord
100
AcDbLinetypeTableRecord
  2
ByBlock
 70
     0
  3

 72
    65
 73
     0
 40
0.0
  0
LTYPE
  5
15
330
5
100
AcDbSymbolTableRecord
100
AcDbLinetypeTableRecord
  2
ByLayer
 70
     0
  3

 72
    65
 73
     0
 40
0.0
  0
LTYPE
  5
16
330
5
100
AcDbSymbolTableRecord
100
AcDbLinetypeTableRecord
  2
CONTINUOUS
 70
     0
  3
Solid line
 72
    65
 73
     0
 40
0.0
  0
LTYPE
  5
410
330
5
100
AcDbSymbolTableRecord
100
AcDbLinetypeTableRecord
  2
DASHDOT
 70
     0
  3
Dash Dot ____ _ ____ _
 72
    65
 73
     4
 40
2.0
 49
1.25
 74
     0
 49
-0.25
 74
     0
 49
0.25
 74
     0
 49
-0.25
 74
     0
  0
LTYPE
  5
411
330
5
100
AcDbSymbolTableRecord
100
AcDbLinetypeTableRecord
  2
DASHED
 70
     0
  3
Dashed __ __ __ __ __
 72
    65
 73
     2
 40
0.75
 49
0.5
 74
     0
 49
-0.25
 74
     0
  0
LTYPE
  5
43B
330
5
100
AcDbSymbolTableRecord
100
AcDbLinetypeTableRecord
  2
DOTTED
 70
     0
  3
Dotted .  .  .  .
 72
    65
 73
     2
 40
0.2
 49
0.0
 74
     0
 49
-0.2
 74
     0
  0
ENDTAB
  0
TABLE
  2
LAYER
  5
2
330
0
100
AcDbSymbolTable
 70
     3
  0
LAYER
  5
10
330
2
100
AcDbSymbolTableRecord
100
AcDbLayerTableRecord
  2
0
 70
     0
 62
     7
  6
CONTINUOUS
370
    -3
390
F
347
76F
348
0
  0
LAYER
  5
440
330
2
100
AcDbSymbolTableRecord
100
AcDbLayerTableRecord
  2
BLACK
 70
     0
 62
     7
  6
CONTINUOUS
370
    -3
390
F
347
76F
348
0
  0
LAYER
  5
77F
330
2
100
AcDbSymbolTableRecord
100
AcDbLayerTableRecord
  2
Defpoints
 70
     0
 62
     7
  6
CONTINUOUS
290
     0
370
    -3
390
F
347
76F
348
0
  0
ENDTAB
  0
TABLE
  2
STYLE
  5
3
330
0
100
AcDbSymbolTable
 70
     5
  0
STYLE
  5
11
330
3
100
AcDbSymbolTableRecord
100
AcDbTextStyleTableRecord
  2
Standard
 70
     0
 40
0.0
 41
1.0
 50
0.0
 71
     0
 42
0.2
  3
txt
  4

  0
STYLE
  5
43C
330
3
100
AcDbSymbolTableRecord
100
AcDbTextStyleTableRecord
  2
KICAD
 70
     0
 40
0.0
 41
1.0
 50
0.0
 71
     0
 42
1.0
  3
isocp.shx
  4

  0
STYLE
  5
43D
330
3
100
AcDbSymbolTableRecord
100
AcDbTextStyleTableRecord
  2
KICADB
 70
     0
 40
0.0
 41
1.0
 50
0.0
 71
     0
 42
1.0
  3
isocp.shx
  4

  0
STYLE
  5
43E
330
3
100
AcDbSymbolTableRecord
100
AcDbTextStyleTableRecord
  2
KICADI
 70
     0
 40
0.0
 41
1.0
 50
15.0
 71
     0
 42
1.0
  3
isocp.shx
  4

  0
STYLE
  5
43F
330
3
100
AcDbSymbolTableRecord
100
AcDbTextStyleTableRecord
  2
KICADBI
 70
     0
 40
0.0
 41
1.0
 50
15.0
 71
     0
 42
1.0
  3
isocp.shx
  4

  0
ENDTAB
  0
TABLE
  2
VIEW
  5
6
330
0
100
AcDbSymbolTable
 70
     0
  0
ENDTAB
  0
TABLE
  2
UCS
  5
7
330
0
100
AcDbSymbolTable
 70
     0
  0
ENDTAB
  0
TABLE
  2
APPID
  5
9
330
0
100
AcDbSymbolTable
 70
     3
  0
APPID
  5
12
330
9
100
AcDbSymbolTableRecord
100
AcDbRegAppTableRecord
  2
ACAD
 70
     0
  0
APPID
  5
781
330
9
100
AcDbSymbolTableRecord
100
AcDbRegAppTableRecord
  2
HATCHBACKGROUNDCOLOR
 70
     0
  0
APPID
  5
782
330
9
100
AcDbSymbolTableRecord
100
AcDbRegAppTableRecord
  2
EZDXF
 70
     0
  0
ENDTAB
  0
TABLE
  2
DIMSTYLE
  5
A
330
0
100
AcDbSymbolTable
 70
     2
100
AcDbDimStyleTable
  0
DIMSTYLE
105
441
330
A
100
AcDbSymbolTableRecord
100
AcDbDimStyleTableRecord
  2
ISO-25
 70
     0
 41
2.5
 42
0.625
 43
3.75
 44
1.25
 49
2.5
 73
     0
 74
     0
 77
     1
 78
     8
 79
     3
140
2.5
141
2.5
143
0.03937007874016
147
0.625
171
     3
172
     1
178
     0
179
     2
271
     2
272
     2
274
     3
278
    44
283
     0
284
     8
340
11
  0
DIMSTYLE
105
780
330
A
100
AcDbSymbolTableRecord
100
AcDbDimStyleTableRecord
  2
Standard
 70
     0
 41
2.5
 42
0.625
 43
3.75
 44
1.25
 49
2.5
 73
     0
 74
     0
 77
     1
 78
     8
 79
     3
140
2.5
141
2.5
143
0.03937007874
147
0.625
171
     3
172
     1
178
     0
179
     2
271
     2
272
     2
274
     3
278
    44
283
     0
284
     8
340
11
  0
ENDTAB
  0
TABLE
  2
BLOCK_RECORD
  5
1
330
0
100
AcDbSymbolTable
 70
     0
  0
BLOCK_RECORD
  5
1D
330
1
100
AcDbSymbolTableRecord
100
AcDbBlockTableRecord
  2
*Model_Space
340
1E
 70
     0
280
     1
281
     0
  0
BLOCK_RECORD
  5
1B
330
1
100
AcDbSymbolTableRecord
100
AcDbBlockTableRecord
  2
*Paper_Space
340
1C
 70
     0
280
     1
281
     0
  0
ENDTAB
  0
ENDSEC
  0
SECTION
  2
BLOCKS
  0
BLOCK
  5
74F
330
1D
100
AcDbEntity
  8
0
100
AcDbBlockBegin
  2
*Model_Space
 70
     0
 10
0.0
 20
0.0
 30
0.0
  3
*Model_Space
  1

  0
ENDBLK
  5
750
330
1D
100
AcDbEntity
  8
0
100
AcDbBlockEnd
  0
BLOCK
  5
751
330
1B
100
AcDbEntity
 67
     1
  8
0
100
AcDbBlockBegin
  2
*Paper_Space
 70
     0
 10
0.0
 20
0.0
 30
0.0
  3
*Paper_Space
  1

  0
ENDBLK
  5
752
330
1B
100
AcDbEntity
 67
     1
  8
0
100
AcDbBlockEnd
  0
ENDSEC
  0
SECTION
  2
ENTITIES
  0
CIRCLE
  5
443
330
1D
100
AcDbEntity
  8
BLACK
100
AcDbCircle
 10
319.0875
 20
-100.012499
 30
0.0
 40
1.0
  0
CIRCLE
  5
444
330
1D
100
AcDbEntity
  8
BLACK
100
AcDbCircle
 10
300.0375
 20
-80.962499
 30
0.0
 40
1.0
  0
CIRCLE
  5
445
330
1D
100
AcDbEntity
  8
BLACK
100
AcDbCircle
 10
319.0875
 20
-80.962499
 30
0.0
 40
1.0
  0
CIRCLE
  5
446
330
1D
100
AcDbEntity
  8
BLACK
100
AcDbCircle
 10
300.0375
 20
-61.912499
 30
0.0
 40
1.0
  0
LINE
  5
447
330
1D
100
AcDbEntity
  8
BLACK
  6
Continuous
100
AcDbLine
 10
13.94375
 20
-68.912449
 30
0.0
 11
13.94375
 21
-68.912499
 31
0.0
  0
LINE
  5
448
330
1D
100
AcDbEntity
  8
BLACK
  6
Continuous
100
AcDbLine
 10
303.8893
 20
9.526697
 30
0.0
 11
303.8893
 21
9.526678
 31
0.0
  0
LINE
  5
449
330
1D
100
AcDbEntity
  8
BLACK
  6
Continuous
100
AcDbLine
 10
205.084628
 20
16.25929
 30
0.0
 11
205.084601
 21
16.259279
 31
0.0
  0
LINE
  5
44A
330
1D
100
AcDbEntity
  8
BLACK
  6
Continuous
100
AcDbLine
 10
189.8768
 20
9.526697
 30
0.0
 11
189.8768
 21
9.526678
 31
0.0
  0
LINE
  5
44B
330
1D
100
AcDbEntity
  8
BLACK
  6
Continuous
100
AcDbLine
 10
119.359626
 20
16.25929
 30
0.0
 11
119.359601
 21
16.259279
 31
0.0
  0
LINE
  5
44C
330
1D
100
AcDbEntity
  8
BLACK
  6
Continuous
100
AcDbLine
 10
104.1518
 20
9.526697
 30
0.0
 11
104.1518
 21
9.526678
 31
0.0
  0
LINE
  5
44D
330
1D
100
AcDbEntity
  8
BLACK
  6
Continuous
100
AcDbLine
 10
42.852871
 20
-116.268434
 30
0.0
 11
42.852882
 21
-116.26843
 31
0.0
  0
LINE
  5
44E
330
1D
100
AcDbEntity
  8
BLACK
  6
Continuous
100
AcDbLine
 10
218.777873
 20
-116.268434
 30
0.0
 11
218.777882
 21
-116.26843
 31
0.0
  0
LINE
  5
44F
330
1D
100
AcDbEntity
  8
BLACK
  6
Continuous
100
AcDbLine
 10
294.977873
 20
-116.268434
 30
0.0
 11
294.977882
 21
-116.26843
 31
0.0
  0
LINE
  5
450
330
1D
100
AcDbEntity
  8
BLACK
  6
Continuous
100
AcDbLine
 10
338.137473
 20
7.526678
 30
0.0
 11
338.1375
 21
7.526678
 31
0.0
  0
LINE
  5
451
330
1D
100
AcDbEntity
  8
BLACK
  6
Continuous
100
AcDbLine
 10
319.097128
 20
16.25929
 30
0.0
 11
319.097101
 21
16.259279
 31
0.0
  0
LINE
  5
452
330
1D
100
AcDbEntity
  8
BLACK
  6
Continuous
100
AcDbLine
 10
120.445515
 20
13.114557
 30
0.0
 11
120.445519
 21
13.11456
 31
0.0
  0
LINE
  5
453
330
1D
100
AcDbEntity
  8
BLACK
  6
Continuous
100
AcDbLine
 10
127.570483
 20
8.174299999999999
 30
0.0
 11
127.570468
 21
8.174316
 31
0.0
  0
LINE
  5
454
330
1D
100
AcDbEntity
  8
BLACK
  6
Continuous
100
AcDbLine
 10
199.364541
 20
12.892094
 30
0.0
 11
199.364638
 21
12.892069
 31
0.0
  0
LINE
  5
455
330
1D
100
AcDbEntity
  8
BLACK
  6
Continuous
100
AcDbLine
 10
191.804516
 20
8.174299999999999
 30
0.0
 11
191.804511
 21
8.174294999999999
 31
0.0
  0
LINE
  5
456
330
1D
100
AcDbEntity
  8
BLACK
  6
Continuous
100
AcDbLine
 10
192.052971
 20
9.030837
 30
0.0
 11
192.052964
 21
9.030875
 31
0.0
  0
LINE
  5
457
330
1D
100
AcDbEntity
  8
BLACK
  6
Continuous
100
AcDbLine
 10
200.181694
 20
12.79016
 30
0.0
 11
200.18174
 21
12.790146
 31
0.0
  0
LINE
  5
458
330
1D
100
AcDbEntity
  8
BLACK
  6
Continuous
100
AcDbLine
 10
204.909232
 20
12.818158
 30
0.0
 11
204.909285
 21
12.818175
 31
0.0
  0
LINE
  5
459
330
1D
100
AcDbEntity
  8
BLACK
  6
Continuous
100
AcDbLine
 10
200.902984
 20
12.563934
 30
0.0
 11
200.902999
 21
12.56393
 31
0.0
  0
LINE
  5
45A
330
1D
100
AcDbEntity
  8
BLACK
  6
Continuous
100
AcDbLine
 10
213.295468
 20
8.174316
 30
0.0
 11
213.295483
 21
8.174299999999999
 31
0.0
  0
LINE
  5
45B
330
1D
100
AcDbEntity
  8
BLACK
  6
Continuous
100
AcDbLine
 10
206.170519
 20
13.11456
 30
0.0
 11
206.170515
 21
13.114557
 31
0.0
  0
LINE
  5
45C
330
1D
100
AcDbEntity
  8
BLACK
  6
Continuous
100
AcDbLine
 10
320.183015
 20
13.114557
 30
0.0
 11
320.183019
 21
13.11456
 31
0.0
  0
LINE
  5
45D
330
1D
100
AcDbEntity
  8
BLACK
  6
Continuous
100
AcDbLine
 10
327.307983
 20
8.174299999999999
 30
0.0
 11
327.307968
 21
8.174316
 31
0.0
  0
LINE
  5
45E
330
1D
100
AcDbEntity
  8
BLACK
  6
Continuous
100
AcDbLine
 10
313.377041
 20
12.892094
 30
0.0
 11
313.377138
 21
12.892069
 31
0.0
  0
LINE
  5
45F
330
1D
100
AcDbEntity
  8
BLACK
  6
Continuous
100
AcDbLine
 10
305.817016
 20
8.174299999999999
 30
0.0
 11
305.817011
 21
8.174294999999999
 31
0.0
  0
LINE
  5
460
330
1D
100
AcDbEntity
  8
BLACK
  6
Continuous
100
AcDbLine
 10
306.065471
 20
9.030837
 30
0.0
 11
306.065464
 21
9.030875
 31
0.0
  0
LINE
  5
461
330
1D
100
AcDbEntity
  8
BLACK
  6
Continuous
100
AcDbLine
 10
314.194194
 20
12.79016
 30
0.0
 11
314.19424
 21
12.790146
 31
0.0
  0
LINE
  5
462
330
1D
100
AcDbEntity
  8
BLACK
  6
Continuous
100
AcDbLine
 10
318.921732
 20
12.818158
 30
0.0
 11
318.921785
 21
12.818175
 31
0.0
  0
LINE
  5
463
330
1D
100
AcDbEntity
  8
BLACK
  6
Continuous
100
AcDbLine
 10
314.915484
 20
12.563934
 30
0.0
 11
314.915499
 21
12.56393
 31
0.0
  0
LINE
  5
464
330
1D
100
AcDbEntity
  8
BLACK
  6
Continuous
100
AcDbLine
 10
113.639541
 20
12.892094
 30
0.0
 11
113.639638
 21
12.892069
 31
0.0
  0
LINE
  5
465
330
1D
100
AcDbEntity
  8
BLACK
  6
Continuous
100
AcDbLine
 10
106.079516
 20
8.174299999999999
 30
0.0
 11
106.079511
 21
8.174294999999999
 31
0.0
  0
LINE
  5
466
330
1D
100
AcDbEntity
  8
BLACK
  6
Continuous
100
AcDbLine
 10
106.327971
 20
9.030837
 30
0.0
 11
106.327964
 21
9.030875
 31
0.0
  0
LINE
  5
467
330
1D
100
AcDbEntity
  8
BLACK
  6
Continuous
100
AcDbLine
 10
114.456694
 20
12.79016
 30
0.0
 11
114.45674
 21
12.790146
 31
0.0
  0
LINE
  5
468
330
1D
100
AcDbEntity
  8
BLACK
  6
Continuous
100
AcDbLine
 10
119.184232
 20
12.818158
 30
0.0
 11
119.184285
 21
12.818175
 31
0.0
  0
LINE
  5
469
330
1D
100
AcDbEntity
  8
BLACK
  6
Continuous
100
AcDbLine
 10
115.177984
 20
12.563934
 30
0.0
 11
115.177999
 21
12.56393
 31
0.0
  0
LINE
  5
46A
330
1D
100
AcDbEntity
  8
BLACK
  6
Continuous
100
AcDbLine
 10
47.034416
 20
-112.573066
 30
0.0
 11
47.034458
 21
-112.573079
 31
0.0
  0
LINE
  5
46B
330
1D
100
AcDbEntity
  8
BLACK
  6
Continuous
100
AcDbLine
 10
47.755766
 20
-112.799295
 30
0.0
 11
47.755758
 21
-112.799292
 31
0.0
  0
LINE
  5
46C
330
1D
100
AcDbEntity
  8
BLACK
  6
Continuous
100
AcDbLine
 10
43.02817599999999
 20
-112.827331
 30
0.0
 11
43.028214
 21
-112.827319
 31
0.0
  0
LINE
  5
46D
330
1D
100
AcDbEntity
  8
BLACK
  6
Continuous
100
AcDbLine
 10
48.572924
 20
-112.901229
 30
0.0
 11
48.572942
 21
-112.901234
 31
0.0
  0
LINE
  5
46E
330
1D
100
AcDbEntity
  8
BLACK
  6
Continuous
100
AcDbLine
 10
56.132983
 20
-108.183444
 30
0.0
 11
56.133002
 21
-108.183424
 31
0.0
  0
LINE
  5
46F
330
1D
100
AcDbEntity
  8
BLACK
  6
Continuous
100
AcDbLine
 10
55.884522
 20
-109.039952
 30
0.0
 11
55.884529
 21
-109.039991
 31
0.0
  0
LINE
  5
470
330
1D
100
AcDbEntity
  8
BLACK
  6
Continuous
100
AcDbLine
 10
15.670523
 20
13.114552
 30
0.0
 11
15.670513
 21
13.114543
 31
0.0
  0
LINE
  5
471
330
1D
100
AcDbEntity
  8
BLACK
  6
Continuous
100
AcDbLine
 10
22.795498
 20
8.174299999999999
 30
0.0
 11
22.795478
 21
8.174322
 31
0.0
  0
LINE
  5
472
330
1D
100
AcDbEntity
  8
BLACK
  6
Continuous
100
AcDbLine
 10
22.3195
 20
7.986491999999999
 30
0.0
 11
22.3195
 21
7.986478999999999
 31
0.0
  0
LINE
  5
473
330
1D
100
AcDbEntity
  8
BLACK
  6
Continuous
100
AcDbLine
 10
210.567045
 20
-108.183476
 30
0.0
 11
210.567016
 21
-108.183444
 31
0.0
  0
LINE
  5
474
330
1D
100
AcDbEntity
  8
BLACK
  6
Continuous
100
AcDbLine
 10
217.692048
 20
-113.123649
 30
0.0
 11
217.692006
 21
-113.123683
 31
0.0
  0
LINE
  5
475
330
1D
100
AcDbEntity
  8
BLACK
  6
Continuous
100
AcDbLine
 10
1.552988
 20
9.030828
 30
0.0
 11
1.552981
 21
9.030866999999999
 31
0.0
  0
LINE
  5
476
330
1D
100
AcDbEntity
  8
BLACK
  6
Continuous
100
AcDbLine
 10
8.864595
 20
12.892084
 30
0.0
 11
8.864627
 21
12.892076
 31
0.0
  0
LINE
  5
477
330
1D
100
AcDbEntity
  8
BLACK
  6
Continuous
100
AcDbLine
 10
1.304532
 20
8.174299999999999
 30
0.0
 11
1.30452
 21
8.174287
 31
0.0
  0
LINE
  5
478
330
1D
100
AcDbEntity
  8
BLACK
  6
Continuous
100
AcDbLine
 10
286.767045
 20
-108.183476
 30
0.0
 11
286.767016
 21
-108.183444
 31
0.0
  0
LINE
  5
479
330
1D
100
AcDbEntity
  8
BLACK
  6
Continuous
100
AcDbLine
 10
293.892048
 20
-113.123649
 30
0.0
 11
293.892006
 21
-113.123683
 31
0.0
  0
LINE
  5
47A
330
1D
100
AcDbEntity
  8
BLACK
  6
Continuous
100
AcDbLine
 10
223.680712
 20
-112.799275
 30
0.0
 11
223.680759
 21
-112.79929
 31
0.0
  0
LINE
  5
47B
330
1D
100
AcDbEntity
  8
BLACK
  6
Continuous
100
AcDbLine
 10
218.953176
 20
-112.827332
 30
0.0
 11
218.953214
 21
-112.827319
 31
0.0
  0
LINE
  5
47C
330
1D
100
AcDbEntity
  8
BLACK
  6
Continuous
100
AcDbLine
 10
222.959421
 20
-112.573051
 30
0.0
 11
222.959407
 21
-112.573046
 31
0.0
  0
LINE
  5
47D
330
1D
100
AcDbEntity
  8
BLACK
  6
Continuous
100
AcDbLine
 10
10.403053
 20
12.563916
 30
0.0
 11
10.403058
 21
12.563914
 31
0.0
  0
LINE
  5
47E
330
1D
100
AcDbEntity
  8
BLACK
  6
Continuous
100
AcDbLine
 10
9.681752999999999
 20
12.790147
 30
0.0
 11
9.681756
 21
12.790146
 31
0.0
  0
LINE
  5
47F
330
1D
100
AcDbEntity
  8
BLACK
  6
Continuous
100
AcDbLine
 10
14.40922
 20
12.818149
 30
0.0
 11
14.409301
 21
12.818175
 31
0.0
  0
LINE
  5
480
330
1D
100
AcDbEntity
  8
BLACK
  6
Continuous
100
AcDbLine
 10
41.767048
 20
-113.123649
 30
0.0
 11
41.76700599999999
 21
-113.123683
 31
0.0
  0
LINE
  5
481
330
1D
100
AcDbEntity
  8
BLACK
  6
Continuous
100
AcDbLine
 10
34.642045
 20
-108.183476
 30
0.0
 11
34.642016
 21
-108.183444
 31
0.0
  0
LINE
  5
482
330
1D
100
AcDbEntity
  8
BLACK
  6
Continuous
100
AcDbLine
 10
224.497924
 20
-112.901229
 30
0.0
 11
224.497942
 21
-112.901234
 31
0.0
  0
LINE
  5
483
330
1D
100
AcDbEntity
  8
BLACK
  6
Continuous
100
AcDbLine
 10
232.057983
 20
-108.183444
 30
0.0
 11
232.058002
 21
-108.183424
 31
0.0
  0
LINE
  5
484
330
1D
100
AcDbEntity
  8
BLACK
  6
Continuous
100
AcDbLine
 10
231.809522
 20
-109.039952
 30
0.0
 11
231.809529
 21
-109.039991
 31
0.0
  0
LINE
  5
485
330
1D
100
AcDbEntity
  8
BLACK
  6
Continuous
100
AcDbLine
 10
299.880759
 20
-112.79929
 30
0.0
 11
299.880712
 21
-112.799275
 31
0.0
  0
LINE
  5
486
330
1D
100
AcDbEntity
  8
BLACK
  6
Continuous
100
AcDbLine
 10
299.159407
 20
-112.573046
 30
0.0
 11
299.159421
 21
-112.573051
 31
0.0
  0
LINE
  5
487
330
1D
100
AcDbEntity
  8
BLACK
  6
Continuous
100
AcDbLine
 10
295.153214
 20
-112.827319
 30
0.0
 11
295.153176
 21
-112.827331
 31
0.0
  0
LINE
  5
488
330
1D
100
AcDbEntity
  8
BLACK
  6
Continuous
100
AcDbLine
 10
300.697924
 20
-112.901229
 30
0.0
 11
300.697942
 21
-112.901234
 31
0.0
  0
LINE
  5
489
330
1D
100
AcDbEntity
  8
BLACK
  6
Continuous
100
AcDbLine
 10
308.257983
 20
-108.183444
 30
0.0
 11
308.258002
 21
-108.183424
 31
0.0
  0
LINE
  5
48A
330
1D
100
AcDbEntity
  8
BLACK
  6
Continuous
100
AcDbLine
 10
308.009522
 20
-109.039952
 30
0.0
 11
308.009529
 21
-109.039991
 31
0.0
  0
CIRCLE
  5
48B
330
1D
100
AcDbEntity
  8
BLACK
100
AcDbCircle
 10
42.8625
 20
-61.912499
 30
0.0
 40
1.0
  0
CIRCLE
  5
48C
330
1D
100
AcDbEntity
  8
BLACK
100
AcDbCircle
 10
90.4875
 20
-80.962499
 30
0.0
 40
1.0
  0
CIRCLE
  5
48D
330
1D
100
AcDbEntity
  8
BLACK
100
AcDbCircle
 10
-7.14375
 20
-61.912499
 30
0.0
 40
1.0
  0
CIRCLE
  5
48E
330
1D
100
AcDbEntity
  8
BLACK
100
AcDbCircle
 10
9.525
 20
-23.812499
 30
0.0
 40
1.0
  0
CIRCLE
  5
48F
330
1D
100
AcDbEntity
  8
BLACK
100
AcDbCircle
 10
185.7375
 20
-80.962499
 30
0.0
 40
1.0
  0
CIRCLE
  5
490
330
1D
100
AcDbEntity
  8
BLACK
100
AcDbCircle
 10
171.45
 20
-42.862499
 30
0.0
 40
1.0
  0
CIRCLE
  5
491
330
1D
100
AcDbEntity
  8
BLACK
100
AcDbCircle
 10
142.875
 20
-23.812499
 30
0.0
 40
1.0
  0
CIRCLE
  5
492
330
1D
100
AcDbEntity
  8
BLACK
100
AcDbCircle
 10
66.675
 20
-23.812499
 30
0.0
 40
1.0
  0
CIRCLE
  5
493
330
1D
100
AcDbEntity
  8
BLACK
100
AcDbCircle
 10
95.25
 20
-42.862499
 30
0.0
 40
1.0
  0
LINE
  5
494
330
1D
100
AcDbEntity
  8
BLACK
  6
Continuous
100
AcDbLine
 10
140.3375
 20
-55.412499
 30
0.0
 11
140.3375
 21
-68.412499
 31
0.0
  0
ARC
  5
495
330
1D
100
AcDbEntity
  8
BLACK
100
AcDbCircle
 10
140.8375
 20
-68.412499
 30
0.0
 40
0.5
100
AcDbArc
 50
180.0
 51
270.0
  0
LINE
  5
496
330
1D
100
AcDbEntity
  8
BLACK
  6
Continuous
100
AcDbLine
 10
140.8375
 20
-68.912499
 30
0.0
 11
154.4375
 21
-68.912499
 31
0.0
  0
ARC
  5
497
330
1D
100
AcDbEntity
  8
BLACK
100
AcDbCircle
 10
154.4375
 20
-68.412499
 30
0.0
 40
0.5
100
AcDbArc
 50
270.0
 51
0.0
  0
LINE
  5
498
330
1D
100
AcDbEntity
  8
BLACK
  6
Continuous
100
AcDbLine
 10
154.9375
 20
-68.412499
 30
0.0
 11
154.9375
 21
-55.412499
 31
0.0
  0
ARC
  5
499
330
1D
100
AcDbEntity
  8
BLACK
100
AcDbCircle
 10
154.4375
 20
-55.412499
 30
0.0
 40
0.5
100
AcDbArc
 50
0.0
 51
90.0
  0
LINE
  5
49A
330
1D
100
AcDbEntity
  8
BLACK
  6
Continuous
100
AcDbLine
 10
154.4375
 20
-54.912499
 30
0.0
 11
140.8375
 21
-54.912499
 31
0.0
  0
ARC
  5
49B
330
1D
100
AcDbEntity
  8
BLACK
100
AcDbCircle
 10
140.8375
 20
-55.412499
 30
0.0
 40
0.5
100
AcDbArc
 50
90.0
 51
180.0
  0
LINE
  5
49C
330
1D
100
AcDbEntity
  8
BLACK
  6
Continuous
100
AcDbLine
 10
187.9625
 20
-74.462499
 30
0.0
 11
187.9625
 21
-87.462499
 31
0.0
  0
ARC
  5
49D
330
1D
100
AcDbEntity
  8
BLACK
100
AcDbCircle
 10
188.4625
 20
-87.462499
 30
0.0
 40
0.5
100
AcDbArc
 50
180.0
 51
270.0
  0
LINE
  5
49E
330
1D
100
AcDbEntity
  8
BLACK
  6
Continuous
100
AcDbLine
 10
188.4625
 20
-87.962499
 30
0.0
 11
202.0625
 21
-87.962499
 31
0.0
  0
ARC
  5
49F
330
1D
100
AcDbEntity
  8
BLACK
100
AcDbCircle
 10
202.0625
 20
-87.462499
 30
0.0
 40
0.5
100
AcDbArc
 50
270.0
 51
0.0
  0
LINE
  5
4A0
330
1D
100
AcDbEntity
  8
BLACK
  6
Continuous
100
AcDbLine
 10
202.5625
 20
-87.462499
 30
0.0
 11
202.5625
 21
-74.462499
 31
0.0
  0
ARC
  5
4A1
330
1D
100
AcDbEntity
  8
BLACK
100
AcDbCircle
 10
202.0625
 20
-74.462499
 30
0.0
 40
0.5
100
AcDbArc
 50
0.0
 51
90.0
  0
LINE
  5
4A2
330
1D
100
AcDbEntity
  8
BLACK
  6
Continuous
100
AcDbLine
 10
202.0625
 20
-73.962499
 30
0.0
 11
188.4625
 21
-73.962499
 31
0.0
  0
ARC
  5
4A3
330
1D
100
AcDbEntity
  8
BLACK
100
AcDbCircle
 10
188.4625
 20
-74.462499
 30
0.0
 40
0.5
100
AcDbArc
 50
90.0
 51
180.0
  0
LINE
  5
4A4
330
1D
100
AcDbEntity
  8
BLACK
  6
Continuous
100
AcDbLine
 10
216.5375
 20
-55.412499
 30
0.0
 11
216.5375
 21
-68.412499
 31
0.0
  0
ARC
  5
4A5
330
1D
100
AcDbEntity
  8
BLACK
100
AcDbCircle
 10
217.0375
 20
-68.412499
 30
0.0
 40
0.5
100
AcDbArc
 50
180.0
 51
270.0
  0
LINE
  5
4A6
330
1D
100
AcDbEntity
  8
BLACK
  6
Continuous
100
AcDbLine
 10
217.0375
 20
-68.912499
 30
0.0
 11
230.6375
 21
-68.912499
 31
0.0
  0
ARC
  5
4A7
330
1D
100
AcDbEntity
  8
BLACK
100
AcDbCircle
 10
230.6375
 20
-68.412499
 30
0.0
 40
0.5
100
AcDbArc
 50
270.0
 51
0.0
  0
LINE
  5
4A8
330
1D
100
AcDbEntity
  8
BLACK
  6
Continuous
100
AcDbLine
 10
231.1375
 20
-68.412499
 30
0.0
 11
231.1375
 21
-55.412499
 31
0.0
  0
ARC
  5
4A9
330
1D
100
AcDbEntity
  8
BLACK
100
AcDbCircle
 10
230.6375
 20
-55.412499
 30
0.0
 40
0.5
100
AcDbArc
 50
0.0
 51
90.0
  0
LINE
  5
4AA
330
1D
100
AcDbEntity
  8
BLACK
  6
Continuous
100
AcDbLine
 10
230.6375
 20
-54.912499
 30
0.0
 11
217.0375
 21
-54.912499
 31
0.0
  0
ARC
  5
4AB
330
1D
100
AcDbEntity
  8
BLACK
100
AcDbCircle
 10
217.0375
 20
-55.412499
 30
0.0
 40
0.5
100
AcDbArc
 50
90.0
 51
180.0
  0
LINE
  5
4AC
330
1D
100
AcDbEntity
  8
BLACK
  6
Continuous
100
AcDbLine
 10
59.375
 20
-36.362499
 30
0.0
 11
59.375
 21
-49.362499
 31
0.0
  0
ARC
  5
4AD
330
1D
100
AcDbEntity
  8
BLACK
100
AcDbCircle
 10
59.875
 20
-49.362499
 30
0.0
 40
0.5
100
AcDbArc
 50
180.0
 51
270.0
  0
LINE
  5
4AE
330
1D
100
AcDbEntity
  8
BLACK
  6
Continuous
100
AcDbLine
 10
59.875
 20
-49.862499
 30
0.0
 11
73.475
 21
-49.862499
 31
0.0
  0
ARC
  5
4AF
330
1D
100
AcDbEntity
  8
BLACK
100
AcDbCircle
 10
73.475
 20
-49.362499
 30
0.0
 40
0.5
100
AcDbArc
 50
270.0
 51
0.0
  0
LINE
  5
4B0
330
1D
100
AcDbEntity
  8
BLACK
  6
Continuous
100
AcDbLine
 10
73.975
 20
-49.362499
 30
0.0
 11
73.975
 21
-36.362499
 31
0.0
  0
ARC
  5
4B1
330
1D
100
AcDbEntity
  8
BLACK
100
AcDbCircle
 10
73.475
 20
-36.362499
 30
0.0
 40
0.5
100
AcDbArc
 50
0.0
 51
90.0
  0
LINE
  5
4B2
330
1D
100
AcDbEntity
  8
BLACK
  6
Continuous
100
AcDbLine
 10
73.475
 20
-35.862499
 30
0.0
 11
59.875
 21
-35.862499
 31
0.0
  0
ARC
  5
4B3
330
1D
100
AcDbEntity
  8
BLACK
100
AcDbCircle
 10
59.875
 20
-36.362499
 30
0.0
 40
0.5
100
AcDbArc
 50
90.0
 51
180.0
  0
LINE
  5
4B4
330
1D
100
AcDbEntity
  8
BLACK
  6
Continuous
100
AcDbLine
 10
64.1375
 20
-55.412499
 30
0.0
 11
64.1375
 21
-68.412499
 31
0.0
  0
ARC
  5
4B5
330
1D
100
AcDbEntity
  8
BLACK
100
AcDbCircle
 10
64.6375
 20
-68.412499
 30
0.0
 40
0.5
100
AcDbArc
 50
180.0
 51
270.0
  0
LINE
  5
4B6
330
1D
100
AcDbEntity
  8
BLACK
  6
Continuous
100
AcDbLine
 10
64.6375
 20
-68.912499
 30
0.0
 11
78.2375
 21
-68.912499
 31
0.0
  0
ARC
  5
4B7
330
1D
100
AcDbEntity
  8
BLACK
100
AcDbCircle
 10
78.2375
 20
-68.412499
 30
0.0
 40
0.5
100
AcDbArc
 50
270.0
 51
0.0
  0
LINE
  5
4B8
330
1D
100
AcDbEntity
  8
BLACK
  6
Continuous
100
AcDbLine
 10
78.7375
 20
-68.412499
 30
0.0
 11
78.7375
 21
-55.412499
 31
0.0
  0
ARC
  5
4B9
330
1D
100
AcDbEntity
  8
BLACK
100
AcDbCircle
 10
78.2375
 20
-55.412499
 30
0.0
 40
0.5
100
AcDbArc
 50
0.0
 51
90.0
  0
LINE
  5
4BA
330
1D
100
AcDbEntity
  8
BLACK
  6
Continuous
100
AcDbLine
 10
78.2375
 20
-54.912499
 30
0.0
 11
64.6375
 21
-54.912499
 31
0.0
  0
ARC
  5
4BB
330
1D
100
AcDbEntity
  8
BLACK
100
AcDbCircle
 10
64.6375
 20
-55.412499
 30
0.0
 40
0.5
100
AcDbArc
 50
90.0
 51
180.0
  0
LINE
  5
4BC
330
1D
100
AcDbEntity
  8
BLACK
  6
Continuous
100
AcDbLine
 10
-2.5375
 20
-36.3625
 30
0.0
 11
-2.5375
 21
-49.362498
 31
0.0
  0
ARC
  5
4BD
330
1D
100
AcDbEntity
  8
BLACK
100
AcDbCircle
 10
-2.037499
 20
-49.362498
 30
0.0
 40
0.500001000001
100
AcDbArc
 50
180.0
 51
269.99988541
  0
LINE
  5
4BE
330
1D
100
AcDbEntity
  8
BLACK
  6
Continuous
100
AcDbLine
 10
-2.0375
 20
-49.862499
 30
0.0
 11
11.5625
 21
-49.862499
 31
0.0
  0
ARC
  5
4BF
330
1D
100
AcDbEntity
  8
BLACK
100
AcDbCircle
 10
11.5625
 20
-49.362499
 30
0.0
 40
0.5
100
AcDbArc
 50
270.0
 51
0.0
  0
LINE
  5
4C0
330
1D
100
AcDbEntity
  8
BLACK
  6
Continuous
100
AcDbLine
 10
12.0625
 20
-49.362499
 30
0.0
 11
12.0625
 21
-36.362499
 31
0.0
  0
ARC
  5
4C1
330
1D
100
AcDbEntity
  8
BLACK
100
AcDbCircle
 10
11.5625
 20
-36.362499
 30
0.0
 40
0.5
100
AcDbArc
 50
0.0
 51
90.0
  0
LINE
  5
4C2
330
1D
100
AcDbEntity
  8
BLACK
  6
Continuous
100
AcDbLine
 10
11.5625
 20
-35.862499
 30
0.0
 11
-2.037499
 21
-35.862499
 31
0.0
  0
ARC
  5
4C3
330
1D
100
AcDbEntity
  8
BLACK
100
AcDbCircle
 10
-2.037499
 20
-36.3625
 30
0.0
 40
0.500001
100
AcDbArc
 50
90.0
 51
180.0
  0
LINE
  5
4C4
330
1D
100
AcDbEntity
  8
BLACK
  6
Continuous
100
AcDbLine
 10
211.775
 20
-36.362499
 30
0.0
 11
211.775
 21
-49.362499
 31
0.0
  0
ARC
  5
4C5
330
1D
100
AcDbEntity
  8
BLACK
100
AcDbCircle
 10
212.275
 20
-49.362499
 30
0.0
 40
0.5
100
AcDbArc
 50
180.0
 51
270.0
  0
LINE
  5
4C6
330
1D
100
AcDbEntity
  8
BLACK
  6
Continuous
100
AcDbLine
 10
212.275
 20
-49.862499
 30
0.0
 11
225.875
 21
-49.862499
 31
0.0
  0
ARC
  5
4C7
330
1D
100
AcDbEntity
  8
BLACK
100
AcDbCircle
 10
225.875
 20
-49.362499
 30
0.0
 40
0.5
100
AcDbArc
 50
270.0
 51
0.0
  0
LINE
  5
4C8
330
1D
100
AcDbEntity
  8
BLACK
  6
Continuous
100
AcDbLine
 10
226.375
 20
-49.362499
 30
0.0
 11
226.375
 21
-36.362499
 31
0.0
  0
ARC
  5
4C9
330
1D
100
AcDbEntity
  8
BLACK
100
AcDbCircle
 10
225.875
 20
-36.362499
 30
0.0
 40
0.5
100
AcDbArc
 50
0.0
 51
90.0
  0
LINE
  5
4CA
330
1D
100
AcDbEntity
  8
BLACK
  6
Continuous
100
AcDbLine
 10
225.875
 20
-35.862499
 30
0.0
 11
212.275
 21
-35.862499
 31
0.0
  0
ARC
  5
4CB
330
1D
100
AcDbEntity
  8
BLACK
100
AcDbCircle
 10
212.275
 20
-36.362499
 30
0.0
 40
0.5
100
AcDbArc
 50
90.0
 51
180.0
  0
LINE
  5
4CC
330
1D
100
AcDbEntity
  8
BLACK
  6
Continuous
100
AcDbLine
 10
173.675
 20
-36.362499
 30
0.0
 11
173.675
 21
-49.362499
 31
0.0
  0
ARC
  5
4CD
330
1D
100
AcDbEntity
  8
BLACK
100
AcDbCircle
 10
174.175
 20
-49.362499
 30
0.0
 40
0.5
100
AcDbArc
 50
180.0
 51
270.0
  0
LINE
  5
4CE
330
1D
100
AcDbEntity
  8
BLACK
  6
Continuous
100
AcDbLine
 10
174.175
 20
-49.862499
 30
0.0
 11
187.775
 21
-49.862499
 31
0.0
  0
ARC
  5
4CF
330
1D
100
AcDbEntity
  8
BLACK
100
AcDbCircle
 10
187.775
 20
-49.362499
 30
0.0
 40
0.5
100
AcDbArc
 50
270.0
 51
0.0
  0
LINE
  5
4D0
330
1D
100
AcDbEntity
  8
BLACK
  6
Continuous
100
AcDbLine
 10
188.275
 20
-49.362499
 30
0.0
 11
188.275
 21
-36.362499
 31
0.0
  0
ARC
  5
4D1
330
1D
100
AcDbEntity
  8
BLACK
100
AcDbCircle
 10
187.775
 20
-36.362499
 30
0.0
 40
0.5
100
AcDbArc
 50
0.0
 51
90.0
  0
LINE
  5
4D2
330
1D
100
AcDbEntity
  8
BLACK
  6
Continuous
100
AcDbLine
 10
187.775
 20
-35.862499
 30
0.0
 11
174.175
 21
-35.862499
 31
0.0
  0
ARC
  5
4D3
330
1D
100
AcDbEntity
  8
BLACK
100
AcDbCircle
 10
174.175
 20
-36.362499
 30
0.0
 40
0.5
100
AcDbArc
 50
90.0
 51
180.0
  0
LINE
  5
4D4
330
1D
100
AcDbEntity
  8
BLACK
  6
Continuous
100
AcDbLine
 10
107.0
 20
-17.312499
 30
0.0
 11
107.0
 21
-30.312499
 31
0.0
  0
ARC
  5
4D5
330
1D
100
AcDbEntity
  8
BLACK
100
AcDbCircle
 10
107.5
 20
-30.312499
 30
0.0
 40
0.5
100
AcDbArc
 50
180.0
 51
270.0
  0
LINE
  5
4D6
330
1D
100
AcDbEntity
  8
BLACK
  6
Continuous
100
AcDbLine
 10
107.5
 20
-30.812499
 30
0.0
 11
121.1
 21
-30.812499
 31
0.0
  0
ARC
  5
4D7
330
1D
100
AcDbEntity
  8
BLACK
100
AcDbCircle
 10
121.1
 20
-30.312499
 30
0.0
 40
0.5
100
AcDbArc
 50
270.0
 51
0.0
  0
LINE
  5
4D8
330
1D
100
AcDbEntity
  8
BLACK
  6
Continuous
100
AcDbLine
 10
121.6
 20
-30.312499
 30
0.0
 11
121.6
 21
-17.312499
 31
0.0
  0
ARC
  5
4D9
330
1D
100
AcDbEntity
  8
BLACK
100
AcDbCircle
 10
121.1
 20
-17.312499
 30
0.0
 40
0.5
100
AcDbArc
 50
0.0
 51
90.0
  0
LINE
  5
4DA
330
1D
100
AcDbEntity
  8
BLACK
  6
Continuous
100
AcDbLine
 10
121.1
 20
-16.812499
 30
0.0
 11
107.5
 21
-16.812499
 31
0.0
  0
ARC
  5
4DB
330
1D
100
AcDbEntity
  8
BLACK
100
AcDbCircle
 10
107.5
 20
-17.312499
 30
0.0
 40
0.5
100
AcDbArc
 50
90.0
 51
180.0
  0
LINE
  5
4DC
330
1D
100
AcDbEntity
  8
BLACK
  6
Continuous
100
AcDbLine
 10
78.425
 20
-36.362499
 30
0.0
 11
78.425
 21
-49.362499
 31
0.0
  0
ARC
  5
4DD
330
1D
100
AcDbEntity
  8
BLACK
100
AcDbCircle
 10
78.925
 20
-49.362499
 30
0.0
 40
0.5
100
AcDbArc
 50
180.0
 51
270.0
  0
LINE
  5
4DE
330
1D
100
AcDbEntity
  8
BLACK
  6
Continuous
100
AcDbLine
 10
78.925
 20
-49.862499
 30
0.0
 11
92.52499999999999
 21
-49.862499
 31
0.0
  0
ARC
  5
4DF
330
1D
100
AcDbEntity
  8
BLACK
100
AcDbCircle
 10
92.52499999999999
 20
-49.362499
 30
0.0
 40
0.5
100
AcDbArc
 50
270.0
 51
0.0
  0
LINE
  5
4E0
330
1D
100
AcDbEntity
  8
BLACK
  6
Continuous
100
AcDbLine
 10
93.02499999999999
 20
-49.362499
 30
0.0
 11
93.02499999999999
 21
-36.362499
 31
0.0
  0
ARC
  5
4E1
330
1D
100
AcDbEntity
  8
BLACK
100
AcDbCircle
 10
92.52499999999999
 20
-36.362499
 30
0.0
 40
0.5
100
AcDbArc
 50
0.0
 51
90.0
  0
LINE
  5
4E2
330
1D
100
AcDbEntity
  8
BLACK
  6
Continuous
100
AcDbLine
 10
92.52499999999999
 20
-35.862499
 30
0.0
 11
78.925
 21
-35.862499
 31
0.0
  0
ARC
  5
4E3
330
1D
100
AcDbEntity
  8
BLACK
100
AcDbCircle
 10
78.925
 20
-36.362499
 30
0.0
 40
0.5
100
AcDbArc
 50
90.0
 51
180.0
  0
LINE
  5
4E4
330
1D
100
AcDbEntity
  8
BLACK
  6
Continuous
100
AcDbLine
 10
168.9125
 20
-74.462499
 30
0.0
 11
168.9125
 21
-87.462499
 31
0.0
  0
ARC
  5
4E5
330
1D
100
AcDbEntity
  8
BLACK
100
AcDbCircle
 10
169.4125
 20
-87.462499
 30
0.0
 40
0.5
100
AcDbArc
 50
180.0
 51
270.0
  0
LINE
  5
4E6
330
1D
100
AcDbEntity
  8
BLACK
  6
Continuous
100
AcDbLine
 10
169.4125
 20
-87.962499
 30
0.0
 11
183.0125
 21
-87.962499
 31
0.0
  0
ARC
  5
4E7
330
1D
100
AcDbEntity
  8
BLACK
100
AcDbCircle
 10
183.0125
 20
-87.462499
 30
0.0
 40
0.5
100
AcDbArc
 50
270.0
 51
0.0
  0
LINE
  5
4E8
330
1D
100
AcDbEntity
  8
BLACK
  6
Continuous
100
AcDbLine
 10
183.5125
 20
-87.462499
 30
0.0
 11
183.5125
 21
-74.462499
 31
0.0
  0
ARC
  5
4E9
330
1D
100
AcDbEntity
  8
BLACK
100
AcDbCircle
 10
183.0125
 20
-74.462499
 30
0.0
 40
0.5
100
AcDbArc
 50
0.0
 51
90.0
  0
LINE
  5
4EA
330
1D
100
AcDbEntity
  8
BLACK
  6
Continuous
100
AcDbLine
 10
183.0125
 20
-73.962499
 30
0.0
 11
169.4125
 21
-73.962499
 31
0.0
  0
ARC
  5
4EB
330
1D
100
AcDbEntity
  8
BLACK
100
AcDbCircle
 10
169.4125
 20
-74.462499
 30
0.0
 40
0.5
100
AcDbArc
 50
90.0
 51
180.0
  0
LINE
  5
4EC
330
1D
100
AcDbEntity
  8
BLACK
  6
Continuous
100
AcDbLine
 10
207.0125
 20
-74.462499
 30
0.0
 11
207.0125
 21
-87.462499
 31
0.0
  0
ARC
  5
4ED
330
1D
100
AcDbEntity
  8
BLACK
100
AcDbCircle
 10
207.5125
 20
-87.462499
 30
0.0
 40
0.5
100
AcDbArc
 50
180.0
 51
270.0
  0
LINE
  5
4EE
330
1D
100
AcDbEntity
  8
BLACK
  6
Continuous
100
AcDbLine
 10
207.5125
 20
-87.962499
 30
0.0
 11
221.1125
 21
-87.962499
 31
0.0
  0
ARC
  5
4EF
330
1D
100
AcDbEntity
  8
BLACK
100
AcDbCircle
 10
221.1125
 20
-87.462499
 30
0.0
 40
0.5
100
AcDbArc
 50
270.0
 51
0.0
  0
LINE
  5
4F0
330
1D
100
AcDbEntity
  8
BLACK
  6
Continuous
100
AcDbLine
 10
221.6125
 20
-87.462499
 30
0.0
 11
221.6125
 21
-74.462499
 31
0.0
  0
ARC
  5
4F1
330
1D
100
AcDbEntity
  8
BLACK
100
AcDbCircle
 10
221.1125
 20
-74.462499
 30
0.0
 40
0.5
100
AcDbArc
 50
0.0
 51
90.0
  0
LINE
  5
4F2
330
1D
100
AcDbEntity
  8
BLACK
  6
Continuous
100
AcDbLine
 10
221.1125
 20
-73.962499
 30
0.0
 11
207.5125
 21
-73.962499
 31
0.0
  0
ARC
  5
4F3
330
1D
100
AcDbEntity
  8
BLACK
100
AcDbCircle
 10
207.5125
 20
-74.462499
 30
0.0
 40
0.5
100
AcDbArc
 50
90.0
 51
180.0
  0
LINE
  5
4F4
330
1D
100
AcDbEntity
  8
BLACK
  6
Continuous
100
AcDbLine
 10
202.25
 20
-17.312499
 30
0.0
 11
202.25
 21
-30.312499
 31
0.0
  0
ARC
  5
4F5
330
1D
100
AcDbEntity
  8
BLACK
100
AcDbCircle
 10
202.75
 20
-30.312499
 30
0.0
 40
0.5
100
AcDbArc
 50
180.0
 51
270.0
  0
LINE
  5
4F6
330
1D
100
AcDbEntity
  8
BLACK
  6
Continuous
100
AcDbLine
 10
202.75
 20
-30.812499
 30
0.0
 11
216.35
 21
-30.812499
 31
0.0
  0
ARC
  5
4F7
330
1D
100
AcDbEntity
  8
BLACK
100
AcDbCircle
 10
216.35
 20
-30.312499
 30
0.0
 40
0.5
100
AcDbArc
 50
270.0
 51
0.0
  0
LINE
  5
4F8
330
1D
100
AcDbEntity
  8
BLACK
  6
Continuous
100
AcDbLine
 10
216.85
 20
-30.312499
 30
0.0
 11
216.85
 21
-17.312499
 31
0.0
  0
ARC
  5
4F9
330
1D
100
AcDbEntity
  8
BLACK
100
AcDbCircle
 10
216.35
 20
-17.312499
 30
0.0
 40
0.5
100
AcDbArc
 50
0.0
 51
90.0
  0
LINE
  5
4FA
330
1D
100
AcDbEntity
  8
BLACK
  6
Continuous
100
AcDbLine
 10
216.35
 20
-16.812499
 30
0.0
 11
202.75
 21
-16.812499
 31
0.0
  0
ARC
  5
4FB
330
1D
100
AcDbEntity
  8
BLACK
100
AcDbCircle
 10
202.75
 20
-17.312499
 30
0.0
 40
0.5
100
AcDbArc
 50
90.0
 51
180.0
  0
LINE
  5
4FC
330
1D
100
AcDbEntity
  8
BLACK
  6
Continuous
100
AcDbLine
 10
87.95
 20
-17.312499
 30
0.0
 11
87.95
 21
-30.312499
 31
0.0
  0
ARC
  5
4FD
330
1D
100
AcDbEntity
  8
BLACK
100
AcDbCircle
 10
88.45
 20
-30.312499
 30
0.0
 40
0.5
100
AcDbArc
 50
180.0
 51
270.0
  0
LINE
  5
4FE
330
1D
100
AcDbEntity
  8
BLACK
  6
Continuous
100
AcDbLine
 10
88.45
 20
-30.812499
 30
0.0
 11
102.05
 21
-30.812499
 31
0.0
  0
ARC
  5
4FF
330
1D
100
AcDbEntity
  8
BLACK
100
AcDbCircle
 10
102.05
 20
-30.312499
 30
0.0
 40
0.5
100
AcDbArc
 50
270.0
 51
0.0
  0
LINE
  5
500
330
1D
100
AcDbEntity
  8
BLACK
  6
Continuous
100
AcDbLine
 10
102.55
 20
-30.312499
 30
0.0
 11
102.55
 21
-17.312499
 31
0.0
  0
ARC
  5
501
330
1D
100
AcDbEntity
  8
BLACK
100
AcDbCircle
 10
102.05
 20
-17.312499
 30
0.0
 40
0.5
100
AcDbArc
 50
0.0
 51
90.0
  0
LINE
  5
502
330
1D
100
AcDbEntity
  8
BLACK
  6
Continuous
100
AcDbLine
 10
102.05
 20
-16.812499
 30
0.0
 11
88.45
 21
-16.812499
 31
0.0
  0
ARC
  5
503
330
1D
100
AcDbEntity
  8
BLACK
100
AcDbCircle
 10
88.45
 20
-17.312499
 30
0.0
 40
0.5
100
AcDbArc
 50
90.0
 51
180.0
  0
LINE
  5
504
330
1D
100
AcDbEntity
  8
BLACK
  6
Continuous
100
AcDbLine
 10
178.4375
 20
-55.412499
 30
0.0
 11
178.4375
 21
-68.412499
 31
0.0
  0
ARC
  5
505
330
1D
100
AcDbEntity
  8
BLACK
100
AcDbCircle
 10
178.9375
 20
-68.412499
 30
0.0
 40
0.5
100
AcDbArc
 50
180.0
 51
270.0
  0
LINE
  5
506
330
1D
100
AcDbEntity
  8
BLACK
  6
Continuous
100
AcDbLine
 10
178.9375
 20
-68.912499
 30
0.0
 11
192.5375
 21
-68.912499
 31
0.0
  0
ARC
  5
507
330
1D
100
AcDbEntity
  8
BLACK
100
AcDbCircle
 10
192.5375
 20
-68.412499
 30
0.0
 40
0.5
100
AcDbArc
 50
270.0
 51
0.0
  0
LINE
  5
508
330
1D
100
AcDbEntity
  8
BLACK
  6
Continuous
100
AcDbLine
 10
193.0375
 20
-68.412499
 30
0.0
 11
193.0375
 21
-55.412499
 31
0.0
  0
ARC
  5
509
330
1D
100
AcDbEntity
  8
BLACK
100
AcDbCircle
 10
192.5375
 20
-55.412499
 30
0.0
 40
0.5
100
AcDbArc
 50
0.0
 51
90.0
  0
LINE
  5
50A
330
1D
100
AcDbEntity
  8
BLACK
  6
Continuous
100
AcDbLine
 10
192.5375
 20
-54.912499
 30
0.0
 11
178.9375
 21
-54.912499
 31
0.0
  0
ARC
  5
50B
330
1D
100
AcDbEntity
  8
BLACK
100
AcDbCircle
 10
178.9375
 20
-55.412499
 30
0.0
 40
0.5
100
AcDbArc
 50
90.0
 51
180.0
  0
LINE
  5
50C
330
1D
100
AcDbEntity
  8
BLACK
  6
Continuous
100
AcDbLine
 10
54.6125
 20
-74.462499
 30
0.0
 11
54.6125
 21
-87.462499
 31
0.0
  0
ARC
  5
50D
330
1D
100
AcDbEntity
  8
BLACK
100
AcDbCircle
 10
55.1125
 20
-87.462499
 30
0.0
 40
0.5
100
AcDbArc
 50
180.0
 51
270.0
  0
LINE
  5
50E
330
1D
100
AcDbEntity
  8
BLACK
  6
Continuous
100
AcDbLine
 10
55.1125
 20
-87.962499
 30
0.0
 11
68.71249999999999
 21
-87.962499
 31
0.0
  0
ARC
  5
50F
330
1D
100
AcDbEntity
  8
BLACK
100
AcDbCircle
 10
68.71249999999999
 20
-87.462499
 30
0.0
 40
0.5
100
AcDbArc
 50
270.0
 51
0.0
  0
LINE
  5
510
330
1D
100
AcDbEntity
  8
BLACK
  6
Continuous
100
AcDbLine
 10
69.21249999999999
 20
-87.462499
 30
0.0
 11
69.21249999999999
 21
-74.462499
 31
0.0
  0
ARC
  5
511
330
1D
100
AcDbEntity
  8
BLACK
100
AcDbCircle
 10
68.71249999999999
 20
-74.462499
 30
0.0
 40
0.5
100
AcDbArc
 50
0.0
 51
90.0
  0
LINE
  5
512
330
1D
100
AcDbEntity
  8
BLACK
  6
Continuous
100
AcDbLine
 10
68.71249999999999
 20
-73.962499
 30
0.0
 11
55.1125
 21
-73.962499
 31
0.0
  0
ARC
  5
513
330
1D
100
AcDbEntity
  8
BLACK
100
AcDbCircle
 10
55.1125
 20
-74.462499
 30
0.0
 40
0.5
100
AcDbArc
 50
90.0
 51
180.0
  0
LINE
  5
514
330
1D
100
AcDbEntity
  8
BLACK
  6
Continuous
100
AcDbLine
 10
230.825
 20
-36.362499
 30
0.0
 11
230.825
 21
-49.362499
 31
0.0
  0
ARC
  5
515
330
1D
100
AcDbEntity
  8
BLACK
100
AcDbCircle
 10
231.325
 20
-49.362499
 30
0.0
 40
0.5
100
AcDbArc
 50
180.0
 51
270.0
  0
LINE
  5
516
330
1D
100
AcDbEntity
  8
BLACK
  6
Continuous
100
AcDbLine
 10
231.325
 20
-49.862499
 30
0.0
 11
244.925
 21
-49.862499
 31
0.0
  0
ARC
  5
517
330
1D
100
AcDbEntity
  8
BLACK
100
AcDbCircle
 10
244.925
 20
-49.362499
 30
0.0
 40
0.5
100
AcDbArc
 50
270.0
 51
0.0
  0
LINE
  5
518
330
1D
100
AcDbEntity
  8
BLACK
  6
Continuous
100
AcDbLine
 10
245.425
 20
-49.362499
 30
0.0
 11
245.425
 21
-36.362499
 31
0.0
  0
ARC
  5
519
330
1D
100
AcDbEntity
  8
BLACK
100
AcDbCircle
 10
244.925
 20
-36.362499
 30
0.0
 40
0.5
100
AcDbArc
 50
0.0
 51
90.0
  0
LINE
  5
51A
330
1D
100
AcDbEntity
  8
BLACK
  6
Continuous
100
AcDbLine
 10
244.925
 20
-35.862499
 30
0.0
 11
231.325
 21
-35.862499
 31
0.0
  0
ARC
  5
51B
330
1D
100
AcDbEntity
  8
BLACK
100
AcDbCircle
 10
231.325
 20
-36.362499
 30
0.0
 40
0.5
100
AcDbArc
 50
90.0
 51
180.0
  0
LINE
  5
51C
330
1D
100
AcDbEntity
  8
BLACK
  6
Continuous
100
AcDbLine
 10
83.1875
 20
-55.412499
 30
0.0
 11
83.1875
 21
-68.412499
 31
0.0
  0
ARC
  5
51D
330
1D
100
AcDbEntity
  8
BLACK
100
AcDbCircle
 10
83.6875
 20
-68.412499
 30
0.0
 40
0.5
100
AcDbArc
 50
180.0
 51
270.0
  0
LINE
  5
51E
330
1D
100
AcDbEntity
  8
BLACK
  6
Continuous
100
AcDbLine
 10
83.6875
 20
-68.912499
 30
0.0
 11
97.2875
 21
-68.912499
 31
0.0
  0
ARC
  5
51F
330
1D
100
AcDbEntity
  8
BLACK
100
AcDbCircle
 10
97.2875
 20
-68.412499
 30
0.0
 40
0.5
100
AcDbArc
 50
270.0
 51
0.0
  0
LINE
  5
520
330
1D
100
AcDbEntity
  8
BLACK
  6
Continuous
100
AcDbLine
 10
97.7875
 20
-68.412499
 30
0.0
 11
97.7875
 21
-55.412499
 31
0.0
  0
ARC
  5
521
330
1D
100
AcDbEntity
  8
BLACK
100
AcDbCircle
 10
97.2875
 20
-55.412499
 30
0.0
 40
0.5
100
AcDbArc
 50
0.0
 51
90.0
  0
LINE
  5
522
330
1D
100
AcDbEntity
  8
BLACK
  6
Continuous
100
AcDbLine
 10
97.2875
 20
-54.912499
 30
0.0
 11
83.6875
 21
-54.912499
 31
0.0
  0
ARC
  5
523
330
1D
100
AcDbEntity
  8
BLACK
100
AcDbCircle
 10
83.6875
 20
-55.412499
 30
0.0
 40
0.5
100
AcDbArc
 50
90.0
 51
180.0
  0
LINE
  5
524
330
1D
100
AcDbEntity
  8
BLACK
  6
Continuous
100
AcDbLine
 10
116.525
 20
-36.362499
 30
0.0
 11
116.525
 21
-49.362499
 31
0.0
  0
ARC
  5
525
330
1D
100
AcDbEntity
  8
BLACK
100
AcDbCircle
 10
117.025
 20
-49.362499
 30
0.0
 40
0.5
100
AcDbArc
 50
180.0
 51
270.0
  0
LINE
  5
526
330
1D
100
AcDbEntity
  8
BLACK
  6
Continuous
100
AcDbLine
 10
117.025
 20
-49.862499
 30
0.0
 11
130.625
 21
-49.862499
 31
0.0
  0
ARC
  5
527
330
1D
100
AcDbEntity
  8
BLACK
100
AcDbCircle
 10
130.625
 20
-49.362499
 30
0.0
 40
0.5
100
AcDbArc
 50
270.0
 51
0.0
  0
LINE
  5
528
330
1D
100
AcDbEntity
  8
BLACK
  6
Continuous
100
AcDbLine
 10
131.125
 20
-49.362499
 30
0.0
 11
131.125
 21
-36.362499
 31
0.0
  0
ARC
  5
529
330
1D
100
AcDbEntity
  8
BLACK
100
AcDbCircle
 10
130.625
 20
-36.362499
 30
0.0
 40
0.5
100
AcDbArc
 50
0.0
 51
90.0
  0
LINE
  5
52A
330
1D
100
AcDbEntity
  8
BLACK
  6
Continuous
100
AcDbLine
 10
130.625
 20
-35.862499
 30
0.0
 11
117.025
 21
-35.862499
 31
0.0
  0
ARC
  5
52B
330
1D
100
AcDbEntity
  8
BLACK
100
AcDbCircle
 10
117.025
 20
-36.362499
 30
0.0
 40
0.5
100
AcDbArc
 50
90.0
 51
180.0
  0
LINE
  5
52C
330
1D
100
AcDbEntity
  8
BLACK
  6
Continuous
100
AcDbLine
 10
221.3
 20
-17.312499
 30
0.0
 11
221.3
 21
-30.312499
 31
0.0
  0
ARC
  5
52D
330
1D
100
AcDbEntity
  8
BLACK
100
AcDbCircle
 10
221.8
 20
-30.312499
 30
0.0
 40
0.5
100
AcDbArc
 50
180.0
 51
270.0
  0
LINE
  5
52E
330
1D
100
AcDbEntity
  8
BLACK
  6
Continuous
100
AcDbLine
 10
221.8
 20
-30.812499
 30
0.0
 11
235.4
 21
-30.812499
 31
0.0
  0
ARC
  5
52F
330
1D
100
AcDbEntity
  8
BLACK
100
AcDbCircle
 10
235.4
 20
-30.312499
 30
0.0
 40
0.5
100
AcDbArc
 50
270.0
 51
0.0
  0
LINE
  5
530
330
1D
100
AcDbEntity
  8
BLACK
  6
Continuous
100
AcDbLine
 10
235.9
 20
-30.312499
 30
0.0
 11
235.9
 21
-17.312499
 31
0.0
  0
ARC
  5
531
330
1D
100
AcDbEntity
  8
BLACK
100
AcDbCircle
 10
235.4
 20
-17.312499
 30
0.0
 40
0.5
100
AcDbArc
 50
0.0
 51
90.0
  0
LINE
  5
532
330
1D
100
AcDbEntity
  8
BLACK
  6
Continuous
100
AcDbLine
 10
235.4
 20
-16.812499
 30
0.0
 11
221.8
 21
-16.812499
 31
0.0
  0
ARC
  5
533
330
1D
100
AcDbEntity
  8
BLACK
100
AcDbCircle
 10
221.8
 20
-17.312499
 30
0.0
 40
0.5
100
AcDbArc
 50
90.0
 51
180.0
  0
LINE
  5
534
330
1D
100
AcDbEntity
  8
BLACK
  6
Continuous
100
AcDbLine
 10
121.2875
 20
-55.412499
 30
0.0
 11
121.2875
 21
-68.412499
 31
0.0
  0
ARC
  5
535
330
1D
100
AcDbEntity
  8
BLACK
100
AcDbCircle
 10
121.7875
 20
-68.412499
 30
0.0
 40
0.5
100
AcDbArc
 50
180.0
 51
270.0
  0
LINE
  5
536
330
1D
100
AcDbEntity
  8
BLACK
  6
Continuous
100
AcDbLine
 10
121.7875
 20
-68.912499
 30
0.0
 11
135.3875
 21
-68.912499
 31
0.0
  0
ARC
  5
537
330
1D
100
AcDbEntity
  8
BLACK
100
AcDbCircle
 10
135.3875
 20
-68.412499
 30
0.0
 40
0.5
100
AcDbArc
 50
270.0
 51
0.0
  0
LINE
  5
538
330
1D
100
AcDbEntity
  8
BLACK
  6
Continuous
100
AcDbLine
 10
135.8875
 20
-68.412499
 30
0.0
 11
135.8875
 21
-55.412499
 31
0.0
  0
ARC
  5
539
330
1D
100
AcDbEntity
  8
BLACK
100
AcDbCircle
 10
135.3875
 20
-55.412499
 30
0.0
 40
0.5
100
AcDbArc
 50
0.0
 51
90.0
  0
LINE
  5
53A
330
1D
100
AcDbEntity
  8
BLACK
  6
Continuous
100
AcDbLine
 10
135.3875
 20
-54.912499
 30
0.0
 11
121.7875
 21
-54.912499
 31
0.0
  0
ARC
  5
53B
330
1D
100
AcDbEntity
  8
BLACK
100
AcDbCircle
 10
121.7875
 20
-55.412499
 30
0.0
 40
0.5
100
AcDbArc
 50
90.0
 51
180.0
  0
LINE
  5
53C
330
1D
100
AcDbEntity
  8
BLACK
  6
Continuous
100
AcDbLine
 10
111.7625
 20
-74.462499
 30
0.0
 11
111.7625
 21
-87.462499
 31
0.0
  0
ARC
  5
53D
330
1D
100
AcDbEntity
  8
BLACK
100
AcDbCircle
 10
112.2625
 20
-87.462499
 30
0.0
 40
0.5
100
AcDbArc
 50
180.0
 51
270.0
  0
LINE
  5
53E
330
1D
100
AcDbEntity
  8
BLACK
  6
Continuous
100
AcDbLine
 10
112.2625
 20
-87.962499
 30
0.0
 11
125.8625
 21
-87.962499
 31
0.0
  0
ARC
  5
53F
330
1D
100
AcDbEntity
  8
BLACK
100
AcDbCircle
 10
125.8625
 20
-87.462499
 30
0.0
 40
0.5
100
AcDbArc
 50
270.0
 51
0.0
  0
LINE
  5
540
330
1D
100
AcDbEntity
  8
BLACK
  6
Continuous
100
AcDbLine
 10
126.3625
 20
-87.462499
 30
0.0
 11
126.3625
 21
-74.462499
 31
0.0
  0
ARC
  5
541
330
1D
100
AcDbEntity
  8
BLACK
100
AcDbCircle
 10
125.8625
 20
-74.462499
 30
0.0
 40
0.5
100
AcDbArc
 50
0.0
 51
90.0
  0
LINE
  5
542
330
1D
100
AcDbEntity
  8
BLACK
  6
Continuous
100
AcDbLine
 10
125.8625
 20
-73.962499
 30
0.0
 11
112.2625
 21
-73.962499
 31
0.0
  0
ARC
  5
543
330
1D
100
AcDbEntity
  8
BLACK
100
AcDbCircle
 10
112.2625
 20
-74.462499
 30
0.0
 40
0.5
100
AcDbArc
 50
90.0
 51
180.0
  0
LINE
  5
544
330
1D
100
AcDbEntity
  8
BLACK
  6
Continuous
100
AcDbLine
 10
21.275
 20
-36.362499
 30
0.0
 11
21.275
 21
-49.362499
 31
0.0
  0
ARC
  5
545
330
1D
100
AcDbEntity
  8
BLACK
100
AcDbCircle
 10
21.775
 20
-49.362499
 30
0.0
 40
0.5
100
AcDbArc
 50
180.0
 51
270.0
  0
LINE
  5
546
330
1D
100
AcDbEntity
  8
BLACK
  6
Continuous
100
AcDbLine
 10
21.775
 20
-49.862499
 30
0.0
 11
35.375
 21
-49.862499
 31
0.0
  0
ARC
  5
547
330
1D
100
AcDbEntity
  8
BLACK
100
AcDbCircle
 10
35.375
 20
-49.362499
 30
0.0
 40
0.5
100
AcDbArc
 50
270.0
 51
0.0
  0
LINE
  5
548
330
1D
100
AcDbEntity
  8
BLACK
  6
Continuous
100
AcDbLine
 10
35.875
 20
-49.362499
 30
0.0
 11
35.875
 21
-36.362499
 31
0.0
  0
ARC
  5
549
330
1D
100
AcDbEntity
  8
BLACK
100
AcDbCircle
 10
35.375
 20
-36.362499
 30
0.0
 40
0.5
100
AcDbArc
 50
0.0
 51
90.0
  0
LINE
  5
54A
330
1D
100
AcDbEntity
  8
BLACK
  6
Continuous
100
AcDbLine
 10
35.375
 20
-35.862499
 30
0.0
 11
21.775
 21
-35.862499
 31
0.0
  0
ARC
  5
54B
330
1D
100
AcDbEntity
  8
BLACK
100
AcDbCircle
 10
21.775
 20
-36.362499
 30
0.0
 40
0.5
100
AcDbArc
 50
90.0
 51
180.0
  0
LINE
  5
54C
330
1D
100
AcDbEntity
  8
BLACK
  6
Continuous
100
AcDbLine
 10
183.2
 20
-17.312499
 30
0.0
 11
183.2
 21
-30.312499
 31
0.0
  0
ARC
  5
54D
330
1D
100
AcDbEntity
  8
BLACK
100
AcDbCircle
 10
183.7
 20
-30.312499
 30
0.0
 40
0.5
100
AcDbArc
 50
180.0
 51
270.0
  0
LINE
  5
54E
330
1D
100
AcDbEntity
  8
BLACK
  6
Continuous
100
AcDbLine
 10
183.7
 20
-30.812499
 30
0.0
 11
197.3
 21
-30.812499
 31
0.0
  0
ARC
  5
54F
330
1D
100
AcDbEntity
  8
BLACK
100
AcDbCircle
 10
197.3
 20
-30.312499
 30
0.0
 40
0.5
100
AcDbArc
 50
270.0
 51
0.0
  0
LINE
  5
550
330
1D
100
AcDbEntity
  8
BLACK
  6
Continuous
100
AcDbLine
 10
197.8
 20
-30.312499
 30
0.0
 11
197.8
 21
-17.312499
 31
0.0
  0
ARC
  5
551
330
1D
100
AcDbEntity
  8
BLACK
100
AcDbCircle
 10
197.3
 20
-17.312499
 30
0.0
 40
0.5
100
AcDbArc
 50
0.0
 51
90.0
  0
LINE
  5
552
330
1D
100
AcDbEntity
  8
BLACK
  6
Continuous
100
AcDbLine
 10
197.3
 20
-16.812499
 30
0.0
 11
183.7
 21
-16.812499
 31
0.0
  0
ARC
  5
553
330
1D
100
AcDbEntity
  8
BLACK
100
AcDbCircle
 10
183.7
 20
-17.312499
 30
0.0
 40
0.5
100
AcDbArc
 50
90.0
 51
180.0
  0
LINE
  5
554
330
1D
100
AcDbEntity
  8
BLACK
  6
Continuous
100
AcDbLine
 10
135.575
 20
-36.362499
 30
0.0
 11
135.575
 21
-49.362499
 31
0.0
  0
ARC
  5
555
330
1D
100
AcDbEntity
  8
BLACK
100
AcDbCircle
 10
136.075
 20
-49.362499
 30
0.0
 40
0.5
100
AcDbArc
 50
180.0
 51
270.0
  0
LINE
  5
556
330
1D
100
AcDbEntity
  8
BLACK
  6
Continuous
100
AcDbLine
 10
136.075
 20
-49.862499
 30
0.0
 11
149.675
 21
-49.862499
 31
0.0
  0
ARC
  5
557
330
1D
100
AcDbEntity
  8
BLACK
100
AcDbCircle
 10
149.675
 20
-49.362499
 30
0.0
 40
0.5
100
AcDbArc
 50
270.0
 51
0.0
  0
LINE
  5
558
330
1D
100
AcDbEntity
  8
BLACK
  6
Continuous
100
AcDbLine
 10
150.175
 20
-49.362499
 30
0.0
 11
150.175
 21
-36.362499
 31
0.0
  0
ARC
  5
559
330
1D
100
AcDbEntity
  8
BLACK
100
AcDbCircle
 10
149.675
 20
-36.362499
 30
0.0
 40
0.5
100
AcDbArc
 50
0.0
 51
90.0
  0
LINE
  5
55A
330
1D
100
AcDbEntity
  8
BLACK
  6
Continuous
100
AcDbLine
 10
149.675
 20
-35.862499
 30
0.0
 11
136.075
 21
-35.862499
 31
0.0
  0
ARC
  5
55B
330
1D
100
AcDbEntity
  8
BLACK
100
AcDbCircle
 10
136.075
 20
-36.362499
 30
0.0
 40
0.5
100
AcDbArc
 50
90.0
 51
180.0
  0
LINE
  5
55C
330
1D
100
AcDbEntity
  8
BLACK
  6
Continuous
100
AcDbLine
 10
159.3875
 20
-55.412499
 30
0.0
 11
159.3875
 21
-68.412499
 31
0.0
  0
ARC
  5
55D
330
1D
100
AcDbEntity
  8
BLACK
100
AcDbCircle
 10
159.8875
 20
-68.412499
 30
0.0
 40
0.5
100
AcDbArc
 50
180.0
 51
270.0
  0
LINE
  5
55E
330
1D
100
AcDbEntity
  8
BLACK
  6
Continuous
100
AcDbLine
 10
159.8875
 20
-68.912499
 30
0.0
 11
173.4875
 21
-68.912499
 31
0.0
  0
ARC
  5
55F
330
1D
100
AcDbEntity
  8
BLACK
100
AcDbCircle
 10
173.4875
 20
-68.412499
 30
0.0
 40
0.5
100
AcDbArc
 50
270.0
 51
0.0
  0
LINE
  5
560
330
1D
100
AcDbEntity
  8
BLACK
  6
Continuous
100
AcDbLine
 10
173.9875
 20
-68.412499
 30
0.0
 11
173.9875
 21
-55.412499
 31
0.0
  0
ARC
  5
561
330
1D
100
AcDbEntity
  8
BLACK
100
AcDbCircle
 10
173.4875
 20
-55.412499
 30
0.0
 40
0.5
100
AcDbArc
 50
0.0
 51
90.0
  0
LINE
  5
562
330
1D
100
AcDbEntity
  8
BLACK
  6
Continuous
100
AcDbLine
 10
173.4875
 20
-54.912499
 30
0.0
 11
159.8875
 21
-54.912499
 31
0.0
  0
ARC
  5
563
330
1D
100
AcDbEntity
  8
BLACK
100
AcDbCircle
 10
159.8875
 20
-55.412499
 30
0.0
 40
0.5
100
AcDbArc
 50
90.0
 51
180.0
  0
LINE
  5
564
330
1D
100
AcDbEntity
  8
BLACK
  6
Continuous
100
AcDbLine
 10
26.0375
 20
-55.412499
 30
0.0
 11
26.0375
 21
-68.412499
 31
0.0
  0
ARC
  5
565
330
1D
100
AcDbEntity
  8
BLACK
100
AcDbCircle
 10
26.5375
 20
-68.412499
 30
0.0
 40
0.5
100
AcDbArc
 50
180.0
 51
270.0
  0
LINE
  5
566
330
1D
100
AcDbEntity
  8
BLACK
  6
Continuous
100
AcDbLine
 10
26.5375
 20
-68.912499
 30
0.0
 11
40.1375
 21
-68.912499
 31
0.0
  0
ARC
  5
567
330
1D
100
AcDbEntity
  8
BLACK
100
AcDbCircle
 10
40.1375
 20
-68.412499
 30
0.0
 40
0.5
100
AcDbArc
 50
270.0
 51
0.0
  0
LINE
  5
568
330
1D
100
AcDbEntity
  8
BLACK
  6
Continuous
100
AcDbLine
 10
40.6375
 20
-68.412499
 30
0.0
 11
40.6375
 21
-55.412499
 31
0.0
  0
ARC
  5
569
330
1D
100
AcDbEntity
  8
BLACK
100
AcDbCircle
 10
40.1375
 20
-55.412499
 30
0.0
 40
0.5
100
AcDbArc
 50
0.0
 51
90.0
  0
LINE
  5
56A
330
1D
100
AcDbEntity
  8
BLACK
  6
Continuous
100
AcDbLine
 10
40.1375
 20
-54.912499
 30
0.0
 11
26.5375
 21
-54.912499
 31
0.0
  0
ARC
  5
56B
330
1D
100
AcDbEntity
  8
BLACK
100
AcDbCircle
 10
26.5375
 20
-55.412499
 30
0.0
 40
0.5
100
AcDbArc
 50
90.0
 51
180.0
  0
LINE
  5
56C
330
1D
100
AcDbEntity
  8
BLACK
  6
Continuous
100
AcDbLine
 10
126.05
 20
-17.312499
 30
0.0
 11
126.05
 21
-30.312499
 31
0.0
  0
ARC
  5
56D
330
1D
100
AcDbEntity
  8
BLACK
100
AcDbCircle
 10
126.55
 20
-30.312499
 30
0.0
 40
0.5
100
AcDbArc
 50
180.0
 51
270.0
  0
LINE
  5
56E
330
1D
100
AcDbEntity
  8
BLACK
  6
Continuous
100
AcDbLine
 10
126.55
 20
-30.812499
 30
0.0
 11
140.15
 21
-30.812499
 31
0.0
  0
ARC
  5
56F
330
1D
100
AcDbEntity
  8
BLACK
100
AcDbCircle
 10
140.15
 20
-30.312499
 30
0.0
 40
0.5
100
AcDbArc
 50
270.0
 51
0.0
  0
LINE
  5
570
330
1D
100
AcDbEntity
  8
BLACK
  6
Continuous
100
AcDbLine
 10
140.65
 20
-30.312499
 30
0.0
 11
140.65
 21
-17.312499
 31
0.0
  0
ARC
  5
571
330
1D
100
AcDbEntity
  8
BLACK
100
AcDbCircle
 10
140.15
 20
-17.312499
 30
0.0
 40
0.5
100
AcDbArc
 50
0.0
 51
90.0
  0
LINE
  5
572
330
1D
100
AcDbEntity
  8
BLACK
  6
Continuous
100
AcDbLine
 10
140.15
 20
-16.812499
 30
0.0
 11
126.55
 21
-16.812499
 31
0.0
  0
ARC
  5
573
330
1D
100
AcDbEntity
  8
BLACK
100
AcDbCircle
 10
126.55
 20
-17.312499
 30
0.0
 40
0.5
100
AcDbArc
 50
90.0
 51
180.0
  0
LINE
  5
574
330
1D
100
AcDbEntity
  8
BLACK
  6
Continuous
100
AcDbLine
 10
154.625
 20
-36.362499
 30
0.0
 11
154.625
 21
-49.362499
 31
0.0
  0
ARC
  5
575
330
1D
100
AcDbEntity
  8
BLACK
100
AcDbCircle
 10
155.125
 20
-49.362499
 30
0.0
 40
0.5
100
AcDbArc
 50
180.0
 51
270.0
  0
LINE
  5
576
330
1D
100
AcDbEntity
  8
BLACK
  6
Continuous
100
AcDbLine
 10
155.125
 20
-49.862499
 30
0.0
 11
168.725
 21
-49.862499
 31
0.0
  0
ARC
  5
577
330
1D
100
AcDbEntity
  8
BLACK
100
AcDbCircle
 10
168.725
 20
-49.362499
 30
0.0
 40
0.5
100
AcDbArc
 50
270.0
 51
0.0
  0
LINE
  5
578
330
1D
100
AcDbEntity
  8
BLACK
  6
Continuous
100
AcDbLine
 10
169.225
 20
-49.362499
 30
0.0
 11
169.225
 21
-36.362499
 31
0.0
  0
ARC
  5
579
330
1D
100
AcDbEntity
  8
BLACK
100
AcDbCircle
 10
168.725
 20
-36.362499
 30
0.0
 40
0.5
100
AcDbArc
 50
0.0
 51
90.0
  0
LINE
  5
57A
330
1D
100
AcDbEntity
  8
BLACK
  6
Continuous
100
AcDbLine
 10
168.725
 20
-35.862499
 30
0.0
 11
155.125
 21
-35.862499
 31
0.0
  0
ARC
  5
57B
330
1D
100
AcDbEntity
  8
BLACK
100
AcDbCircle
 10
155.125
 20
-36.362499
 30
0.0
 40
0.5
100
AcDbArc
 50
90.0
 51
180.0
  0
LINE
  5
57C
330
1D
100
AcDbEntity
  8
BLACK
  6
Continuous
100
AcDbLine
 10
35.5625
 20
-74.462499
 30
0.0
 11
35.5625
 21
-87.462499
 31
0.0
  0
ARC
  5
57D
330
1D
100
AcDbEntity
  8
BLACK
100
AcDbCircle
 10
36.0625
 20
-87.462499
 30
0.0
 40
0.5
100
AcDbArc
 50
180.0
 51
270.0
  0
LINE
  5
57E
330
1D
100
AcDbEntity
  8
BLACK
  6
Continuous
100
AcDbLine
 10
36.0625
 20
-87.962499
 30
0.0
 11
49.66249999999999
 21
-87.962499
 31
0.0
  0
ARC
  5
57F
330
1D
100
AcDbEntity
  8
BLACK
100
AcDbCircle
 10
49.66249999999999
 20
-87.462499
 30
0.0
 40
0.5
100
AcDbArc
 50
270.0
 51
0.0
  0
LINE
  5
580
330
1D
100
AcDbEntity
  8
BLACK
  6
Continuous
100
AcDbLine
 10
50.16249999999999
 20
-87.462499
 30
0.0
 11
50.16249999999999
 21
-74.462499
 31
0.0
  0
ARC
  5
581
330
1D
100
AcDbEntity
  8
BLACK
100
AcDbCircle
 10
49.66249999999999
 20
-74.462499
 30
0.0
 40
0.5
100
AcDbArc
 50
0.0
 51
90.0
  0
LINE
  5
582
330
1D
100
AcDbEntity
  8
BLACK
  6
Continuous
100
AcDbLine
 10
49.66249999999999
 20
-73.962499
 30
0.0
 11
36.0625
 21
-73.962499
 31
0.0
  0
ARC
  5
583
330
1D
100
AcDbEntity
  8
BLACK
100
AcDbCircle
 10
36.0625
 20
-74.462499
 30
0.0
 40
0.5
100
AcDbArc
 50
90.0
 51
180.0
  0
LINE
  5
584
330
1D
100
AcDbEntity
  8
BLACK
  6
Continuous
100
AcDbLine
 10
68.89999999999999
 20
-17.312499
 30
0.0
 11
68.89999999999999
 21
-30.312499
 31
0.0
  0
ARC
  5
585
330
1D
100
AcDbEntity
  8
BLACK
100
AcDbCircle
 10
69.39999999999999
 20
-30.312499
 30
0.0
 40
0.5
100
AcDbArc
 50
180.0
 51
270.0
  0
LINE
  5
586
330
1D
100
AcDbEntity
  8
BLACK
  6
Continuous
100
AcDbLine
 10
69.39999999999999
 20
-30.812499
 30
0.0
 11
83.0
 21
-30.812499
 31
0.0
  0
ARC
  5
587
330
1D
100
AcDbEntity
  8
BLACK
100
AcDbCircle
 10
83.0
 20
-30.312499
 30
0.0
 40
0.5
100
AcDbArc
 50
270.0
 51
0.0
  0
LINE
  5
588
330
1D
100
AcDbEntity
  8
BLACK
  6
Continuous
100
AcDbLine
 10
83.5
 20
-30.312499
 30
0.0
 11
83.5
 21
-17.312499
 31
0.0
  0
ARC
  5
589
330
1D
100
AcDbEntity
  8
BLACK
100
AcDbCircle
 10
83.0
 20
-17.312499
 30
0.0
 40
0.5
100
AcDbArc
 50
0.0
 51
90.0
  0
LINE
  5
58A
330
1D
100
AcDbEntity
  8
BLACK
  6
Continuous
100
AcDbLine
 10
83.0
 20
-16.812499
 30
0.0
 11
69.39999999999999
 21
-16.812499
 31
0.0
  0
ARC
  5
58B
330
1D
100
AcDbEntity
  8
BLACK
100
AcDbCircle
 10
69.39999999999999
 20
-17.312499
 30
0.0
 40
0.5
100
AcDbArc
 50
90.0
 51
180.0
  0
LINE
  5
58C
330
1D
100
AcDbEntity
  8
BLACK
  6
Continuous
100
AcDbLine
 10
145.1
 20
-17.312499
 30
0.0
 11
145.1
 21
-30.312499
 31
0.0
  0
ARC
  5
58D
330
1D
100
AcDbEntity
  8
BLACK
100
AcDbCircle
 10
145.6
 20
-30.312499
 30
0.0
 40
0.5
100
AcDbArc
 50
180.0
 51
270.0
  0
LINE
  5
58E
330
1D
100
AcDbEntity
  8
BLACK
  6
Continuous
100
AcDbLine
 10
145.6
 20
-30.812499
 30
0.0
 11
159.2
 21
-30.812499
 31
0.0
  0
ARC
  5
58F
330
1D
100
AcDbEntity
  8
BLACK
100
AcDbCircle
 10
159.2
 20
-30.312499
 30
0.0
 40
0.5
100
AcDbArc
 50
270.0
 51
0.0
  0
LINE
  5
590
330
1D
100
AcDbEntity
  8
BLACK
  6
Continuous
100
AcDbLine
 10
159.7
 20
-30.312499
 30
0.0
 11
159.7
 21
-17.312499
 31
0.0
  0
ARC
  5
591
330
1D
100
AcDbEntity
  8
BLACK
100
AcDbCircle
 10
159.2
 20
-17.312499
 30
0.0
 40
0.5
100
AcDbArc
 50
0.0
 51
90.0
  0
LINE
  5
592
330
1D
100
AcDbEntity
  8
BLACK
  6
Continuous
100
AcDbLine
 10
159.2
 20
-16.812499
 30
0.0
 11
145.6
 21
-16.812499
 31
0.0
  0
ARC
  5
593
330
1D
100
AcDbEntity
  8
BLACK
100
AcDbCircle
 10
145.6
 20
-17.312499
 30
0.0
 40
0.5
100
AcDbArc
 50
90.0
 51
180.0
  0
LINE
  5
594
330
1D
100
AcDbEntity
  8
BLACK
  6
Continuous
100
AcDbLine
 10
11.75
 20
-17.312499
 30
0.0
 11
11.75
 21
-30.312499
 31
0.0
  0
ARC
  5
595
330
1D
100
AcDbEntity
  8
BLACK
100
AcDbCircle
 10
12.25
 20
-30.312499
 30
0.0
 40
0.5
100
AcDbArc
 50
180.0
 51
270.0
  0
LINE
  5
596
330
1D
100
AcDbEntity
  8
BLACK
  6
Continuous
100
AcDbLine
 10
12.25
 20
-30.812499
 30
0.0
 11
25.85
 21
-30.812499
 31
0.0
  0
ARC
  5
597
330
1D
100
AcDbEntity
  8
BLACK
100
AcDbCircle
 10
25.85
 20
-30.312499
 30
0.0
 40
0.5
100
AcDbArc
 50
270.0
 51
0.0
  0
LINE
  5
598
330
1D
100
AcDbEntity
  8
BLACK
  6
Continuous
100
AcDbLine
 10
26.35
 20
-30.312499
 30
0.0
 11
26.35
 21
-17.312499
 31
0.0
  0
ARC
  5
599
330
1D
100
AcDbEntity
  8
BLACK
100
AcDbCircle
 10
25.85
 20
-17.312499
 30
0.0
 40
0.5
100
AcDbArc
 50
0.0
 51
90.0
  0
LINE
  5
59A
330
1D
100
AcDbEntity
  8
BLACK
  6
Continuous
100
AcDbLine
 10
25.85
 20
-16.812499
 30
0.0
 11
12.25
 21
-16.812499
 31
0.0
  0
ARC
  5
59B
330
1D
100
AcDbEntity
  8
BLACK
100
AcDbCircle
 10
12.25
 20
-17.312499
 30
0.0
 40
0.5
100
AcDbArc
 50
90.0
 51
180.0
  0
LINE
  5
59C
330
1D
100
AcDbEntity
  8
BLACK
  6
Continuous
100
AcDbLine
 10
-4.918754
 20
-55.41249999999999
 30
0.0
 11
-4.918754
 21
-68.412498
 31
0.0
  0
ARC
  5
59D
330
1D
100
AcDbEntity
  8
BLACK
100
AcDbCircle
 10
-4.418753
 20
-68.412498
 30
0.0
 40
0.500001000001
100
AcDbArc
 50
180.0
 51
269.99988541
  0
LINE
  5
59E
330
1D
100
AcDbEntity
  8
BLACK
  6
Continuous
100
AcDbLine
 10
-4.418754
 20
-68.912499
 30
0.0
 11
13.94375
 21
-68.912499
 31
0.0
  0
ARC
  5
59F
330
1D
100
AcDbEntity
  8
BLACK
100
AcDbCircle
 10
13.9438
 20
-68.412499
 30
0.0
 40
0.4999499999999999
100
AcDbArc
 50
269.99426985
 51
0.0
  0
LINE
  5
5A0
330
1D
100
AcDbEntity
  8
BLACK
  6
Continuous
100
AcDbLine
 10
14.44375
 20
-68.412499
 30
0.0
 11
14.44375
 21
-55.405627
 31
0.0
  0
ARC
  5
5A1
330
1D
100
AcDbEntity
  8
BLACK
100
AcDbCircle
 10
13.9436
 20
-55.412699
 30
0.0
 40
0.5002
100
AcDbArc
 50
0.8100944800000001
 51
90.0
  0
LINE
  5
5A2
330
1D
100
AcDbEntity
  8
BLACK
  6
Continuous
100
AcDbLine
 10
13.9436
 20
-54.912499
 30
0.0
 11
-4.418753
 21
-54.912499
 31
0.0
  0
ARC
  5
5A3
330
1D
100
AcDbEntity
  8
BLACK
100
AcDbCircle
 10
-4.418753
 20
-55.41249999999999
 30
0.0
 40
0.500001
100
AcDbArc
 50
90.0
 51
180.0
  0
LINE
  5
5A4
330
1D
100
AcDbEntity
  8
BLACK
  6
Continuous
100
AcDbLine
 10
164.15
 20
-17.312499
 30
0.0
 11
164.15
 21
-30.312499
 31
0.0
  0
ARC
  5
5A5
330
1D
100
AcDbEntity
  8
BLACK
100
AcDbCircle
 10
164.65
 20
-30.312499
 30
0.0
 40
0.5
100
AcDbArc
 50
180.0
 51
270.0
  0
LINE
  5
5A6
330
1D
100
AcDbEntity
  8
BLACK
  6
Continuous
100
AcDbLine
 10
164.65
 20
-30.812499
 30
0.0
 11
178.25
 21
-30.812499
 31
0.0
  0
ARC
  5
5A7
330
1D
100
AcDbEntity
  8
BLACK
100
AcDbCircle
 10
178.25
 20
-30.312499
 30
0.0
 40
0.5
100
AcDbArc
 50
270.0
 51
0.0
  0
LINE
  5
5A8
330
1D
100
AcDbEntity
  8
BLACK
  6
Continuous
100
AcDbLine
 10
178.75
 20
-30.312499
 30
0.0
 11
178.75
 21
-17.312499
 31
0.0
  0
ARC
  5
5A9
330
1D
100
AcDbEntity
  8
BLACK
100
AcDbCircle
 10
178.25
 20
-17.312499
 30
0.0
 40
0.5
100
AcDbArc
 50
0.0
 51
90.0
  0
LINE
  5
5AA
330
1D
100
AcDbEntity
  8
BLACK
  6
Continuous
100
AcDbLine
 10
178.25
 20
-16.812499
 30
0.0
 11
164.65
 21
-16.812499
 31
0.0
  0
ARC
  5
5AB
330
1D
100
AcDbEntity
  8
BLACK
100
AcDbCircle
 10
164.65
 20
-17.312499
 30
0.0
 40
0.5
100
AcDbArc
 50
90.0
 51
180.0
  0
LINE
  5
5AC
330
1D
100
AcDbEntity
  8
BLACK
  6
Continuous
100
AcDbLine
 10
40.325
 20
-36.362499
 30
0.0
 11
40.325
 21
-49.362499
 31
0.0
  0
ARC
  5
5AD
330
1D
100
AcDbEntity
  8
BLACK
100
AcDbCircle
 10
40.825
 20
-49.362499
 30
0.0
 40
0.5
100
AcDbArc
 50
180.0
 51
270.0
  0
LINE
  5
5AE
330
1D
100
AcDbEntity
  8
BLACK
  6
Continuous
100
AcDbLine
 10
40.825
 20
-49.862499
 30
0.0
 11
54.425
 21
-49.862499
 31
0.0
  0
ARC
  5
5AF
330
1D
100
AcDbEntity
  8
BLACK
100
AcDbCircle
 10
54.425
 20
-49.362499
 30
0.0
 40
0.5
100
AcDbArc
 50
270.0
 51
0.0
  0
LINE
  5
5B0
330
1D
100
AcDbEntity
  8
BLACK
  6
Continuous
100
AcDbLine
 10
54.925
 20
-49.362499
 30
0.0
 11
54.925
 21
-36.362499
 31
0.0
  0
ARC
  5
5B1
330
1D
100
AcDbEntity
  8
BLACK
100
AcDbCircle
 10
54.425
 20
-36.362499
 30
0.0
 40
0.5
100
AcDbArc
 50
0.0
 51
90.0
  0
LINE
  5
5B2
330
1D
100
AcDbEntity
  8
BLACK
  6
Continuous
100
AcDbLine
 10
54.425
 20
-35.862499
 30
0.0
 11
40.825
 21
-35.862499
 31
0.0
  0
ARC
  5
5B3
330
1D
100
AcDbEntity
  8
BLACK
100
AcDbCircle
 10
40.825
 20
-36.362499
 30
0.0
 40
0.5
100
AcDbArc
 50
90.0
 51
180.0
  0
LINE
  5
5B4
330
1D
100
AcDbEntity
  8
BLACK
  6
Continuous
100
AcDbLine
 10
192.725
 20
-36.362499
 30
0.0
 11
192.725
 21
-49.362499
 31
0.0
  0
ARC
  5
5B5
330
1D
100
AcDbEntity
  8
BLACK
100
AcDbCircle
 10
193.225
 20
-49.362499
 30
0.0
 40
0.5
100
AcDbArc
 50
180.0
 51
270.0
  0
LINE
  5
5B6
330
1D
100
AcDbEntity
  8
BLACK
  6
Continuous
100
AcDbLine
 10
193.225
 20
-49.862499
 30
0.0
 11
206.825
 21
-49.862499
 31
0.0
  0
ARC
  5
5B7
330
1D
100
AcDbEntity
  8
BLACK
100
AcDbCircle
 10
206.825
 20
-49.362499
 30
0.0
 40
0.5
100
AcDbArc
 50
270.0
 51
0.0
  0
LINE
  5
5B8
330
1D
100
AcDbEntity
  8
BLACK
  6
Continuous
100
AcDbLine
 10
207.325
 20
-49.362499
 30
0.0
 11
207.325
 21
-36.362499
 31
0.0
  0
ARC
  5
5B9
330
1D
100
AcDbEntity
  8
BLACK
100
AcDbCircle
 10
206.825
 20
-36.362499
 30
0.0
 40
0.5
100
AcDbArc
 50
0.0
 51
90.0
  0
LINE
  5
5BA
330
1D
100
AcDbEntity
  8
BLACK
  6
Continuous
100
AcDbLine
 10
206.825
 20
-35.862499
 30
0.0
 11
193.225
 21
-35.862499
 31
0.0
  0
ARC
  5
5BB
330
1D
100
AcDbEntity
  8
BLACK
100
AcDbCircle
 10
193.225
 20
-36.362499
 30
0.0
 40
0.5
100
AcDbArc
 50
90.0
 51
180.0
  0
LINE
  5
5BC
330
1D
100
AcDbEntity
  8
BLACK
  6
Continuous
100
AcDbLine
 10
130.8125
 20
-74.462499
 30
0.0
 11
130.8125
 21
-87.462499
 31
0.0
  0
ARC
  5
5BD
330
1D
100
AcDbEntity
  8
BLACK
100
AcDbCircle
 10
131.3125
 20
-87.462499
 30
0.0
 40
0.5
100
AcDbArc
 50
180.0
 51
270.0
  0
LINE
  5
5BE
330
1D
100
AcDbEntity
  8
BLACK
  6
Continuous
100
AcDbLine
 10
131.3125
 20
-87.962499
 30
0.0
 11
144.9125
 21
-87.962499
 31
0.0
  0
ARC
  5
5BF
330
1D
100
AcDbEntity
  8
BLACK
100
AcDbCircle
 10
144.9125
 20
-87.462499
 30
0.0
 40
0.5
100
AcDbArc
 50
270.0
 51
0.0
  0
LINE
  5
5C0
330
1D
100
AcDbEntity
  8
BLACK
  6
Continuous
100
AcDbLine
 10
145.4125
 20
-87.462499
 30
0.0
 11
145.4125
 21
-74.462499
 31
0.0
  0
ARC
  5
5C1
330
1D
100
AcDbEntity
  8
BLACK
100
AcDbCircle
 10
144.9125
 20
-74.462499
 30
0.0
 40
0.5
100
AcDbArc
 50
0.0
 51
90.0
  0
LINE
  5
5C2
330
1D
100
AcDbEntity
  8
BLACK
  6
Continuous
100
AcDbLine
 10
144.9125
 20
-73.962499
 30
0.0
 11
131.3125
 21
-73.962499
 31
0.0
  0
ARC
  5
5C3
330
1D
100
AcDbEntity
  8
BLACK
100
AcDbCircle
 10
131.3125
 20
-74.462499
 30
0.0
 40
0.5
100
AcDbArc
 50
90.0
 51
180.0
  0
LINE
  5
5C4
330
1D
100
AcDbEntity
  8
BLACK
  6
Continuous
100
AcDbLine
 10
197.4875
 20
-55.412499
 30
0.0
 11
197.4875
 21
-68.412499
 31
0.0
  0
ARC
  5
5C5
330
1D
100
AcDbEntity
  8
BLACK
100
AcDbCircle
 10
197.9875
 20
-68.412499
 30
0.0
 40
0.5
100
AcDbArc
 50
180.0
 51
270.0
  0
LINE
  5
5C6
330
1D
100
AcDbEntity
  8
BLACK
  6
Continuous
100
AcDbLine
 10
197.9875
 20
-68.912499
 30
0.0
 11
211.5875
 21
-68.912499
 31
0.0
  0
ARC
  5
5C7
330
1D
100
AcDbEntity
  8
BLACK
100
AcDbCircle
 10
211.5875
 20
-68.412499
 30
0.0
 40
0.5
100
AcDbArc
 50
270.0
 51
0.0
  0
LINE
  5
5C8
330
1D
100
AcDbEntity
  8
BLACK
  6
Continuous
100
AcDbLine
 10
212.0875
 20
-68.412499
 30
0.0
 11
212.0875
 21
-55.412499
 31
0.0
  0
ARC
  5
5C9
330
1D
100
AcDbEntity
  8
BLACK
100
AcDbCircle
 10
211.5875
 20
-55.412499
 30
0.0
 40
0.5
100
AcDbArc
 50
0.0
 51
90.0
  0
LINE
  5
5CA
330
1D
100
AcDbEntity
  8
BLACK
  6
Continuous
100
AcDbLine
 10
211.5875
 20
-54.912499
 30
0.0
 11
197.9875
 21
-54.912499
 31
0.0
  0
ARC
  5
5CB
330
1D
100
AcDbEntity
  8
BLACK
100
AcDbCircle
 10
197.9875
 20
-55.412499
 30
0.0
 40
0.5
100
AcDbArc
 50
90.0
 51
180.0
  0
LINE
  5
5CC
330
1D
100
AcDbEntity
  8
BLACK
  6
Continuous
100
AcDbLine
 10
73.6625
 20
-74.462499
 30
0.0
 11
73.6625
 21
-87.462499
 31
0.0
  0
ARC
  5
5CD
330
1D
100
AcDbEntity
  8
BLACK
100
AcDbCircle
 10
74.1625
 20
-87.462499
 30
0.0
 40
0.5
100
AcDbArc
 50
180.0
 51
270.0
  0
LINE
  5
5CE
330
1D
100
AcDbEntity
  8
BLACK
  6
Continuous
100
AcDbLine
 10
74.1625
 20
-87.962499
 30
0.0
 11
87.7625
 21
-87.962499
 31
0.0
  0
ARC
  5
5CF
330
1D
100
AcDbEntity
  8
BLACK
100
AcDbCircle
 10
87.7625
 20
-87.462499
 30
0.0
 40
0.5
100
AcDbArc
 50
270.0
 51
0.0
  0
LINE
  5
5D0
330
1D
100
AcDbEntity
  8
BLACK
  6
Continuous
100
AcDbLine
 10
88.2625
 20
-87.462499
 30
0.0
 11
88.2625
 21
-74.462499
 31
0.0
  0
ARC
  5
5D1
330
1D
100
AcDbEntity
  8
BLACK
100
AcDbCircle
 10
87.7625
 20
-74.462499
 30
0.0
 40
0.5
100
AcDbArc
 50
0.0
 51
90.0
  0
LINE
  5
5D2
330
1D
100
AcDbEntity
  8
BLACK
  6
Continuous
100
AcDbLine
 10
87.7625
 20
-73.962499
 30
0.0
 11
74.1625
 21
-73.962499
 31
0.0
  0
ARC
  5
5D3
330
1D
100
AcDbEntity
  8
BLACK
100
AcDbCircle
 10
74.1625
 20
-74.462499
 30
0.0
 40
0.5
100
AcDbArc
 50
90.0
 51
180.0
  0
LINE
  5
5D4
330
1D
100
AcDbEntity
  8
BLACK
  6
Continuous
100
AcDbLine
 10
149.8625
 20
-74.462499
 30
0.0
 11
149.8625
 21
-87.462499
 31
0.0
  0
ARC
  5
5D5
330
1D
100
AcDbEntity
  8
BLACK
100
AcDbCircle
 10
150.3625
 20
-87.462499
 30
0.0
 40
0.5
100
AcDbArc
 50
180.0
 51
270.0
  0
LINE
  5
5D6
330
1D
100
AcDbEntity
  8
BLACK
  6
Continuous
100
AcDbLine
 10
150.3625
 20
-87.962499
 30
0.0
 11
163.9625
 21
-87.962499
 31
0.0
  0
ARC
  5
5D7
330
1D
100
AcDbEntity
  8
BLACK
100
AcDbCircle
 10
163.9625
 20
-87.462499
 30
0.0
 40
0.5
100
AcDbArc
 50
270.0
 51
0.0
  0
LINE
  5
5D8
330
1D
100
AcDbEntity
  8
BLACK
  6
Continuous
100
AcDbLine
 10
164.4625
 20
-87.462499
 30
0.0
 11
164.4625
 21
-74.462499
 31
0.0
  0
ARC
  5
5D9
330
1D
100
AcDbEntity
  8
BLACK
100
AcDbCircle
 10
163.9625
 20
-74.462499
 30
0.0
 40
0.5
100
AcDbArc
 50
0.0
 51
90.0
  0
LINE
  5
5DA
330
1D
100
AcDbEntity
  8
BLACK
  6
Continuous
100
AcDbLine
 10
163.9625
 20
-73.962499
 30
0.0
 11
150.3625
 21
-73.962499
 31
0.0
  0
ARC
  5
5DB
330
1D
100
AcDbEntity
  8
BLACK
100
AcDbCircle
 10
150.3625
 20
-74.462499
 30
0.0
 40
0.5
100
AcDbArc
 50
90.0
 51
180.0
  0
LINE
  5
5DC
330
1D
100
AcDbEntity
  8
BLACK
  6
Continuous
100
AcDbLine
 10
45.0875
 20
-55.412499
 30
0.0
 11
45.0875
 21
-68.412499
 31
0.0
  0
ARC
  5
5DD
330
1D
100
AcDbEntity
  8
BLACK
100
AcDbCircle
 10
45.5875
 20
-68.412499
 30
0.0
 40
0.5
100
AcDbArc
 50
180.0
 51
270.0
  0
LINE
  5
5DE
330
1D
100
AcDbEntity
  8
BLACK
  6
Continuous
100
AcDbLine
 10
45.5875
 20
-68.912499
 30
0.0
 11
59.1875
 21
-68.912499
 31
0.0
  0
ARC
  5
5DF
330
1D
100
AcDbEntity
  8
BLACK
100
AcDbCircle
 10
59.1875
 20
-68.412499
 30
0.0
 40
0.5
100
AcDbArc
 50
270.0
 51
0.0
  0
LINE
  5
5E0
330
1D
100
AcDbEntity
  8
BLACK
  6
Continuous
100
AcDbLine
 10
59.6875
 20
-68.412499
 30
0.0
 11
59.6875
 21
-55.412499
 31
0.0
  0
ARC
  5
5E1
330
1D
100
AcDbEntity
  8
BLACK
100
AcDbCircle
 10
59.1875
 20
-55.412499
 30
0.0
 40
0.5
100
AcDbArc
 50
0.0
 51
90.0
  0
LINE
  5
5E2
330
1D
100
AcDbEntity
  8
BLACK
  6
Continuous
100
AcDbLine
 10
59.1875
 20
-54.912499
 30
0.0
 11
45.5875
 21
-54.912499
 31
0.0
  0
ARC
  5
5E3
330
1D
100
AcDbEntity
  8
BLACK
100
AcDbCircle
 10
45.5875
 20
-55.412499
 30
0.0
 40
0.5
100
AcDbArc
 50
90.0
 51
180.0
  0
LINE
  5
5E4
330
1D
100
AcDbEntity
  8
BLACK
  6
Continuous
100
AcDbLine
 10
49.84999999999999
 20
-17.312499
 30
0.0
 11
49.84999999999999
 21
-30.312499
 31
0.0
  0
ARC
  5
5E5
330
1D
100
AcDbEntity
  8
BLACK
100
AcDbCircle
 10
50.34999999999999
 20
-30.312499
 30
0.0
 40
0.5
100
AcDbArc
 50
180.0
 51
270.0
  0
LINE
  5
5E6
330
1D
100
AcDbEntity
  8
BLACK
  6
Continuous
100
AcDbLine
 10
50.34999999999999
 20
-30.812499
 30
0.0
 11
63.95
 21
-30.812499
 31
0.0
  0
ARC
  5
5E7
330
1D
100
AcDbEntity
  8
BLACK
100
AcDbCircle
 10
63.95
 20
-30.312499
 30
0.0
 40
0.5
100
AcDbArc
 50
270.0
 51
0.0
  0
LINE
  5
5E8
330
1D
100
AcDbEntity
  8
BLACK
  6
Continuous
100
AcDbLine
 10
64.45
 20
-30.312499
 30
0.0
 11
64.45
 21
-17.312499
 31
0.0
  0
ARC
  5
5E9
330
1D
100
AcDbEntity
  8
BLACK
100
AcDbCircle
 10
63.95
 20
-17.312499
 30
0.0
 40
0.5
100
AcDbArc
 50
0.0
 51
90.0
  0
LINE
  5
5EA
330
1D
100
AcDbEntity
  8
BLACK
  6
Continuous
100
AcDbLine
 10
63.95
 20
-16.812499
 30
0.0
 11
50.34999999999999
 21
-16.812499
 31
0.0
  0
ARC
  5
5EB
330
1D
100
AcDbEntity
  8
BLACK
100
AcDbCircle
 10
50.34999999999999
 20
-17.312499
 30
0.0
 40
0.5
100
AcDbArc
 50
90.0
 51
180.0
  0
LINE
  5
5EC
330
1D
100
AcDbEntity
  8
BLACK
  6
Continuous
100
AcDbLine
 10
30.8
 20
-17.312499
 30
0.0
 11
30.8
 21
-30.312499
 31
0.0
  0
ARC
  5
5ED
330
1D
100
AcDbEntity
  8
BLACK
100
AcDbCircle
 10
31.3
 20
-30.312499
 30
0.0
 40
0.5
100
AcDbArc
 50
180.0
 51
270.0
  0
LINE
  5
5EE
330
1D
100
AcDbEntity
  8
BLACK
  6
Continuous
100
AcDbLine
 10
31.3
 20
-30.812499
 30
0.0
 11
44.9
 21
-30.812499
 31
0.0
  0
ARC
  5
5EF
330
1D
100
AcDbEntity
  8
BLACK
100
AcDbCircle
 10
44.9
 20
-30.312499
 30
0.0
 40
0.5
100
AcDbArc
 50
270.0
 51
0.0
  0
LINE
  5
5F0
330
1D
100
AcDbEntity
  8
BLACK
  6
Continuous
100
AcDbLine
 10
45.4
 20
-30.312499
 30
0.0
 11
45.4
 21
-17.312499
 31
0.0
  0
ARC
  5
5F1
330
1D
100
AcDbEntity
  8
BLACK
100
AcDbCircle
 10
44.9
 20
-17.312499
 30
0.0
 40
0.5
100
AcDbArc
 50
0.0
 51
90.0
  0
LINE
  5
5F2
330
1D
100
AcDbEntity
  8
BLACK
  6
Continuous
100
AcDbLine
 10
44.9
 20
-16.812499
 30
0.0
 11
31.3
 21
-16.812499
 31
0.0
  0
ARC
  5
5F3
330
1D
100
AcDbEntity
  8
BLACK
100
AcDbCircle
 10
31.3
 20
-17.312499
 30
0.0
 40
0.5
100
AcDbArc
 50
90.0
 51
180.0
  0
LINE
  5
5F4
330
1D
100
AcDbEntity
  8
BLACK
  6
Continuous
100
AcDbLine
 10
102.2375
 20
-55.412499
 30
0.0
 11
102.2375
 21
-68.412499
 31
0.0
  0
ARC
  5
5F5
330
1D
100
AcDbEntity
  8
BLACK
100
AcDbCircle
 10
102.7375
 20
-68.412499
 30
0.0
 40
0.5
100
AcDbArc
 50
180.0
 51
270.0
  0
LINE
  5
5F6
330
1D
100
AcDbEntity
  8
BLACK
  6
Continuous
100
AcDbLine
 10
102.7375
 20
-68.912499
 30
0.0
 11
116.3375
 21
-68.912499
 31
0.0
  0
ARC
  5
5F7
330
1D
100
AcDbEntity
  8
BLACK
100
AcDbCircle
 10
116.3375
 20
-68.412499
 30
0.0
 40
0.5
100
AcDbArc
 50
270.0
 51
0.0
  0
LINE
  5
5F8
330
1D
100
AcDbEntity
  8
BLACK
  6
Continuous
100
AcDbLine
 10
116.8375
 20
-68.412499
 30
0.0
 11
116.8375
 21
-55.412499
 31
0.0
  0
ARC
  5
5F9
330
1D
100
AcDbEntity
  8
BLACK
100
AcDbCircle
 10
116.3375
 20
-55.412499
 30
0.0
 40
0.5
100
AcDbArc
 50
0.0
 51
90.0
  0
LINE
  5
5FA
330
1D
100
AcDbEntity
  8
BLACK
  6
Continuous
100
AcDbLine
 10
116.3375
 20
-54.912499
 30
0.0
 11
102.7375
 21
-54.912499
 31
0.0
  0
ARC
  5
5FB
330
1D
100
AcDbEntity
  8
BLACK
100
AcDbCircle
 10
102.7375
 20
-55.412499
 30
0.0
 40
0.5
100
AcDbArc
 50
90.0
 51
180.0
  0
LINE
  5
5FC
330
1D
100
AcDbEntity
  8
BLACK
  6
Continuous
100
AcDbLine
 10
92.71249999999999
 20
-74.462499
 30
0.0
 11
92.71249999999999
 21
-87.462499
 31
0.0
  0
ARC
  5
5FD
330
1D
100
AcDbEntity
  8
BLACK
100
AcDbCircle
 10
93.21249999999999
 20
-87.462499
 30
0.0
 40
0.5
100
AcDbArc
 50
180.0
 51
270.0
  0
LINE
  5
5FE
330
1D
100
AcDbEntity
  8
BLACK
  6
Continuous
100
AcDbLine
 10
93.21249999999999
 20
-87.962499
 30
0.0
 11
106.8125
 21
-87.962499
 31
0.0
  0
ARC
  5
5FF
330
1D
100
AcDbEntity
  8
BLACK
100
AcDbCircle
 10
106.8125
 20
-87.462499
 30
0.0
 40
0.5
100
AcDbArc
 50
270.0
 51
0.0
  0
LINE
  5
600
330
1D
100
AcDbEntity
  8
BLACK
  6
Continuous
100
AcDbLine
 10
107.3125
 20
-87.462499
 30
0.0
 11
107.3125
 21
-74.462499
 31
0.0
  0
ARC
  5
601
330
1D
100
AcDbEntity
  8
BLACK
100
AcDbCircle
 10
106.8125
 20
-74.462499
 30
0.0
 40
0.5
100
AcDbArc
 50
0.0
 51
90.0
  0
LINE
  5
602
330
1D
100
AcDbEntity
  8
BLACK
  6
Continuous
100
AcDbLine
 10
106.8125
 20
-73.962499
 30
0.0
 11
93.21249999999999
 21
-73.962499
 31
0.0
  0
ARC
  5
603
330
1D
100
AcDbEntity
  8
BLACK
100
AcDbCircle
 10
93.21249999999999
 20
-74.462499
 30
0.0
 40
0.5
100
AcDbArc
 50
90.0
 51
180.0
  0
LINE
  5
604
330
1D
100
AcDbEntity
  8
BLACK
  6
Continuous
100
AcDbLine
 10
97.475
 20
-36.362499
 30
0.0
 11
97.475
 21
-49.362499
 31
0.0
  0
ARC
  5
605
330
1D
100
AcDbEntity
  8
BLACK
100
AcDbCircle
 10
97.975
 20
-49.362499
 30
0.0
 40
0.5
100
AcDbArc
 50
180.0
 51
270.0
  0
LINE
  5
606
330
1D
100
AcDbEntity
  8
BLACK
  6
Continuous
100
AcDbLine
 10
97.975
 20
-49.862499
 30
0.0
 11
111.575
 21
-49.862499
 31
0.0
  0
ARC
  5
607
330
1D
100
AcDbEntity
  8
BLACK
100
AcDbCircle
 10
111.575
 20
-49.362499
 30
0.0
 40
0.5
100
AcDbArc
 50
270.0
 51
0.0
  0
LINE
  5
608
330
1D
100
AcDbEntity
  8
BLACK
  6
Continuous
100
AcDbLine
 10
112.075
 20
-49.362499
 30
0.0
 11
112.075
 21
-36.362499
 31
0.0
  0
ARC
  5
609
330
1D
100
AcDbEntity
  8
BLACK
100
AcDbCircle
 10
111.575
 20
-36.362499
 30
0.0
 40
0.5
100
AcDbArc
 50
0.0
 51
90.0
  0
LINE
  5
60A
330
1D
100
AcDbEntity
  8
BLACK
  6
Continuous
100
AcDbLine
 10
111.575
 20
-35.862499
 30
0.0
 11
97.975
 21
-35.862499
 31
0.0
  0
ARC
  5
60B
330
1D
100
AcDbEntity
  8
BLACK
100
AcDbCircle
 10
97.975
 20
-36.362499
 30
0.0
 40
0.5
100
AcDbArc
 50
90.0
 51
180.0
  0
LINE
  5
60C
330
1D
100
AcDbEntity
  8
BLACK
  6
Continuous
100
AcDbLine
 10
-7.3
 20
-17.3125
 30
0.0
 11
-7.3
 21
-30.312498
 31
0.0
  0
ARC
  5
60D
330
1D
100
AcDbEntity
  8
BLACK
100
AcDbCircle
 10
-6.799999
 20
-30.312498
 30
0.0
 40
0.500001000001
100
AcDbArc
 50
180.0
 51
269.99988541
  0
LINE
  5
60E
330
1D
100
AcDbEntity
  8
BLACK
  6
Continuous
100
AcDbLine
 10
-6.8
 20
-30.812499
 30
0.0
 11
6.8
 21
-30.812499
 31
0.0
  0
ARC
  5
60F
330
1D
100
AcDbEntity
  8
BLACK
100
AcDbCircle
 10
6.8
 20
-30.312499
 30
0.0
 40
0.5
100
AcDbArc
 50
270.0
 51
0.0
  0
LINE
  5
610
330
1D
100
AcDbEntity
  8
BLACK
  6
Continuous
100
AcDbLine
 10
7.3
 20
-30.312499
 30
0.0
 11
7.3
 21
-17.312499
 31
0.0
  0
ARC
  5
611
330
1D
100
AcDbEntity
  8
BLACK
100
AcDbCircle
 10
6.8
 20
-17.312499
 30
0.0
 40
0.5
100
AcDbArc
 50
0.0
 51
90.0
  0
LINE
  5
612
330
1D
100
AcDbEntity
  8
BLACK
  6
Continuous
100
AcDbLine
 10
6.8
 20
-16.812499
 30
0.0
 11
-6.799999
 21
-16.812499
 31
0.0
  0
ARC
  5
613
330
1D
100
AcDbEntity
  8
BLACK
100
AcDbCircle
 10
-6.799999
 20
-17.3125
 30
0.0
 40
0.500001
100
AcDbArc
 50
90.0
 51
180.0
  0
CIRCLE
  5
614
330
1D
100
AcDbEntity
  8
BLACK
100
AcDbCircle
 10
138.1125
 20
-61.912499
 30
0.0
 40
1.0
  0
CIRCLE
  5
615
330
1D
100
AcDbEntity
  8
BLACK
100
AcDbCircle
 10
219.0842
 20
-23.462499
 30
0.0
 40
1.0
  0
CIRCLE
  5
616
330
1D
100
AcDbEntity
  8
BLACK
100
AcDbCircle
 10
33.3375
 20
-80.962499
 30
0.0
 40
1.0
  0
ARC
  5
617
330
1D
100
AcDbEntity
  8
BLACK
100
AcDbCircle
 10
168.725
 20
6.500001
 30
0.0
 40
0.5
100
AcDbArc
 50
0.0
 51
90.0
  0
LINE
  5
618
330
1D
100
AcDbEntity
  8
BLACK
  6
Continuous
100
AcDbLine
 10
168.725
 20
7.000000999999999
 30
0.0
 11
155.125
 21
7.000000999999999
 31
0.0
  0
ARC
  5
619
330
1D
100
AcDbEntity
  8
BLACK
100
AcDbCircle
 10
155.125
 20
6.500001
 30
0.0
 40
0.5
100
AcDbArc
 50
90.0
 51
180.0
  0
LINE
  5
61A
330
1D
100
AcDbEntity
  8
BLACK
  6
Continuous
100
AcDbLine
 10
154.625
 20
6.500001
 30
0.0
 11
154.625
 21
-6.499999
 31
0.0
  0
ARC
  5
61B
330
1D
100
AcDbEntity
  8
BLACK
100
AcDbCircle
 10
155.125
 20
-6.499999
 30
0.0
 40
0.5
100
AcDbArc
 50
180.0
 51
270.0
  0
LINE
  5
61C
330
1D
100
AcDbEntity
  8
BLACK
  6
Continuous
100
AcDbLine
 10
155.125
 20
-6.999999
 30
0.0
 11
168.725
 21
-6.999999
 31
0.0
  0
ARC
  5
61D
330
1D
100
AcDbEntity
  8
BLACK
100
AcDbCircle
 10
168.725
 20
-6.499999
 30
0.0
 40
0.5
100
AcDbArc
 50
270.0
 51
0.0
  0
LINE
  5
61E
330
1D
100
AcDbEntity
  8
BLACK
  6
Continuous
100
AcDbLine
 10
169.225
 20
-6.499999
 30
0.0
 11
169.225
 21
6.500001
 31
0.0
  0
ARC
  5
61F
330
1D
100
AcDbEntity
  8
BLACK
100
AcDbCircle
 10
283.7125
 20
-49.362499
 30
0.0
 40
0.5
100
AcDbArc
 50
180.0
 51
270.0
  0
LINE
  5
620
330
1D
100
AcDbEntity
  8
BLACK
  6
Continuous
100
AcDbLine
 10
283.7125
 20
-49.862499
 30
0.0
 11
297.3125
 21
-49.862499
 31
0.0
  0
ARC
  5
621
330
1D
100
AcDbEntity
  8
BLACK
100
AcDbCircle
 10
297.3125
 20
-49.362499
 30
0.0
 40
0.5
100
AcDbArc
 50
270.0
 51
0.0
  0
LINE
  5
622
330
1D
100
AcDbEntity
  8
BLACK
  6
Continuous
100
AcDbLine
 10
297.8125
 20
-49.362499
 30
0.0
 11
297.8125
 21
-36.362499
 31
0.0
  0
ARC
  5
623
330
1D
100
AcDbEntity
  8
BLACK
100
AcDbCircle
 10
297.3125
 20
-36.362499
 30
0.0
 40
0.5
100
AcDbArc
 50
0.0
 51
90.0
  0
LINE
  5
624
330
1D
100
AcDbEntity
  8
BLACK
  6
Continuous
100
AcDbLine
 10
297.3125
 20
-35.862499
 30
0.0
 11
283.7125
 21
-35.862499
 31
0.0
  0
ARC
  5
625
330
1D
100
AcDbEntity
  8
BLACK
100
AcDbCircle
 10
283.7125
 20
-36.362499
 30
0.0
 40
0.5
100
AcDbArc
 50
90.0
 51
180.0
  0
LINE
  5
626
330
1D
100
AcDbEntity
  8
BLACK
  6
Continuous
100
AcDbLine
 10
283.2125
 20
-36.362499
 30
0.0
 11
283.2125
 21
-49.362499
 31
0.0
  0
LINE
  5
627
330
1D
100
AcDbEntity
  8
BLACK
  6
Continuous
100
AcDbLine
 10
302.2625
 20
-36.362499
 30
0.0
 11
302.2625
 21
-49.362499
 31
0.0
  0
ARC
  5
628
330
1D
100
AcDbEntity
  8
BLACK
100
AcDbCircle
 10
302.7625
 20
-49.362499
 30
0.0
 40
0.5
100
AcDbArc
 50
180.0
 51
270.0
  0
LINE
  5
629
330
1D
100
AcDbEntity
  8
BLACK
  6
Continuous
100
AcDbLine
 10
302.7625
 20
-49.862499
 30
0.0
 11
316.3625
 21
-49.862499
 31
0.0
  0
ARC
  5
62A
330
1D
100
AcDbEntity
  8
BLACK
100
AcDbCircle
 10
316.3625
 20
-49.362499
 30
0.0
 40
0.5
100
AcDbArc
 50
270.0
 51
0.0
  0
LINE
  5
62B
330
1D
100
AcDbEntity
  8
BLACK
  6
Continuous
100
AcDbLine
 10
316.8625
 20
-49.362499
 30
0.0
 11
316.8625
 21
-36.362499
 31
0.0
  0
ARC
  5
62C
330
1D
100
AcDbEntity
  8
BLACK
100
AcDbCircle
 10
316.3625
 20
-36.362499
 30
0.0
 40
0.5
100
AcDbArc
 50
0.0
 51
90.0
  0
LINE
  5
62D
330
1D
100
AcDbEntity
  8
BLACK
  6
Continuous
100
AcDbLine
 10
316.3625
 20
-35.862499
 30
0.0
 11
302.7625
 21
-35.862499
 31
0.0
  0
ARC
  5
62E
330
1D
100
AcDbEntity
  8
BLACK
100
AcDbCircle
 10
302.7625
 20
-36.362499
 30
0.0
 40
0.5
100
AcDbArc
 50
90.0
 51
180.0
  0
ARC
  5
62F
330
1D
100
AcDbEntity
  8
BLACK
100
AcDbCircle
 10
259.9
 20
6.500001
 30
0.0
 40
0.5
100
AcDbArc
 50
90.0
 51
180.0
  0
LINE
  5
630
330
1D
100
AcDbEntity
  8
BLACK
  6
Continuous
100
AcDbLine
 10
259.4
 20
6.500001
 30
0.0
 11
259.4
 21
-6.499999
 31
0.0
  0
ARC
  5
631
330
1D
100
AcDbEntity
  8
BLACK
100
AcDbCircle
 10
259.9
 20
-6.499999
 30
0.0
 40
0.5
100
AcDbArc
 50
180.0
 51
270.0
  0
LINE
  5
632
330
1D
100
AcDbEntity
  8
BLACK
  6
Continuous
100
AcDbLine
 10
259.9
 20
-6.999999
 30
0.0
 11
273.5
 21
-6.999999
 31
0.0
  0
ARC
  5
633
330
1D
100
AcDbEntity
  8
BLACK
100
AcDbCircle
 10
273.5
 20
-6.499999
 30
0.0
 40
0.5
100
AcDbArc
 50
270.0
 51
0.0
  0
LINE
  5
634
330
1D
100
AcDbEntity
  8
BLACK
  6
Continuous
100
AcDbLine
 10
274.0
 20
-6.499999
 30
0.0
 11
274.0
 21
6.500001
 31
0.0
  0
ARC
  5
635
330
1D
100
AcDbEntity
  8
BLACK
100
AcDbCircle
 10
273.5
 20
6.500001
 30
0.0
 40
0.5
100
AcDbArc
 50
0.0
 51
90.0
  0
LINE
  5
636
330
1D
100
AcDbEntity
  8
BLACK
  6
Continuous
100
AcDbLine
 10
273.5
 20
7.000000999999999
 30
0.0
 11
259.9
 21
7.000000999999999
 31
0.0
  0
ARC
  5
637
330
1D
100
AcDbEntity
  8
BLACK
100
AcDbCircle
 10
136.075
 20
-6.499999
 30
0.0
 40
0.5
100
AcDbArc
 50
180.0
 51
270.0
  0
LINE
  5
638
330
1D
100
AcDbEntity
  8
BLACK
  6
Continuous
100
AcDbLine
 10
136.075
 20
-6.999999
 30
0.0
 11
149.675
 21
-6.999999
 31
0.0
  0
ARC
  5
639
330
1D
100
AcDbEntity
  8
BLACK
100
AcDbCircle
 10
149.675
 20
-6.499999
 30
0.0
 40
0.5
100
AcDbArc
 50
270.0
 51
0.0
  0
LINE
  5
63A
330
1D
100
AcDbEntity
  8
BLACK
  6
Continuous
100
AcDbLine
 10
150.175
 20
-6.499999
 30
0.0
 11
150.175
 21
6.500001
 31
0.0
  0
ARC
  5
63B
330
1D
100
AcDbEntity
  8
BLACK
100
AcDbCircle
 10
149.675
 20
6.500001
 30
0.0
 40
0.5
100
AcDbArc
 50
0.0
 51
90.0
  0
LINE
  5
63C
330
1D
100
AcDbEntity
  8
BLACK
  6
Continuous
100
AcDbLine
 10
149.675
 20
7.000000999999999
 30
0.0
 11
136.075
 21
7.000000999999999
 31
0.0
  0
ARC
  5
63D
330
1D
100
AcDbEntity
  8
BLACK
100
AcDbCircle
 10
136.075
 20
6.500001
 30
0.0
 40
0.5
100
AcDbArc
 50
90.0
 51
180.0
  0
LINE
  5
63E
330
1D
100
AcDbEntity
  8
BLACK
  6
Continuous
100
AcDbLine
 10
135.575
 20
6.500001
 30
0.0
 11
135.575
 21
-6.499999
 31
0.0
  0
ARC
  5
63F
330
1D
100
AcDbEntity
  8
BLACK
100
AcDbCircle
 10
130.625
 20
6.500001
 30
0.0
 40
0.5
100
AcDbArc
 50
0.0
 51
90.0
  0
LINE
  5
640
330
1D
100
AcDbEntity
  8
BLACK
  6
Continuous
100
AcDbLine
 10
130.625
 20
7.000000999999999
 30
0.0
 11
117.025
 21
7.000000999999999
 31
0.0
  0
ARC
  5
641
330
1D
100
AcDbEntity
  8
BLACK
100
AcDbCircle
 10
117.025
 20
6.500001
 30
0.0
 40
0.5
100
AcDbArc
 50
90.0
 51
180.0
  0
LINE
  5
642
330
1D
100
AcDbEntity
  8
BLACK
  6
Continuous
100
AcDbLine
 10
116.525
 20
6.500001
 30
0.0
 11
116.525
 21
-6.499999
 31
0.0
  0
ARC
  5
643
330
1D
100
AcDbEntity
  8
BLACK
100
AcDbCircle
 10
117.025
 20
-6.499999
 30
0.0
 40
0.5
100
AcDbArc
 50
180.0
 51
270.0
  0
LINE
  5
644
330
1D
100
AcDbEntity
  8
BLACK
  6
Continuous
100
AcDbLine
 10
117.025
 20
-6.999999
 30
0.0
 11
130.625
 21
-6.999999
 31
0.0
  0
ARC
  5
645
330
1D
100
AcDbEntity
  8
BLACK
100
AcDbCircle
 10
130.625
 20
-6.499999
 30
0.0
 40
0.5
100
AcDbArc
 50
270.0
 51
0.0
  0
LINE
  5
646
330
1D
100
AcDbEntity
  8
BLACK
  6
Continuous
100
AcDbLine
 10
131.125
 20
-6.499999
 30
0.0
 11
131.125
 21
6.500001
 31
0.0
  0
CIRCLE
  5
647
330
1D
100
AcDbEntity
  8
BLACK
100
AcDbCircle
 10
195.2625
 20
0.000001
 30
0.0
 40
1.0
  0
LINE
  5
648
330
1D
100
AcDbEntity
  8
BLACK
  6
Continuous
100
AcDbLine
 10
321.3125
 20
-36.362499
 30
0.0
 11
321.3125
 21
-49.362499
 31
0.0
  0
ARC
  5
649
330
1D
100
AcDbEntity
  8
BLACK
100
AcDbCircle
 10
321.8125
 20
-49.362499
 30
0.0
 40
0.5
100
AcDbArc
 50
180.0
 51
270.0
  0
LINE
  5
64A
330
1D
100
AcDbEntity
  8
BLACK
  6
Continuous
100
AcDbLine
 10
321.8125
 20
-49.862499
 30
0.0
 11
335.4125
 21
-49.862499
 31
0.0
  0
ARC
  5
64B
330
1D
100
AcDbEntity
  8
BLACK
100
AcDbCircle
 10
335.4125
 20
-49.362499
 30
0.0
 40
0.5
100
AcDbArc
 50
270.0
 51
0.0
  0
LINE
  5
64C
330
1D
100
AcDbEntity
  8
BLACK
  6
Continuous
100
AcDbLine
 10
335.9125
 20
-49.362499
 30
0.0
 11
335.9125
 21
-36.362499
 31
0.0
  0
ARC
  5
64D
330
1D
100
AcDbEntity
  8
BLACK
100
AcDbCircle
 10
335.4125
 20
-36.362499
 30
0.0
 40
0.5
100
AcDbArc
 50
0.0
 51
90.0
  0
LINE
  5
64E
330
1D
100
AcDbEntity
  8
BLACK
  6
Continuous
100
AcDbLine
 10
335.4125
 20
-35.862499
 30
0.0
 11
321.8125
 21
-35.862499
 31
0.0
  0
ARC
  5
64F
330
1D
100
AcDbEntity
  8
BLACK
100
AcDbCircle
 10
321.8125
 20
-36.362499
 30
0.0
 40
0.5
100
AcDbArc
 50
90.0
 51
180.0
  0
LINE
  5
650
330
1D
100
AcDbEntity
  8
BLACK
  6
Continuous
100
AcDbLine
 10
316.3625
 20
-16.812499
 30
0.0
 11
302.7625
 21
-16.812499
 31
0.0
  0
ARC
  5
651
330
1D
100
AcDbEntity
  8
BLACK
100
AcDbCircle
 10
302.7625
 20
-17.312499
 30
0.0
 40
0.5
100
AcDbArc
 50
90.0
 51
180.0
  0
LINE
  5
652
330
1D
100
AcDbEntity
  8
BLACK
  6
Continuous
100
AcDbLine
 10
302.2625
 20
-17.312499
 30
0.0
 11
302.2625
 21
-30.312499
 31
0.0
  0
ARC
  5
653
330
1D
100
AcDbEntity
  8
BLACK
100
AcDbCircle
 10
302.7625
 20
-30.312499
 30
0.0
 40
0.5
100
AcDbArc
 50
180.0
 51
270.0
  0
LINE
  5
654
330
1D
100
AcDbEntity
  8
BLACK
  6
Continuous
100
AcDbLine
 10
302.7625
 20
-30.812499
 30
0.0
 11
316.3625
 21
-30.812499
 31
0.0
  0
ARC
  5
655
330
1D
100
AcDbEntity
  8
BLACK
100
AcDbCircle
 10
316.3625
 20
-30.312499
 30
0.0
 40
0.5
100
AcDbArc
 50
270.0
 51
0.0
  0
LINE
  5
656
330
1D
100
AcDbEntity
  8
BLACK
  6
Continuous
100
AcDbLine
 10
316.8625
 20
-30.312499
 30
0.0
 11
316.8625
 21
-17.312499
 31
0.0
  0
ARC
  5
657
330
1D
100
AcDbEntity
  8
BLACK
100
AcDbCircle
 10
316.3625
 20
-17.312499
 30
0.0
 40
0.5
100
AcDbArc
 50
0.0
 51
90.0
  0
LINE
  5
658
330
1D
100
AcDbEntity
  8
BLACK
  6
Continuous
100
AcDbLine
 10
321.3125
 20
-17.312499
 30
0.0
 11
321.3125
 21
-30.312499
 31
0.0
  0
ARC
  5
659
330
1D
100
AcDbEntity
  8
BLACK
100
AcDbCircle
 10
321.8125
 20
-30.312499
 30
0.0
 40
0.5
100
AcDbArc
 50
180.0
 51
270.0
  0
LINE
  5
65A
330
1D
100
AcDbEntity
  8
BLACK
  6
Continuous
100
AcDbLine
 10
321.8125
 20
-30.812499
 30
0.0
 11
335.4125
 21
-30.812499
 31
0.0
  0
ARC
  5
65B
330
1D
100
AcDbEntity
  8
BLACK
100
AcDbCircle
 10
335.4125
 20
-30.312499
 30
0.0
 40
0.5
100
AcDbArc
 50
270.0
 51
0.0
  0
LINE
  5
65C
330
1D
100
AcDbEntity
  8
BLACK
  6
Continuous
100
AcDbLine
 10
335.9125
 20
-30.312499
 30
0.0
 11
335.9125
 21
-17.312499
 31
0.0
  0
ARC
  5
65D
330
1D
100
AcDbEntity
  8
BLACK
100
AcDbCircle
 10
335.4125
 20
-17.312499
 30
0.0
 40
0.5
100
AcDbArc
 50
0.0
 51
90.0
  0
LINE
  5
65E
330
1D
100
AcDbEntity
  8
BLACK
  6
Continuous
100
AcDbLine
 10
335.4125
 20
-16.812499
 30
0.0
 11
321.8125
 21
-16.812499
 31
0.0
  0
ARC
  5
65F
330
1D
100
AcDbEntity
  8
BLACK
100
AcDbCircle
 10
321.8125
 20
-17.312499
 30
0.0
 40
0.5
100
AcDbArc
 50
90.0
 51
180.0
  0
ARC
  5
660
330
1D
100
AcDbEntity
  8
BLACK
100
AcDbCircle
 10
297.3125
 20
-6.499999
 30
0.0
 40
0.5
100
AcDbArc
 50
270.0
 51
0.0
  0
LINE
  5
661
330
1D
100
AcDbEntity
  8
BLACK
  6
Continuous
100
AcDbLine
 10
297.8125
 20
-6.499999
 30
0.0
 11
297.8125
 21
6.500001
 31
0.0
  0
ARC
  5
662
330
1D
100
AcDbEntity
  8
BLACK
100
AcDbCircle
 10
297.3125
 20
6.500001
 30
0.0
 40
0.5
100
AcDbArc
 50
0.0
 51
90.0
  0
LINE
  5
663
330
1D
100
AcDbEntity
  8
BLACK
  6
Continuous
100
AcDbLine
 10
297.3125
 20
7.000000999999999
 30
0.0
 11
283.7125
 21
7.000000999999999
 31
0.0
  0
ARC
  5
664
330
1D
100
AcDbEntity
  8
BLACK
100
AcDbCircle
 10
283.7125
 20
6.500001
 30
0.0
 40
0.5
100
AcDbArc
 50
90.0
 51
180.0
  0
LINE
  5
665
330
1D
100
AcDbEntity
  8
BLACK
  6
Continuous
100
AcDbLine
 10
283.2125
 20
6.500001
 30
0.0
 11
283.2125
 21
-6.499999
 31
0.0
  0
ARC
  5
666
330
1D
100
AcDbEntity
  8
BLACK
100
AcDbCircle
 10
283.7125
 20
-6.499999
 30
0.0
 40
0.5
100
AcDbArc
 50
180.0
 51
270.0
  0
LINE
  5
667
330
1D
100
AcDbEntity
  8
BLACK
  6
Continuous
100
AcDbLine
 10
283.7125
 20
-6.999999
 30
0.0
 11
297.3125
 21
-6.999999
 31
0.0
  0
CIRCLE
  5
668
330
1D
100
AcDbEntity
  8
BLACK
100
AcDbCircle
 10
300.0375
 20
-23.812499
 30
0.0
 40
1.0
  0
LINE
  5
669
330
1D
100
AcDbEntity
  8
BLACK
  6
Continuous
100
AcDbLine
 10
316.3625
 20
7.000000999999999
 30
0.0
 11
302.7625
 21
7.000000999999999
 31
0.0
  0
ARC
  5
66A
330
1D
100
AcDbEntity
  8
BLACK
100
AcDbCircle
 10
302.7625
 20
6.500001
 30
0.0
 40
0.5
100
AcDbArc
 50
90.0
 51
180.0
  0
LINE
  5
66B
330
1D
100
AcDbEntity
  8
BLACK
  6
Continuous
100
AcDbLine
 10
302.2625
 20
6.500001
 30
0.0
 11
302.2625
 21
-6.499999
 31
0.0
  0
ARC
  5
66C
330
1D
100
AcDbEntity
  8
BLACK
100
AcDbCircle
 10
302.7625
 20
-6.499999
 30
0.0
 40
0.5
100
AcDbArc
 50
180.0
 51
270.0
  0
LINE
  5
66D
330
1D
100
AcDbEntity
  8
BLACK
  6
Continuous
100
AcDbLine
 10
302.7625
 20
-6.999999
 30
0.0
 11
316.3625
 21
-6.999999
 31
0.0
  0
ARC
  5
66E
330
1D
100
AcDbEntity
  8
BLACK
100
AcDbCircle
 10
316.3625
 20
-6.499999
 30
0.0
 40
0.5
100
AcDbArc
 50
270.0
 51
0.0
  0
LINE
  5
66F
330
1D
100
AcDbEntity
  8
BLACK
  6
Continuous
100
AcDbLine
 10
316.8625
 20
-6.499999
 30
0.0
 11
316.8625
 21
6.500001
 31
0.0
  0
ARC
  5
670
330
1D
100
AcDbEntity
  8
BLACK
100
AcDbCircle
 10
316.3625
 20
6.500001
 30
0.0
 40
0.5
100
AcDbArc
 50
0.0
 51
90.0
  0
LINE
  5
671
330
1D
100
AcDbEntity
  8
BLACK
  6
Continuous
100
AcDbLine
 10
283.2125
 20
-17.312499
 30
0.0
 11
283.2125
 21
-30.312499
 31
0.0
  0
ARC
  5
672
330
1D
100
AcDbEntity
  8
BLACK
100
AcDbCircle
 10
283.7125
 20
-30.312499
 30
0.0
 40
0.5
100
AcDbArc
 50
180.0
 51
270.0
  0
LINE
  5
673
330
1D
100
AcDbEntity
  8
BLACK
  6
Continuous
100
AcDbLine
 10
283.7125
 20
-30.812499
 30
0.0
 11
297.3125
 21
-30.812499
 31
0.0
  0
ARC
  5
674
330
1D
100
AcDbEntity
  8
BLACK
100
AcDbCircle
 10
297.3125
 20
-30.312499
 30
0.0
 40
0.5
100
AcDbArc
 50
270.0
 51
0.0
  0
LINE
  5
675
330
1D
100
AcDbEntity
  8
BLACK
  6
Continuous
100
AcDbLine
 10
297.8125
 20
-30.312499
 30
0.0
 11
297.8125
 21
-17.312499
 31
0.0
  0
ARC
  5
676
330
1D
100
AcDbEntity
  8
BLACK
100
AcDbCircle
 10
297.3125
 20
-17.312499
 30
0.0
 40
0.5
100
AcDbArc
 50
0.0
 51
90.0
  0
LINE
  5
677
330
1D
100
AcDbEntity
  8
BLACK
  6
Continuous
100
AcDbLine
 10
297.3125
 20
-16.812499
 30
0.0
 11
283.7125
 21
-16.812499
 31
0.0
  0
ARC
  5
678
330
1D
100
AcDbEntity
  8
BLACK
100
AcDbCircle
 10
283.7125
 20
-17.312499
 30
0.0
 40
0.5
100
AcDbArc
 50
90.0
 51
180.0
  0
ARC
  5
679
330
1D
100
AcDbEntity
  8
BLACK
100
AcDbCircle
 10
335.4125
 20
-6.499999
 30
0.0
 40
0.5
100
AcDbArc
 50
270.0
 51
0.0
  0
LINE
  5
67A
330
1D
100
AcDbEntity
  8
BLACK
  6
Continuous
100
AcDbLine
 10
335.9125
 20
-6.499999
 30
0.0
 11
335.9125
 21
6.500001
 31
0.0
  0
ARC
  5
67B
330
1D
100
AcDbEntity
  8
BLACK
100
AcDbCircle
 10
335.4125
 20
6.500001
 30
0.0
 40
0.5
100
AcDbArc
 50
0.0
 51
90.0
  0
LINE
  5
67C
330
1D
100
AcDbEntity
  8
BLACK
  6
Continuous
100
AcDbLine
 10
335.4125
 20
7.000000999999999
 30
0.0
 11
321.8125
 21
7.000000999999999
 31
0.0
  0
ARC
  5
67D
330
1D
100
AcDbEntity
  8
BLACK
100
AcDbCircle
 10
321.8125
 20
6.500001
 30
0.0
 40
0.5
100
AcDbArc
 50
90.0
 51
180.0
  0
LINE
  5
67E
330
1D
100
AcDbEntity
  8
BLACK
  6
Continuous
100
AcDbLine
 10
321.3125
 20
6.500001
 30
0.0
 11
321.3125
 21
-6.499999
 31
0.0
  0
ARC
  5
67F
330
1D
100
AcDbEntity
  8
BLACK
100
AcDbCircle
 10
321.8125
 20
-6.499999
 30
0.0
 40
0.5
100
AcDbArc
 50
180.0
 51
270.0
  0
LINE
  5
680
330
1D
100
AcDbEntity
  8
BLACK
  6
Continuous
100
AcDbLine
 10
321.8125
 20
-6.999999
 30
0.0
 11
335.4125
 21
-6.999999
 31
0.0
  0
CIRCLE
  5
681
330
1D
100
AcDbEntity
  8
BLACK
100
AcDbCircle
 10
319.0875
 20
0.000001
 30
0.0
 40
1.0
  0
CIRCLE
  5
682
330
1D
100
AcDbEntity
  8
BLACK
100
AcDbCircle
 10
278.60625
 20
0.000001
 30
0.0
 40
1.0
  0
CIRCLE
  5
683
330
1D
100
AcDbEntity
  8
BLACK
100
AcDbCircle
 10
319.0875
 20
-42.862499
 30
0.0
 40
1.0
  0
ARC
  5
684
330
1D
100
AcDbEntity
  8
BLACK
100
AcDbCircle
 10
6.8
 20
-6.499999
 30
0.0
 40
0.5
100
AcDbArc
 50
270.0
 51
0.0
  0
LINE
  5
685
330
1D
100
AcDbEntity
  8
BLACK
  6
Continuous
100
AcDbLine
 10
7.3
 20
-6.499999
 30
0.0
 11
7.3
 21
6.500001
 31
0.0
  0
ARC
  5
686
330
1D
100
AcDbEntity
  8
BLACK
100
AcDbCircle
 10
6.8
 20
6.500001
 30
0.0
 40
0.5
100
AcDbArc
 50
0.0
 51
90.0
  0
LINE
  5
687
330
1D
100
AcDbEntity
  8
BLACK
  6
Continuous
100
AcDbLine
 10
6.8
 20
7.000000999999999
 30
0.0
 11
-6.8
 21
7.000000999999999
 31
0.0
  0
ARC
  5
688
330
1D
100
AcDbEntity
  8
BLACK
100
AcDbCircle
 10
-6.799999
 20
6.5
 30
0.0
 40
0.500001
100
AcDbArc
 50
90.00011459
 51
180.0
  0
LINE
  5
689
330
1D
100
AcDbEntity
  8
BLACK
  6
Continuous
100
AcDbLine
 10
-7.3
 20
6.5
 30
0.0
 11
-7.3
 21
-6.499999
 31
0.0
  0
ARC
  5
68A
330
1D
100
AcDbEntity
  8
BLACK
100
AcDbCircle
 10
-6.799999
 20
-6.499998
 30
0.0
 40
0.500001
100
AcDbArc
 50
180.00011459
 51
270.0
  0
LINE
  5
68B
330
1D
100
AcDbEntity
  8
BLACK
  6
Continuous
100
AcDbLine
 10
-6.799999
 20
-6.999999
 30
0.0
 11
6.8
 21
-6.999999
 31
0.0
  0
CIRCLE
  5
68C
330
1D
100
AcDbEntity
  8
BLACK
100
AcDbCircle
 10
11.90625
 20
0.000001
 30
0.0
 40
1.0
  0
CIRCLE
  5
68D
330
1D
100
AcDbEntity
  8
BLACK
100
AcDbCircle
 10
114.3
 20
0.000001
 30
0.0
 40
1.0
  0
CIRCLE
  5
68E
330
1D
100
AcDbEntity
  8
BLACK
100
AcDbCircle
 10
277.415625
 20
-100.012499
 30
0.0
 40
1.0
  0
CIRCLE
  5
68F
330
1D
100
AcDbEntity
  8
BLACK
100
AcDbCircle
 10
16.66875
 20
-42.862499
 30
0.0
 40
1.0
  0
CIRCLE
  5
690
330
1D
100
AcDbEntity
  8
BLACK
100
AcDbCircle
 10
228.6
 20
-42.862499
 30
0.0
 40
1.0
  0
LINE
  5
691
330
1D
100
AcDbEntity
  8
BLACK
  6
Continuous
100
AcDbLine
 10
303.8893
 20
9.526678
 30
0.0
 11
215.2232
 21
9.526678
 31
0.0
  0
ARC
  5
692
330
1D
100
AcDbEntity
  8
BLACK
100
AcDbCircle
 10
215.2232
 20
20.526801
 30
0.0
 40
11.000123
100
AcDbArc
 50
202.82711695
 51
270.0
  0
ARC
  5
693
330
1D
100
AcDbEntity
  8
BLACK
100
AcDbCircle
 10
202.55
 20
15.192443
 30
0.0
 40
2.750000294507802
100
AcDbArc
 50
22.82664945
 51
157.17335055
  0
ARC
  5
694
330
1D
100
AcDbEntity
  8
BLACK
100
AcDbCircle
 10
189.8768
 20
20.526801
 30
0.0
 40
11.00010419652037
100
AcDbArc
 50
270.0
 51
337.1728813
  0
LINE
  5
695
330
1D
100
AcDbEntity
  8
BLACK
  6
Continuous
100
AcDbLine
 10
189.8768
 20
9.526678
 30
0.0
 11
129.4982
 21
9.526678
 31
0.0
  0
ARC
  5
696
330
1D
100
AcDbEntity
  8
BLACK
100
AcDbCircle
 10
129.4982
 20
20.526801
 30
0.0
 40
11.000123
100
AcDbArc
 50
202.82711695
 51
270.0
  0
ARC
  5
697
330
1D
100
AcDbEntity
  8
BLACK
100
AcDbCircle
 10
116.824999
 20
15.192442
 30
0.0
 40
2.749999760769626
100
AcDbArc
 50
22.82667673
 51
157.17332327
  0
ARC
  5
698
330
1D
100
AcDbEntity
  8
BLACK
100
AcDbCircle
 10
104.15183
 20
20.526761
 30
0.0
 40
11.00006102808548
100
AcDbArc
 50
269.99984374
 51
337.1730127100001
  0
LINE
  5
699
330
1D
100
AcDbEntity
  8
BLACK
  6
Continuous
100
AcDbLine
 10
104.1518
 20
9.526678
 30
0.0
 11
24.72315
 21
9.526678
 31
0.0
  0
ARC
  5
69A
330
1D
100
AcDbEntity
  8
BLACK
100
AcDbCircle
 10
24.72315
 20
20.526661
 30
0.0
 40
10.999983
100
AcDbArc
 50
202.82657794
 51
270.0
  0
ARC
  5
69B
330
1D
100
AcDbEntity
  8
BLACK
100
AcDbCircle
 10
12.050015
 20
15.192443
 30
0.0
 40
2.750000294507802
100
AcDbArc
 50
22.82664945
 51
157.17335055
  0
ARC
  5
69C
330
1D
100
AcDbEntity
  8
BLACK
100
AcDbCircle
 10
-0.623124
 20
20.526678
 30
0.0
 40
11.00000025634841
100
AcDbArc
 50
269.99998958
 51
337.17334853
  0
LINE
  5
69D
330
1D
100
AcDbEntity
  8
BLACK
  6
Continuous
100
AcDbLine
 10
-0.623126
 20
9.526678
 30
0.0
 11
-7.525001
 21
9.526678
 31
0.0
  0
ARC
  5
69E
330
1D
100
AcDbEntity
  8
BLACK
100
AcDbCircle
 10
-7.525001
 20
7.526679
 30
0.0
 40
1.99999900000025
100
AcDbArc
 50
90.0
 51
179.99997135
  0
LINE
  5
69F
330
1D
100
AcDbEntity
  8
BLACK
  6
Continuous
100
AcDbLine
 10
-9.525
 20
7.52668
 30
0.0
 11
-9.525
 21
-107.535823
 31
0.0
  0
ARC
  5
6A0
330
1D
100
AcDbEntity
  8
BLACK
100
AcDbCircle
 10
-7.525001
 20
-107.535823
 30
0.0
 40
1.99999900000025
100
AcDbArc
 50
180.0
 51
269.99997135
  0
LINE
  5
6A1
330
1D
100
AcDbEntity
  8
BLACK
  6
Continuous
100
AcDbLine
 10
-7.525002
 20
-109.535822
 30
0.0
 11
32.71437
 21
-109.535822
 31
0.0
  0
ARC
  5
6A2
330
1D
100
AcDbEntity
  8
BLACK
100
AcDbCircle
 10
32.71437
 20
-120.535829
 30
0.0
 40
11.000007
100
AcDbArc
 50
22.82670226
 51
90.0
  0
ARC
  5
6A3
330
1D
100
AcDbEntity
  8
BLACK
100
AcDbCircle
 10
45.387499
 20
-115.201587
 30
0.0
 40
2.750000294507802
100
AcDbArc
 50
202.82664945
 51
337.17335055
  0
ARC
  5
6A4
330
1D
100
AcDbEntity
  8
BLACK
100
AcDbCircle
 10
58.06064
 20
-120.535829
 30
0.0
 40
11.00000481532595
100
AcDbArc
 50
90.0
 51
157.17331897
  0
LINE
  5
6A5
330
1D
100
AcDbEntity
  8
BLACK
  6
Continuous
100
AcDbLine
 10
58.06064
 20
-109.535822
 30
0.0
 11
208.6394
 21
-109.535822
 31
0.0
  0
ARC
  5
6A6
330
1D
100
AcDbEntity
  8
BLACK
100
AcDbCircle
 10
208.6394
 20
-120.535799
 30
0.0
 40
10.999977
100
AcDbArc
 50
22.82661885
 51
90.0
  0
ARC
  5
6A7
330
1D
100
AcDbEntity
  8
BLACK
100
AcDbCircle
 10
221.3125
 20
-115.201586
 30
0.0
 40
2.749999760769626
100
AcDbArc
 50
202.82667673
 51
337.17332327
  0
ARC
  5
6A8
330
1D
100
AcDbEntity
  8
BLACK
100
AcDbCircle
 10
233.9855
 20
-120.535599
 30
0.0
 40
10.99978655358157
100
AcDbArc
 50
89.92670683
 51
157.17414026
  0
LINE
  5
6A9
330
1D
100
AcDbEntity
  8
BLACK
  6
Continuous
100
AcDbLine
 10
233.999571
 20
-109.535822
 30
0.0
 11
284.8394
 21
-109.535822
 31
0.0
  0
ARC
  5
6AA
330
1D
100
AcDbEntity
  8
BLACK
100
AcDbCircle
 10
284.8394
 20
-120.535799
 30
0.0
 40
10.999977
100
AcDbArc
 50
22.82661885
 51
90.0
  0
ARC
  5
6AB
330
1D
100
AcDbEntity
  8
BLACK
100
AcDbCircle
 10
297.5125
 20
-115.201586
 30
0.0
 40
2.749999760769626
100
AcDbArc
 50
202.82667673
 51
337.17332327
  0
ARC
  5
6AC
330
1D
100
AcDbEntity
  8
BLACK
100
AcDbCircle
 10
310.1855
 20
-120.535599
 30
0.0
 40
10.99978655358157
100
AcDbArc
 50
89.92670683
 51
157.17414026
  0
LINE
  5
6AD
330
1D
100
AcDbEntity
  8
BLACK
  6
Continuous
100
AcDbLine
 10
310.199571
 20
-109.535822
 30
0.0
 11
336.154835
 21
-109.535822
 31
0.0
  0
ARC
  5
6AE
330
1D
100
AcDbEntity
  8
BLACK
100
AcDbCircle
 10
336.1373
 20
-107.535699
 30
0.0
 40
2.00020000249975
100
AcDbArc
 50
270.50229699
 51
359.9971355
  0
LINE
  5
6AF
330
1D
100
AcDbEntity
  8
BLACK
  6
Continuous
100
AcDbLine
 10
338.1375
 20
-107.535799
 30
0.0
 11
338.1375
 21
7.526678
 31
0.0
  0
ARC
  5
6B0
330
1D
100
AcDbEntity
  8
BLACK
100
AcDbCircle
 10
336.1375
 20
7.526701
 30
0.0
 40
1.999977
100
AcDbArc
 50
359.99934109
 51
90.0
  0
LINE
  5
6B1
330
1D
100
AcDbEntity
  8
BLACK
  6
Continuous
100
AcDbLine
 10
336.1375
 20
9.526678
 30
0.0
 11
329.2357
 21
9.526678
 31
0.0
  0
ARC
  5
6B2
330
1D
100
AcDbEntity
  8
BLACK
100
AcDbCircle
 10
329.2357
 20
20.526801
 30
0.0
 40
11.000123
100
AcDbArc
 50
202.82711695
 51
270.0
  0
ARC
  5
6B3
330
1D
100
AcDbEntity
  8
BLACK
100
AcDbCircle
 10
316.5625
 20
15.192443
 30
0.0
 40
2.750000294507802
100
AcDbArc
 50
22.82664945
 51
157.17335055
  0
ARC
  5
6B4
330
1D
100
AcDbEntity
  8
BLACK
100
AcDbCircle
 10
303.8893
 20
20.526801
 30
0.0
 40
11.00010419652037
100
AcDbArc
 50
270.0
 51
337.1728813
  0
ARC
  5
6B5
330
1D
100
AcDbEntity
  8
BLACK
100
AcDbCircle
 10
129.4982
 20
20.526701
 30
0.0
 40
11.70003445801165
100
AcDbArc
 50
219.30988002
 51
259.28072137
  0
ARC
  5
6B6
330
1D
100
AcDbEntity
  8
BLACK
100
AcDbCircle
 10
127.2291
 20
8.539601
 30
0.0
 40
0.4999401858822713
100
AcDbArc
 50
313.0615376
 51
79.28789349
  0
ARC
  5
6B7
330
1D
100
AcDbEntity
  8
BLACK
100
AcDbCircle
 10
127.0942
 20
8.683900999999999
 30
0.0
 40
0.697523243548199
100
AcDbArc
 50
269.10344799
 51
313.06442287
  0
LINE
  5
6B8
330
1D
100
AcDbEntity
  8
BLACK
  6
Continuous
100
AcDbLine
 10
127.083286
 20
7.986478999999999
 30
0.0
 11
117.844538
 21
7.986478999999999
 31
0.0
  0
LINE
  5
6B9
330
1D
100
AcDbEntity
  8
BLACK
  6
Continuous
100
AcDbLine
 10
117.844538
 20
7.986478999999999
 30
0.0
 11
117.844538
 21
8.913497
 31
0.0
  0
ARC
  5
6BA
330
1D
100
AcDbEntity
  8
BLACK
100
AcDbCircle
 10
116.8249
 20
12.047401
 30
0.0
 40
3.295606267418789
100
AcDbArc
 50
288.0226667
 51
14.8509737
  0
ARC
  5
6BB
330
1D
100
AcDbEntity
  8
BLACK
100
AcDbCircle
 10
120.2521
 20
12.956201
 30
0.0
 40
0.2500413874741539
100
AcDbArc
 50
39.30840418000003
 51
194.85807204
  0
ARC
  5
6BC
330
1D
100
AcDbEntity
  8
BLACK
100
AcDbCircle
 10
202.55
 20
12.047401
 30
0.0
 40
3.295560655919111
100
AcDbArc
 50
165.14859089
 51
251.97888936
  0
LINE
  5
6BD
330
1D
100
AcDbEntity
  8
BLACK
  6
Continuous
100
AcDbLine
 10
201.530461
 20
8.913511999999999
 30
0.0
 11
201.530461
 21
7.986478999999999
 31
0.0
  0
LINE
  5
6BE
330
1D
100
AcDbEntity
  8
BLACK
  6
Continuous
100
AcDbLine
 10
201.530461
 20
7.986478999999999
 30
0.0
 11
192.2805
 21
7.986478999999999
 31
0.0
  0
ARC
  5
6BF
330
1D
100
AcDbEntity
  8
BLACK
100
AcDbCircle
 10
192.2805
 20
8.683601
 30
0.0
 40
0.697122
100
AcDbArc
 50
226.93667524
 51
270.0
  0
ARC
  5
6C0
330
1D
100
AcDbEntity
  8
BLACK
100
AcDbCircle
 10
192.146
 20
8.539601
 30
0.0
 40
0.5000561397053335
100
AcDbArc
 50
100.723512
 51
226.93000334
  0
ARC
  5
6C1
330
1D
100
AcDbEntity
  8
BLACK
100
AcDbCircle
 10
189.8769
 20
20.526701
 30
0.0
 40
11.69998453642777
100
AcDbArc
 50
280.71879032
 51
320.68980702
  0
ARC
  5
6C2
330
1D
100
AcDbEntity
  8
BLACK
100
AcDbCircle
 10
199.123
 20
12.956201
 30
0.0
 40
0.2500295095563722
100
AcDbArc
 50
345.1360782
 51
140.70619146
  0
ARC
  5
6C3
330
1D
100
AcDbEntity
  8
BLACK
100
AcDbCircle
 10
202.55
 20
12.047401
 30
0.0
 40
1.726048605868618
100
AcDbArc
 50
162.58764132
 51
18.09170188
  0
ARC
  5
6C4
330
1D
100
AcDbEntity
  8
BLACK
100
AcDbCircle
 10
204.55
 20
12.700801
 30
0.0
 40
0.3779788563147415
100
AcDbArc
 50
18.09162500000002
 51
198.09455851
  0
ARC
  5
6C5
330
1D
100
AcDbEntity
  8
BLACK
100
AcDbCircle
 10
202.55
 20
12.047401
 30
0.0
 40
2.481998845749329
100
AcDbArc
 50
162.58729246
 51
18.0921183
  0
ARC
  5
6C6
330
1D
100
AcDbEntity
  8
BLACK
100
AcDbCircle
 10
200.5424
 20
12.677101
 30
0.0
 40
0.3779613837748507
100
AcDbArc
 50
342.5758658
 51
162.59696122
  0
CIRCLE
  5
6C7
330
1D
100
AcDbEntity
  8
BLACK
100
AcDbCircle
 10
202.55
 20
15.464364
 30
0.0
 40
1.35
  0
ARC
  5
6C8
330
1D
100
AcDbEntity
  8
BLACK
100
AcDbCircle
 10
202.5499
 20
12.047401
 30
0.0
 40
3.295606267418789
100
AcDbArc
 50
288.0226667
 51
14.8509737
  0
ARC
  5
6C9
330
1D
100
AcDbEntity
  8
BLACK
100
AcDbCircle
 10
205.9771
 20
12.956201
 30
0.0
 40
0.2500413874741539
100
AcDbArc
 50
39.30840418000003
 51
194.85807204
  0
ARC
  5
6CA
330
1D
100
AcDbEntity
  8
BLACK
100
AcDbCircle
 10
215.2232
 20
20.526701
 30
0.0
 40
11.70003445801165
100
AcDbArc
 50
219.30988002
 51
259.28072137
  0
ARC
  5
6CB
330
1D
100
AcDbEntity
  8
BLACK
100
AcDbCircle
 10
212.9541
 20
8.539601
 30
0.0
 40
0.4999401858822713
100
AcDbArc
 50
313.0615376
 51
79.28789349
  0
ARC
  5
6CC
330
1D
100
AcDbEntity
  8
BLACK
100
AcDbCircle
 10
212.8192
 20
8.683900999999999
 30
0.0
 40
0.697523243548199
100
AcDbArc
 50
269.10344799
 51
313.06442287
  0
LINE
  5
6CD
330
1D
100
AcDbEntity
  8
BLACK
  6
Continuous
100
AcDbLine
 10
212.808286
 20
7.986478999999999
 30
0.0
 11
203.569538
 21
7.986478999999999
 31
0.0
  0
LINE
  5
6CE
330
1D
100
AcDbEntity
  8
BLACK
  6
Continuous
100
AcDbLine
 10
203.569538
 20
7.986478999999999
 30
0.0
 11
203.569538
 21
8.913497
 31
0.0
  0
ARC
  5
6CF
330
1D
100
AcDbEntity
  8
BLACK
100
AcDbCircle
 10
329.2357
 20
20.526701
 30
0.0
 40
11.70003445801165
100
AcDbArc
 50
219.30988002
 51
259.28072137
  0
ARC
  5
6D0
330
1D
100
AcDbEntity
  8
BLACK
100
AcDbCircle
 10
326.9666
 20
8.539601
 30
0.0
 40
0.4999401858822713
100
AcDbArc
 50
313.0615376
 51
79.28789349
  0
ARC
  5
6D1
330
1D
100
AcDbEntity
  8
BLACK
100
AcDbCircle
 10
326.8317
 20
8.683900999999999
 30
0.0
 40
0.697523243548199
100
AcDbArc
 50
269.10344799
 51
313.06442287
  0
LINE
  5
6D2
330
1D
100
AcDbEntity
  8
BLACK
  6
Continuous
100
AcDbLine
 10
326.820786
 20
7.986478999999999
 30
0.0
 11
317.582038
 21
7.986478999999999
 31
0.0
  0
LINE
  5
6D3
330
1D
100
AcDbEntity
  8
BLACK
  6
Continuous
100
AcDbLine
 10
317.582038
 20
7.986478999999999
 30
0.0
 11
317.582038
 21
8.913497
 31
0.0
  0
ARC
  5
6D4
330
1D
100
AcDbEntity
  8
BLACK
100
AcDbCircle
 10
316.5624
 20
12.047401
 30
0.0
 40
3.295606267418789
100
AcDbArc
 50
288.0226667
 51
14.8509737
  0
ARC
  5
6D5
330
1D
100
AcDbEntity
  8
BLACK
100
AcDbCircle
 10
319.9896
 20
12.956201
 30
0.0
 40
0.2500413874741539
100
AcDbArc
 50
39.30840418000003
 51
194.85807204
  0
ARC
  5
6D6
330
1D
100
AcDbEntity
  8
BLACK
100
AcDbCircle
 10
316.5625
 20
12.047401
 30
0.0
 40
3.295560655919111
100
AcDbArc
 50
165.14859089
 51
251.97888936
  0
LINE
  5
6D7
330
1D
100
AcDbEntity
  8
BLACK
  6
Continuous
100
AcDbLine
 10
315.542961
 20
8.913511999999999
 30
0.0
 11
315.542961
 21
7.986478999999999
 31
0.0
  0
LINE
  5
6D8
330
1D
100
AcDbEntity
  8
BLACK
  6
Continuous
100
AcDbLine
 10
315.542961
 20
7.986478999999999
 30
0.0
 11
306.293
 21
7.986478999999999
 31
0.0
  0
ARC
  5
6D9
330
1D
100
AcDbEntity
  8
BLACK
100
AcDbCircle
 10
306.293
 20
8.683601
 30
0.0
 40
0.697122
100
AcDbArc
 50
226.93667524
 51
270.0
  0
ARC
  5
6DA
330
1D
100
AcDbEntity
  8
BLACK
100
AcDbCircle
 10
306.1585
 20
8.539601
 30
0.0
 40
0.5000561397053335
100
AcDbArc
 50
100.723512
 51
226.93000334
  0
ARC
  5
6DB
330
1D
100
AcDbEntity
  8
BLACK
100
AcDbCircle
 10
303.8894
 20
20.526701
 30
0.0
 40
11.69998453642777
100
AcDbArc
 50
280.71879032
 51
320.68980702
  0
ARC
  5
6DC
330
1D
100
AcDbEntity
  8
BLACK
100
AcDbCircle
 10
313.1355
 20
12.956201
 30
0.0
 40
0.2500295095563722
100
AcDbArc
 50
345.1360782
 51
140.70619146
  0
ARC
  5
6DD
330
1D
100
AcDbEntity
  8
BLACK
100
AcDbCircle
 10
316.5625
 20
12.047401
 30
0.0
 40
1.726048605868618
100
AcDbArc
 50
162.58764132
 51
18.09170188
  0
ARC
  5
6DE
330
1D
100
AcDbEntity
  8
BLACK
100
AcDbCircle
 10
318.5625
 20
12.700801
 30
0.0
 40
0.3779788563147415
100
AcDbArc
 50
18.09162500000002
 51
198.09455851
  0
ARC
  5
6DF
330
1D
100
AcDbEntity
  8
BLACK
100
AcDbCircle
 10
316.5625
 20
12.047401
 30
0.0
 40
2.481998845749329
100
AcDbArc
 50
162.58729246
 51
18.0921183
  0
ARC
  5
6E0
330
1D
100
AcDbEntity
  8
BLACK
100
AcDbCircle
 10
314.5549
 20
12.677101
 30
0.0
 40
0.3779613837748507
100
AcDbArc
 50
342.5758658
 51
162.59696122
  0
CIRCLE
  5
6E1
330
1D
100
AcDbEntity
  8
BLACK
100
AcDbCircle
 10
316.5625
 20
15.464364
 30
0.0
 40
1.35
  0
ARC
  5
6E2
330
1D
100
AcDbEntity
  8
BLACK
100
AcDbCircle
 10
116.825
 20
12.047401
 30
0.0
 40
3.295560655919111
100
AcDbArc
 50
165.14859089
 51
251.97888936
  0
LINE
  5
6E3
330
1D
100
AcDbEntity
  8
BLACK
  6
Continuous
100
AcDbLine
 10
115.805461
 20
8.913511999999999
 30
0.0
 11
115.805461
 21
7.986478999999999
 31
0.0
  0
LINE
  5
6E4
330
1D
100
AcDbEntity
  8
BLACK
  6
Continuous
100
AcDbLine
 10
115.805461
 20
7.986478999999999
 30
0.0
 11
106.5555
 21
7.986478999999999
 31
0.0
  0
ARC
  5
6E5
330
1D
100
AcDbEntity
  8
BLACK
100
AcDbCircle
 10
106.5555
 20
8.683601
 30
0.0
 40
0.697122
100
AcDbArc
 50
226.93667524
 51
270.0
  0
ARC
  5
6E6
330
1D
100
AcDbEntity
  8
BLACK
100
AcDbCircle
 10
106.421
 20
8.539601
 30
0.0
 40
0.5000561397053335
100
AcDbArc
 50
100.723512
 51
226.93000334
  0
ARC
  5
6E7
330
1D
100
AcDbEntity
  8
BLACK
100
AcDbCircle
 10
104.1519
 20
20.526701
 30
0.0
 40
11.69998453642777
100
AcDbArc
 50
280.71879032
 51
320.68980702
  0
ARC
  5
6E8
330
1D
100
AcDbEntity
  8
BLACK
100
AcDbCircle
 10
113.398
 20
12.956201
 30
0.0
 40
0.2500295095563722
100
AcDbArc
 50
345.1360782
 51
140.70619146
  0
ARC
  5
6E9
330
1D
100
AcDbEntity
  8
BLACK
100
AcDbCircle
 10
116.825
 20
12.047401
 30
0.0
 40
1.726048605868618
100
AcDbArc
 50
162.58764132
 51
18.09170188
  0
ARC
  5
6EA
330
1D
100
AcDbEntity
  8
BLACK
100
AcDbCircle
 10
118.825
 20
12.700801
 30
0.0
 40
0.3779788563147415
100
AcDbArc
 50
18.09162500000002
 51
198.09455851
  0
ARC
  5
6EB
330
1D
100
AcDbEntity
  8
BLACK
100
AcDbCircle
 10
116.825
 20
12.047401
 30
0.0
 40
2.481998845749329
100
AcDbArc
 50
162.58729246
 51
18.0921183
  0
ARC
  5
6EC
330
1D
100
AcDbEntity
  8
BLACK
100
AcDbCircle
 10
114.8174
 20
12.677101
 30
0.0
 40
0.3779613837748507
100
AcDbArc
 50
342.5758658
 51
162.59696122
  0
CIRCLE
  5
6ED
330
1D
100
AcDbEntity
  8
BLACK
100
AcDbCircle
 10
116.825
 20
15.464364
 30
0.0
 40
1.35
  0
ARC
  5
6EE
330
1D
100
AcDbEntity
  8
BLACK
100
AcDbCircle
 10
47.3951
 20
-112.686199
 30
0.0
 40
0.3779738345613357
100
AcDbArc
 50
162.58532148
 51
342.58992746
  0
ARC
  5
6EF
330
1D
100
AcDbEntity
  8
BLACK
100
AcDbCircle
 10
45.3875
 20
-112.056499
 30
0.0
 40
2.482014081788417
100
AcDbArc
 50
342.58620116
 51
198.09312051
  0
ARC
  5
6F0
330
1D
100
AcDbEntity
  8
BLACK
100
AcDbCircle
 10
43.3875
 20
-112.709899
 30
0.0
 40
0.3779630003505634
100
AcDbArc
 50
198.09810028
 51
18.08768908
  0
ARC
  5
6F1
330
1D
100
AcDbEntity
  8
BLACK
100
AcDbCircle
 10
45.3875
 20
-112.056499
 30
0.0
 40
1.72606446288486
100
AcDbArc
 50
342.58559885
 51
198.09320613
  0
CIRCLE
  5
6F2
330
1D
100
AcDbEntity
  8
BLACK
100
AcDbCircle
 10
45.3875
 20
-115.473509
 30
0.0
 40
1.35
  0
ARC
  5
6F3
330
1D
100
AcDbEntity
  8
BLACK
100
AcDbCircle
 10
45.3875
 20
-112.056499
 30
0.0
 40
3.295515652277804
100
AcDbArc
 50
345.14781313
 51
71.97865309
  0
LINE
  5
6F4
330
1D
100
AcDbEntity
  8
BLACK
  6
Continuous
100
AcDbLine
 10
46.407038
 20
-108.922657
 30
0.0
 11
46.407038
 21
-107.995623
 31
0.0
  0
LINE
  5
6F5
330
1D
100
AcDbEntity
  8
BLACK
  6
Continuous
100
AcDbLine
 10
46.407038
 20
-107.995623
 30
0.0
 11
55.6572
 21
-107.995623
 31
0.0
  0
ARC
  5
6F6
330
1D
100
AcDbEntity
  8
BLACK
100
AcDbCircle
 10
55.6572
 20
-108.692199
 30
0.0
 40
0.696576
100
AcDbArc
 50
46.91809064
 51
90.0
  0
ARC
  5
6F7
330
1D
100
AcDbEntity
  8
BLACK
100
AcDbCircle
 10
55.7916
 20
-108.548699
 30
0.0
 40
0.4999535655578426
100
AcDbArc
 50
280.71108113
 51
46.93485898
  0
ARC
  5
6F8
330
1D
100
AcDbEntity
  8
BLACK
100
AcDbCircle
 10
58.0607
 20
-120.535799
 30
0.0
 40
11.7000335414785
100
AcDbArc
 50
100.71932064
 51
140.69029465
  0
ARC
  5
6F9
330
1D
100
AcDbEntity
  8
BLACK
100
AcDbCircle
 10
48.8146
 20
-112.965299
 30
0.0
 40
0.24998049628321
100
AcDbArc
 50
165.1520951
 51
320.68337156
  0
ARC
  5
6FA
330
1D
100
AcDbEntity
  8
BLACK
100
AcDbCircle
 10
208.6394
 20
-120.535799
 30
0.0
 40
11.69997047533048
100
AcDbArc
 50
39.31001902
 51
79.28116544999997
  0
ARC
  5
6FB
330
1D
100
AcDbEntity
  8
BLACK
100
AcDbCircle
 10
210.9085
 20
-108.548699
 30
0.0
 40
0.5000041657876462
100
AcDbArc
 50
133.07367296
 51
259.2775013
  0
ARC
  5
6FC
330
1D
100
AcDbEntity
  8
BLACK
100
AcDbCircle
 10
211.0428
 20
-108.692299
 30
0.0
 40
0.6966375138341316
100
AcDbArc
 50
89.98568944
 51
133.07633387
  0
LINE
  5
6FD
330
1D
100
AcDbEntity
  8
BLACK
  6
Continuous
100
AcDbLine
 10
211.042974
 20
-107.995623
 30
0.0
 11
220.292961
 21
-107.995623
 31
0.0
  0
LINE
  5
6FE
330
1D
100
AcDbEntity
  8
BLACK
  6
Continuous
100
AcDbLine
 10
220.292961
 20
-107.995623
 30
0.0
 11
220.292961
 21
-108.922651
 31
0.0
  0
ARC
  5
6FF
330
1D
100
AcDbEntity
  8
BLACK
100
AcDbCircle
 10
221.3125
 20
-112.056499
 30
0.0
 40
3.295522365246669
100
AcDbArc
 50
108.02133117
 51
194.85218789
  0
ARC
  5
700
330
1D
100
AcDbEntity
  8
BLACK
100
AcDbCircle
 10
217.8855
 20
-112.965299
 30
0.0
 40
0.2499319696257364
100
AcDbArc
 50
219.30201698
 51
14.85381657
  0
ARC
  5
701
330
1D
100
AcDbEntity
  8
BLACK
100
AcDbCircle
 10
284.8394
 20
-120.535799
 30
0.0
 40
11.69997047533048
100
AcDbArc
 50
39.31001902
 51
79.28116544999997
  0
ARC
  5
702
330
1D
100
AcDbEntity
  8
BLACK
100
AcDbCircle
 10
287.1085
 20
-108.548699
 30
0.0
 40
0.5000041657876462
100
AcDbArc
 50
133.07367296
 51
259.2775013
  0
ARC
  5
703
330
1D
100
AcDbEntity
  8
BLACK
100
AcDbCircle
 10
287.2428
 20
-108.692299
 30
0.0
 40
0.6966375138341316
100
AcDbArc
 50
89.98568944
 51
133.07633387
  0
LINE
  5
704
330
1D
100
AcDbEntity
  8
BLACK
  6
Continuous
100
AcDbLine
 10
287.242974
 20
-107.995623
 30
0.0
 11
296.492961
 21
-107.995623
 31
0.0
  0
LINE
  5
705
330
1D
100
AcDbEntity
  8
BLACK
  6
Continuous
100
AcDbLine
 10
296.492961
 20
-107.995623
 30
0.0
 11
296.492961
 21
-108.922651
 31
0.0
  0
ARC
  5
706
330
1D
100
AcDbEntity
  8
BLACK
100
AcDbCircle
 10
297.5125
 20
-112.056499
 30
0.0
 40
3.295522365246669
100
AcDbArc
 50
108.02133117
 51
194.85218789
  0
ARC
  5
707
330
1D
100
AcDbEntity
  8
BLACK
100
AcDbCircle
 10
294.0855
 20
-112.965299
 30
0.0
 40
0.2499319696257364
100
AcDbArc
 50
219.30201698
 51
14.85381657
  0
ARC
  5
708
330
1D
100
AcDbEntity
  8
BLACK
100
AcDbCircle
 10
297.5125
 20
-112.056499
 30
0.0
 40
3.295515652277804
100
AcDbArc
 50
345.14781313
 51
71.97865309
  0
LINE
  5
709
330
1D
100
AcDbEntity
  8
BLACK
  6
Continuous
100
AcDbLine
 10
298.532038
 20
-108.922657
 30
0.0
 11
298.532038
 21
-107.995623
 31
0.0
  0
LINE
  5
70A
330
1D
100
AcDbEntity
  8
BLACK
  6
Continuous
100
AcDbLine
 10
298.532038
 20
-107.995623
 30
0.0
 11
307.7822
 21
-107.995623
 31
0.0
  0
ARC
  5
70B
330
1D
100
AcDbEntity
  8
BLACK
100
AcDbCircle
 10
307.7822
 20
-108.692199
 30
0.0
 40
0.696576
100
AcDbArc
 50
46.91809064
 51
90.0
  0
ARC
  5
70C
330
1D
100
AcDbEntity
  8
BLACK
100
AcDbCircle
 10
307.9166
 20
-108.548699
 30
0.0
 40
0.4999535655578426
100
AcDbArc
 50
280.71108113
 51
46.93485898
  0
ARC
  5
70D
330
1D
100
AcDbEntity
  8
BLACK
100
AcDbCircle
 10
310.1857
 20
-120.535799
 30
0.0
 40
11.7000335414785
100
AcDbArc
 50
100.71932064
 51
140.69029465
  0
ARC
  5
70E
330
1D
100
AcDbEntity
  8
BLACK
100
AcDbCircle
 10
300.9396
 20
-112.965299
 30
0.0
 40
0.24998049628321
100
AcDbArc
 50
165.1520951
 51
320.68337156
  0
CIRCLE
  5
70F
330
1D
100
AcDbEntity
  8
BLACK
100
AcDbCircle
 10
297.5125
 20
-115.473509
 30
0.0
 40
1.35
  0
ARC
  5
710
330
1D
100
AcDbEntity
  8
BLACK
100
AcDbCircle
 10
297.5125
 20
-112.056499
 30
0.0
 40
2.482014081788417
100
AcDbArc
 50
342.58626863
 51
198.09312051
  0
ARC
  5
711
330
1D
100
AcDbEntity
  8
BLACK
100
AcDbCircle
 10
295.5125
 20
-112.709899
 30
0.0
 40
0.3779636404629419
100
AcDbArc
 50
198.09810028
 51
18.08749791
  0
ARC
  5
712
330
1D
100
AcDbEntity
  8
BLACK
100
AcDbCircle
 10
297.5125
 20
-112.056499
 30
0.0
 40
1.726063822896477
100
AcDbArc
 50
342.5861374199999
 51
198.09324799
  0
ARC
  5
713
330
1D
100
AcDbEntity
  8
BLACK
100
AcDbCircle
 10
299.5201
 20
-112.686199
 30
0.0
 40
0.3779741903384409
100
AcDbArc
 50
162.5829253
 51
342.5902621
  0
ARC
  5
714
330
1D
100
AcDbEntity
  8
BLACK
100
AcDbCircle
 10
12.05001
 20
12.047361
 30
0.0
 40
1.726065780608028
100
AcDbArc
 50
162.58639442
 51
18.09291247
  0
ARC
  5
715
330
1D
100
AcDbEntity
  8
BLACK
100
AcDbCircle
 10
14.05
 20
12.700801
 30
0.0
 40
0.3779645981649604
100
AcDbArc
 50
18.09089290999998
 51
198.09526474
  0
ARC
  5
716
330
1D
100
AcDbEntity
  8
BLACK
100
AcDbCircle
 10
12.050014
 20
12.047359
 30
0.0
 40
2.482013790095655
100
AcDbArc
 50
162.58634283
 51
18.09302557
  0
ARC
  5
717
330
1D
100
AcDbEntity
  8
BLACK
100
AcDbCircle
 10
10.0424
 20
12.677031
 30
0.0
 40
0.3779670593596748
100
AcDbArc
 50
342.58651857
 51
162.58611028
  0
CIRCLE
  5
718
330
1D
100
AcDbEntity
  8
BLACK
100
AcDbCircle
 10
12.050015
 20
15.464364
 30
0.0
 40
1.35
  0
ARC
  5
719
330
1D
100
AcDbEntity
  8
BLACK
100
AcDbCircle
 10
221.3125
 20
-112.056499
 30
0.0
 40
2.482014081788417
100
AcDbArc
 50
342.58626863
 51
198.09312051
  0
ARC
  5
71A
330
1D
100
AcDbEntity
  8
BLACK
100
AcDbCircle
 10
219.3125
 20
-112.709899
 30
0.0
 40
0.3779639509331545
100
AcDbArc
 50
198.09824434
 51
18.08764201
  0
ARC
  5
71B
330
1D
100
AcDbEntity
  8
BLACK
100
AcDbCircle
 10
221.3125
 20
-112.056499
 30
0.0
 40
1.726063512332324
100
AcDbArc
 50
342.5861374199999
 51
198.09321644
  0
ARC
  5
71C
330
1D
100
AcDbEntity
  8
BLACK
100
AcDbCircle
 10
223.3201
 20
-112.686199
 30
0.0
 40
0.3779741903384409
100
AcDbArc
 50
162.5829253
 51
342.5902621
  0
CIRCLE
  5
71D
330
1D
100
AcDbEntity
  8
BLACK
100
AcDbCircle
 10
221.3125
 20
-115.473509
 30
0.0
 40
1.35
  0
ARC
  5
71E
330
1D
100
AcDbEntity
  8
BLACK
100
AcDbCircle
 10
221.3125
 20
-112.056499
 30
0.0
 40
3.295515652277804
100
AcDbArc
 50
345.14781313
 51
71.97865309
  0
LINE
  5
71F
330
1D
100
AcDbEntity
  8
BLACK
  6
Continuous
100
AcDbLine
 10
222.332038
 20
-108.922657
 30
0.0
 11
222.332038
 21
-107.995623
 31
0.0
  0
LINE
  5
720
330
1D
100
AcDbEntity
  8
BLACK
  6
Continuous
100
AcDbLine
 10
222.332038
 20
-107.995623
 30
0.0
 11
231.5822
 21
-107.995623
 31
0.0
  0
ARC
  5
721
330
1D
100
AcDbEntity
  8
BLACK
100
AcDbCircle
 10
231.5822
 20
-108.692199
 30
0.0
 40
0.696576
100
AcDbArc
 50
46.91809064
 51
90.0
  0
ARC
  5
722
330
1D
100
AcDbEntity
  8
BLACK
100
AcDbCircle
 10
231.7166
 20
-108.548699
 30
0.0
 40
0.4999535655578426
100
AcDbArc
 50
280.71108113
 51
46.93485898
  0
ARC
  5
723
330
1D
100
AcDbEntity
  8
BLACK
100
AcDbCircle
 10
233.9857
 20
-120.535799
 30
0.0
 40
11.7000335414785
100
AcDbArc
 50
100.71932064
 51
140.69029465
  0
ARC
  5
724
330
1D
100
AcDbEntity
  8
BLACK
100
AcDbCircle
 10
224.7396
 20
-112.965299
 30
0.0
 40
0.24998049628321
100
AcDbArc
 50
165.1520951
 51
320.68337156
  0
ARC
  5
725
330
1D
100
AcDbEntity
  8
BLACK
100
AcDbCircle
 10
32.7144
 20
-120.535799
 30
0.0
 40
11.69997047533048
100
AcDbArc
 50
39.31001902
 51
79.28116544999997
  0
ARC
  5
726
330
1D
100
AcDbEntity
  8
BLACK
100
AcDbCircle
 10
34.9835
 20
-108.548699
 30
0.0
 40
0.5000041657876462
100
AcDbArc
 50
133.07367296
 51
259.2775013
  0
ARC
  5
727
330
1D
100
AcDbEntity
  8
BLACK
100
AcDbCircle
 10
35.1178
 20
-108.692299
 30
0.0
 40
0.6966375138341316
100
AcDbArc
 50
89.98568944
 51
133.07633387
  0
LINE
  5
728
330
1D
100
AcDbEntity
  8
BLACK
  6
Continuous
100
AcDbLine
 10
35.117974
 20
-107.995623
 30
0.0
 11
44.367961
 21
-107.995623
 31
0.0
  0
LINE
  5
729
330
1D
100
AcDbEntity
  8
BLACK
  6
Continuous
100
AcDbLine
 10
44.367961
 20
-107.995623
 30
0.0
 11
44.367961
 21
-108.922651
 31
0.0
  0
ARC
  5
72A
330
1D
100
AcDbEntity
  8
BLACK
100
AcDbCircle
 10
45.38747
 20
-112.056479
 30
0.0
 40
3.295498494173681
100
AcDbArc
 50
108.02094275
 51
194.85265769
  0
ARC
  5
72B
330
1D
100
AcDbEntity
  8
BLACK
100
AcDbCircle
 10
41.9605
 20
-112.965299
 30
0.0
 40
0.2499319696257364
100
AcDbArc
 50
219.30201698
 51
14.85381657
  0
ARC
  5
72C
330
1D
100
AcDbEntity
  8
BLACK
100
AcDbCircle
 10
12.04991
 20
12.047411
 30
0.0
 40
3.295608537357706
100
AcDbArc
 50
288.02274936
 51
14.85078337
  0
ARC
  5
72D
330
1D
100
AcDbEntity
  8
BLACK
100
AcDbCircle
 10
15.4771
 20
12.956201
 30
0.0
 40
0.2500268890439586
100
AcDbArc
 50
39.30626036000001
 51
194.85895347
  0
ARC
  5
72E
330
1D
100
AcDbEntity
  8
BLACK
100
AcDbCircle
 10
24.72317
 20
20.526671
 30
0.0
 40
11.69999642569809
100
AcDbArc
 50
219.30990319
 51
259.28091538
  0
ARC
  5
72F
330
1D
100
AcDbEntity
  8
BLACK
100
AcDbCircle
 10
22.4541
 20
8.539601
 30
0.0
 40
0.4999431601172277
100
AcDbArc
 50
313.06284436
 51
79.28609177
  0
ARC
  5
730
330
1D
100
AcDbEntity
  8
BLACK
100
AcDbCircle
 10
22.3195
 20
8.683501
 30
0.0
 40
0.6970364082348928
100
AcDbArc
 50
270.0
 51
313.0697584900001
  0
LINE
  5
731
330
1D
100
AcDbEntity
  8
BLACK
  6
Continuous
100
AcDbLine
 10
22.3195
 20
7.986478999999999
 30
0.0
 11
13.069553
 21
7.986478999999999
 31
0.0
  0
LINE
  5
732
330
1D
100
AcDbEntity
  8
BLACK
  6
Continuous
100
AcDbLine
 10
13.069553
 20
7.986478999999999
 30
0.0
 11
13.069553
 21
8.913507
 31
0.0
  0
ARC
  5
733
330
1D
100
AcDbEntity
  8
BLACK
100
AcDbCircle
 10
12.05
 20
12.047351
 30
0.0
 40
3.295505306083575
100
AcDbArc
 50
165.14767804
 51
251.97886882
  0
LINE
  5
734
330
1D
100
AcDbEntity
  8
BLACK
  6
Continuous
100
AcDbLine
 10
11.030477
 20
8.913515
 30
0.0
 11
11.030477
 21
7.986478999999999
 31
0.0
  0
LINE
  5
735
330
1D
100
AcDbEntity
  8
BLACK
  6
Continuous
100
AcDbLine
 10
11.030477
 20
7.986478999999999
 30
0.0
 11
1.78046
 21
7.986478999999999
 31
0.0
  0
ARC
  5
736
330
1D
100
AcDbEntity
  8
BLACK
100
AcDbCircle
 10
1.78046
 20
8.683451
 30
0.0
 40
0.6969719999999999
100
AcDbArc
 50
226.93164753
 51
270.0
  0
ARC
  5
737
330
1D
100
AcDbEntity
  8
BLACK
100
AcDbCircle
 10
1.64597
 20
8.539581
 30
0.0
 40
0.5000101167026523
100
AcDbArc
 50
100.71796449
 51
226.93228895
  0
ARC
  5
738
330
1D
100
AcDbEntity
  8
BLACK
100
AcDbCircle
 10
-0.6231249999999999
 20
20.526678
 30
0.0
 40
11.70000168841172
100
AcDbArc
 50
280.7190051600001
 51
320.6900213600001
  0
ARC
  5
739
330
1D
100
AcDbEntity
  8
BLACK
100
AcDbCircle
 10
8.62297
 20
12.956181
 30
0.0
 40
0.2500065796834155
100
AcDbArc
 50
345.14317568
 51
140.6959679
  0
LINE
  5
73A
330
1D
100
AcDbEntity
  8
BLACK
  6
Continuous
100
AcDbLine
 10
211.042974
 20
-107.995648
 30
0.0
 11
211.042974
 21
-107.995623
 31
0.0
  0
LINE
  5
73B
330
1D
100
AcDbEntity
  8
BLACK
  6
Continuous
100
AcDbLine
 10
287.242974
 20
-107.995648
 30
0.0
 11
287.242974
 21
-107.995623
 31
0.0
  0
LINE
  5
73C
330
1D
100
AcDbEntity
  8
BLACK
  6
Continuous
100
AcDbLine
 10
35.117974
 20
-107.995648
 30
0.0
 11
35.117974
 21
-107.995623
 31
0.0
  0
LWPOLYLINE
  5
785
330
1D
100
AcDbEntity
  8
0
100
AcDbPolyline
 90
        8
 70
     1
 43
0.0
 10
240.3499999999999
 20
6.499999999999999
 10
240.3499999999999
 20
-6.499999999999999
 42
0.4142123908030215
 10
240.85
 20
-7.000000000000001
 10
254.45
 20
-7.000000000000001
 42
0.4142135623730951
 10
254.9500000000001
 20
-6.499999999999999
 10
254.9500000000001
 20
6.499999999999999
 42
0.4142135623730951
 10
254.45
 20
7.000000000000001
 10
240.85
 20
7.000000000000001
 42
0.4142123908030215
  0
LWPOLYLINE
  5
786
330
1D
100
AcDbEntity
  8
0
100
AcDbPolyline
 90
        8
 70
     1
 43
0.0
 10
221.3
 20
6.499999999999999
 10
221.3
 20
-6.499999999999999
 42
0.4142123908030423
 10
221.8
 20
-7.000000000000001
 10
235.3999999999999
 20
-7.000000000000001
 42
0.4142135623731159
 10
235.9000000000001
 20
-6.499999999999999
 10
235.9000000000001
 20
6.499999999999999
 42
0.4142135623730951
 10
235.4
 20
7.000000000000001
 10
221.8
 20
7.000000000000001
 42
0.4142123908030632
  0
LWPOLYLINE
  5
787
330
1D
100
AcDbEntity
  8
0
100
AcDbPolyline
 90
        8
 70
     1
 43
0.0
 10
49.85
 20
6.499999999999999
 10
49.85
 20
-6.499999999999999
 42
0.4142123908030527
 10
50.35
 20
-7.000000000000001
 10
63.95
 20
-7.000000000000001
 42
0.4142135623731002
 10
64.45
 20
-6.499999999999999
 10
64.45
 20
6.499999999999999
 42
0.4142135623730951
 10
63.95
 20
7.000000000000001
 10
50.35
 20
7.000000000000001
 42
0.4142123908030527
  0
LWPOLYLINE
  5
788
330
1D
100
AcDbEntity
  8
0
100
AcDbPolyline
 90
        8
 70
     1
 43
0.0
 10
202.25
 20
6.499999999999999
 10
202.25
 20
-6.499999999999999
 42
0.4142123908030215
 10
202.7499999999999
 20
-7.000000000000001
 10
216.35
 20
-7.000000000000001
 42
0.4142135623730951
 10
216.8500000000001
 20
-6.499999999999999
 10
216.8500000000001
 20
6.499999999999999
 42
0.4142135623730951
 10
216.35
 20
7.000000000000001
 10
202.7499999999999
 20
7.000000000000001
 42
0.4142123908030215
  0
LWPOLYLINE
  5
789
330
1D
100
AcDbEntity
  8
0
100
AcDbPolyline
 90
        8
 70
     1
 43
0.0
 10
173.675
 20
6.499999999999999
 10
173.675
 20
-6.499999999999999
 42
0.4142123908030215
 10
174.175
 20
-7.000000000000001
 10
187.775
 20
-7.000000000000001
 42
0.4142135623730951
 10
188.275
 20
-6.499999999999999
 10
188.275
 20
6.499999999999999
 42
0.4142135623730951
 10
187.775
 20
7.000000000000001
 10
174.175
 20
7.000000000000001
 42
0.4142123908030215
  0
LWPOLYLINE
  5
78A
330
1D
100
AcDbEntity
  8
0
100
AcDbPolyline
 90
        8
 70
     1
 43
0.0
 10
87.95
 20
6.499999999999999
 10
87.95
 20
-6.499999999999999
 42
0.4142123908030527
 10
88.45
 20
-7.000000000000001
 10
102.05
 20
-7.000000000000001
 42
0.4142135623730847
 10
102.55
 20
-6.499999999999999
 10
102.55
 20
6.499999999999999
 42
0.4142135623730951
 10
102.05
 20
7.000000000000001
 10
88.44999999999999
 20
7.000000000000001
 42
0.4142123908030423
  0
LWPOLYLINE
  5
78B
330
1D
100
AcDbEntity
  8
0
100
AcDbPolyline
 90
        8
 70
     1
 43
0.0
 10
30.8
 20
6.499999999999999
 10
30.8
 20
-6.499999999999999
 42
0.4142123908030476
 10
31.3
 20
-7.000000000000001
 10
44.90000000000001
 20
-7.000000000000001
 42
0.4142135623730951
 10
45.4
 20
-6.499999999999999
 10
45.4
 20
6.499999999999999
 42
0.4142135623730951
 10
44.90000000000001
 20
7.000000000000001
 10
31.3
 20
7.000000000000001
 42
0.4142123908030501
  0
LWPOLYLINE
  5
78C
330
1D
100
AcDbEntity
  8
0
100
AcDbPolyline
 90
        8
 70
     1
 43
0.0
 10
68.89999999999999
 20
6.499999999999999
 10
68.89999999999999
 20
-6.499999999999999
 42
0.4142123908030476
 10
69.39999999999999
 20
-7.000000000000001
 10
83.0
 20
-7.000000000000001
 42
0.4142135623730951
 10
83.5
 20
-6.499999999999999
 10
83.5
 20
6.499999999999999
 42
0.4142135623730951
 10
83.0
 20
7.000000000000001
 10
69.4
 20
7.000000000000001
 42
0.4142123908030527
  0
CIRCLE
  5
78D
330
1D
100
AcDbEntity
  8
0
100
AcDbCircle
 10
273.6
 20
-31.0125
 30
0.0
 40
1.0
  0
LWPOLYLINE
  5
78E
330
1D
100
AcDbEntity
  8
0
100
AcDbPolyline
 90
        8
 70
     1
 43
0.0
 10
241.2
 20
-17.3375
 10
241.2
 20
-29.0555
 10
244.2
 20
-30.7875
 10
270.2
 20
-30.7875
 10
273.2
 20
-29.0555
 10
273.2
 20
-17.3375
 42
0.4142135623730951
 10
272.7
 20
-16.8375
 10
241.7
 20
-16.8375
 42
0.4142123908030632
  0
LWPOLYLINE
  5
78F
330
1D
100
AcDbEntity
  8
0
100
AcDbPolyline
 90
        8
 70
     1
 43
0.0
 10
16.5125
 20
-74.4625
 10
16.5125
 20
-87.4625
 42
0.4142123908030501
 10
17.0125
 20
-87.96249999999999
 10
30.6125
 20
-87.96249999999999
 42
0.4142135623730951
 10
31.1125
 20
-87.4625
 10
31.1125
 20
-74.4625
 42
0.4142135623730951
 10
30.6125
 20
-73.9625
 10
17.0125
 20
-73.9625
 42
0.4142123908030449
  0
LWPOLYLINE
  5
790
330
1D
100
AcDbEntity
  8
0
100
AcDbPolyline
 90
        8
 70
     1
 43
0.0
 10
-4.918750000000001
 20
-74.4625
 10
-4.918750000000001
 20
-87.4625
 42
0.4142123908030518
 10
-4.41875
 20
-87.96249999999999
 10
9.18125
 20
-87.96249999999999
 42
0.4142135623730951
 10
9.681250000000002
 20
-87.4625
 10
9.681250000000002
 20
-74.4625
 42
0.4142135623730951
 10
9.18125
 20
-73.9625
 10
-4.41875
 20
-73.9625
 42
0.4142123908030466
  0
LWPOLYLINE
  5
791
330
1D
100
AcDbEntity
  8
0
100
AcDbPolyline
 90
        8
 70
     1
 43
0.0
 10
259.4
 20
-74.4625
 10
259.4
 20
-87.4625
 42
0.4142123908030449
 10
259.9
 20
-87.96249999999999
 10
273.5
 20
-87.96249999999999
 42
0.4142135623730951
 10
274.0
 20
-87.4625
 10
274.0
 20
-74.4625
 42
0.4142135623730951
 10
273.5
 20
-73.9625
 10
259.9
 20
-73.9625
 42
0.4142123908030397
  0
LWPOLYLINE
  5
792
330
1D
100
AcDbEntity
  8
0
100
AcDbPolyline
 90
        8
 70
     1
 43
0.0
 10
233.208788
 20
-74.462548
 10
233.208788
 20
-87.462548
 42
0.4142123908030345
 10
233.708788
 20
-87.962548
 10
247.308788
 20
-87.962548
 42
0.4142135623730951
 10
247.808788
 20
-87.462548
 10
247.808788
 20
-74.462548
 42
0.4142135623730951
 10
247.308788
 20
-73.962548
 10
233.708788
 20
-73.962548
 42
0.4142123908030397
  0
CIRCLE
  5
793
330
1D
100
AcDbEntity
  8
0
100
AcDbCircle
 10
238.39375
 20
-69.11250000000001
 30
0.0
 40
1.0
  0
LWPOLYLINE
  5
794
330
1D
100
AcDbEntity
  8
0
100
AcDbPolyline
 90
        8
 70
     1
 43
0.0
 10
238.79375
 20
-55.4375
 10
238.79375
 20
-67.1555
 10
241.79375
 20
-68.8875
 10
267.79375
 20
-68.8875
 10
270.79375
 20
-67.1555
 10
270.79375
 20
-55.4375
 42
0.4142135623730951
 10
270.29375
 20
-54.9375
 10
239.29375
 20
-54.9375
 42
0.4142123908030397
  0
LWPOLYLINE
  5
795
330
1D
100
AcDbEntity
  8
0
100
AcDbPolyline
 90
        8
 70
     1
 43
0.0
 10
254.6375
 20
-36.3625
 10
254.6375
 20
-49.3625
 42
0.4142123908030605
 10
255.1375
 20
-49.8625
 10
268.7375
 20
-49.8625
 42
0.4142135623730951
 10
269.2375
 20
-49.3625
 10
269.2375
 20
-36.3625
 42
0.4142135623730951
 10
268.7375
 20
-35.8625
 10
255.1375
 20
-35.8625
 42
0.4142123908030632
  0
CIRCLE
  5
796
330
1D
100
AcDbEntity
  8
0
100
AcDbCircle
 10
271.19375
 20
-69.11250000000001
 30
0.0
 40
1.0
  0
ARC
  5
797
330
1D
100
AcDbEntity
  8
BLACK
100
AcDbCircle
 10
321.812501
 20
-87.462499
 30
0.0
 40
0.500001000001
100
AcDbArc
 50
180.00011459
 51
269.99988541
  0
LINE
  5
798
330
1D
100
AcDbEntity
  8
BLACK
  6
Continuous
100
AcDbLine
 10
321.8125
 20
-87.96249999999999
 30
0.0
 11
335.4125
 21
-87.96249999999999
 31
0.0
  0
ARC
  5
799
330
1D
100
AcDbEntity
  8
BLACK
100
AcDbCircle
 10
335.4125
 20
-87.46249999999999
 30
0.0
 40
0.5
100
AcDbArc
 50
270.0
 51
0.0
  0
LINE
  5
79A
330
1D
100
AcDbEntity
  8
BLACK
  6
Continuous
100
AcDbLine
 10
335.9125
 20
-87.46249999999999
 30
0.0
 11
335.9125
 21
-74.46249999999999
 31
0.0
  0
ARC
  5
79B
330
1D
100
AcDbEntity
  8
BLACK
100
AcDbCircle
 10
335.4125
 20
-74.46249999999999
 30
0.0
 40
0.5
100
AcDbArc
 50
0.0
 51
90.0
  0
LINE
  5
79C
330
1D
100
AcDbEntity
  8
BLACK
  6
Continuous
100
AcDbLine
 10
335.4125
 20
-73.96249999999999
 30
0.0
 11
321.8125
 21
-73.96249999999999
 31
0.0
  0
ARC
  5
79D
330
1D
100
AcDbEntity
  8
BLACK
100
AcDbCircle
 10
321.812501
 20
-74.462501
 30
0.0
 40
0.500001000001
100
AcDbArc
 50
90.00011459
 51
179.99988541
  0
LINE
  5
79E
330
1D
100
AcDbEntity
  8
BLACK
  6
Continuous
100
AcDbLine
 10
321.3125
 20
-74.46249999999999
 30
0.0
 11
321.3125
 21
-87.46249999999999
 31
0.0
  0
ARC
  5
79F
330
1D
100
AcDbEntity
  8
BLACK
100
AcDbCircle
 10
283.712501
 20
-87.462499
 30
0.0
 40
0.500001000001
100
AcDbArc
 50
180.00011459
 51
269.99988541
  0
LINE
  5
7A0
330
1D
100
AcDbEntity
  8
BLACK
  6
Continuous
100
AcDbLine
 10
283.7125
 20
-87.96249999999999
 30
0.0
 11
297.3125
 21
-87.96249999999999
 31
0.0
  0
ARC
  5
7A1
330
1D
100
AcDbEntity
  8
BLACK
100
AcDbCircle
 10
297.3125
 20
-87.46249999999999
 30
0.0
 40
0.5
100
AcDbArc
 50
270.0
 51
0.0
  0
LINE
  5
7A2
330
1D
100
AcDbEntity
  8
BLACK
  6
Continuous
100
AcDbLine
 10
297.8125
 20
-87.46249999999999
 30
0.0
 11
297.8125
 21
-74.46249999999999
 31
0.0
  0
ARC
  5
7A3
330
1D
100
AcDbEntity
  8
BLACK
100
AcDbCircle
 10
297.3125
 20
-74.46249999999999
 30
0.0
 40
0.5
100
AcDbArc
 50
0.0
 51
90.0
  0
LINE
  5
7A4
330
1D
100
AcDbEntity
  8
BLACK
  6
Continuous
100
AcDbLine
 10
297.3125
 20
-73.96249999999999
 30
0.0
 11
283.7125
 21
-73.96249999999999
 31
0.0
  0
ARC
  5
7A5
330
1D
100
AcDbEntity
  8
BLACK
100
AcDbCircle
 10
283.712501
 20
-74.462501
 30
0.0
 40
0.500001000001
100
AcDbArc
 50
90.00011459
 51
179.99988541
  0
LINE
  5
7A6
330
1D
100
AcDbEntity
  8
BLACK
  6
Continuous
100
AcDbLine
 10
283.2125
 20
-74.46249999999999
 30
0.0
 11
283.2125
 21
-87.46249999999999
 31
0.0
  0
LINE
  5
7A7
330
1D
100
AcDbEntity
  8
BLACK
  6
Continuous
100
AcDbLine
 10
302.2625
 20
-55.41249999999999
 30
0.0
 11
302.2625
 21
-68.4125
 31
0.0
  0
ARC
  5
7A8
330
1D
100
AcDbEntity
  8
BLACK
100
AcDbCircle
 10
302.7625
 20
-68.4125
 30
0.0
 40
0.5
100
AcDbArc
 50
180.0
 51
270.0
  0
LINE
  5
7A9
330
1D
100
AcDbEntity
  8
BLACK
  6
Continuous
100
AcDbLine
 10
302.7625
 20
-68.9125
 30
0.0
 11
316.3625
 21
-68.9125
 31
0.0
  0
ARC
  5
7AA
330
1D
100
AcDbEntity
  8
BLACK
100
AcDbCircle
 10
316.3625
 20
-68.4125
 30
0.0
 40
0.5
100
AcDbArc
 50
270.0
 51
0.0
  0
LINE
  5
7AB
330
1D
100
AcDbEntity
  8
BLACK
  6
Continuous
100
AcDbLine
 10
316.8625
 20
-68.4125
 30
0.0
 11
316.8625
 21
-55.41249999999999
 31
0.0
  0
ARC
  5
7AC
330
1D
100
AcDbEntity
  8
BLACK
100
AcDbCircle
 10
316.3625
 20
-55.41249999999999
 30
0.0
 40
0.5
100
AcDbArc
 50
0.0
 51
90.0
  0
LINE
  5
7AD
330
1D
100
AcDbEntity
  8
BLACK
  6
Continuous
100
AcDbLine
 10
316.3625
 20
-54.91249999999999
 30
0.0
 11
302.7625
 21
-54.91249999999999
 31
0.0
  0
ARC
  5
7AE
330
1D
100
AcDbEntity
  8
BLACK
100
AcDbCircle
 10
302.7625
 20
-55.41249999999999
 30
0.0
 40
0.5
100
AcDbArc
 50
90.0
 51
180.0
  0
LINE
  5
7AF
330
1D
100
AcDbEntity
  8
BLACK
  6
Continuous
100
AcDbLine
 10
302.2625
 20
-93.51249899999999
 30
0.0
 11
302.2625
 21
-106.512499
 31
0.0
  0
ARC
  5
7B0
330
1D
100
AcDbEntity
  8
BLACK
100
AcDbCircle
 10
302.762501
 20
-106.512498
 30
0.0
 40
0.500001000001
100
AcDbArc
 50
180.00011459
 51
269.99988541
  0
LINE
  5
7B1
330
1D
100
AcDbEntity
  8
BLACK
  6
Continuous
100
AcDbLine
 10
302.7625
 20
-107.012499
 30
0.0
 11
316.3625
 21
-107.012499
 31
0.0
  0
ARC
  5
7B2
330
1D
100
AcDbEntity
  8
BLACK
100
AcDbCircle
 10
316.362499
 20
-106.512498
 30
0.0
 40
0.500001000001
100
AcDbArc
 50
270.00011459
 51
359.99988541
  0
LINE
  5
7B3
330
1D
100
AcDbEntity
  8
BLACK
  6
Continuous
100
AcDbLine
 10
316.8625
 20
-106.512499
 30
0.0
 11
316.8625
 21
-93.51249899999999
 31
0.0
  0
ARC
  5
7B4
330
1D
100
AcDbEntity
  8
BLACK
100
AcDbCircle
 10
316.362499
 20
-93.5125
 30
0.0
 40
0.500001000001
100
AcDbArc
 50
0.00011459
 51
89.99988541
  0
LINE
  5
7B5
330
1D
100
AcDbEntity
  8
BLACK
  6
Continuous
100
AcDbLine
 10
316.3625
 20
-93.01249899999999
 30
0.0
 11
302.7625
 21
-93.01249899999999
 31
0.0
  0
ARC
  5
7B6
330
1D
100
AcDbEntity
  8
BLACK
100
AcDbCircle
 10
302.762501
 20
-93.5125
 30
0.0
 40
0.500001000001
100
AcDbArc
 50
90.00011459
 51
179.99988541
  0
LINE
  5
7B7
330
1D
100
AcDbEntity
  8
BLACK
  6
Continuous
100
AcDbLine
 10
316.8625
 20
-87.462499
 30
0.0
 11
316.8625
 21
-74.462499
 31
0.0
  0
ARC
  5
7B8
330
1D
100
AcDbEntity
  8
BLACK
100
AcDbCircle
 10
316.362499
 20
-74.46249999999999
 30
0.0
 40
0.500001000001
100
AcDbArc
 50
0.00011459
 51
89.99988541
  0
LINE
  5
7B9
330
1D
100
AcDbEntity
  8
BLACK
  6
Continuous
100
AcDbLine
 10
316.3625
 20
-73.962499
 30
0.0
 11
302.7625
 21
-73.962499
 31
0.0
  0
ARC
  5
7BA
330
1D
100
AcDbEntity
  8
BLACK
100
AcDbCircle
 10
302.762501
 20
-74.46249999999999
 30
0.0
 40
0.500001000001
100
AcDbArc
 50
90.00011459
 51
179.99988541
  0
LINE
  5
7BB
330
1D
100
AcDbEntity
  8
BLACK
  6
Continuous
100
AcDbLine
 10
302.2625
 20
-74.462499
 30
0.0
 11
302.2625
 21
-87.462499
 31
0.0
  0
ARC
  5
7BC
330
1D
100
AcDbEntity
  8
BLACK
100
AcDbCircle
 10
302.762501
 20
-87.462498
 30
0.0
 40
0.500001000001
100
AcDbArc
 50
180.00011459
 51
269.99988541
  0
LINE
  5
7BD
330
1D
100
AcDbEntity
  8
BLACK
  6
Continuous
100
AcDbLine
 10
302.7625
 20
-87.962499
 30
0.0
 11
316.3625
 21
-87.962499
 31
0.0
  0
ARC
  5
7BE
330
1D
100
AcDbEntity
  8
BLACK
100
AcDbCircle
 10
316.362499
 20
-87.462498
 30
0.0
 40
0.500001000001
100
AcDbArc
 50
270.00011459
 51
359.99988541
  0
CIRCLE
  5
7BF
330
1D
100
AcDbEntity
  8
0
100
AcDbCircle
 10
61.9125
 20
-100.0125
 30
0.0
 40
1.0
  0
CIRCLE
  5
7C0
330
1D
100
AcDbEntity
  8
0
100
AcDbCircle
 10
251.221875
 20
-100.0125
 30
0.0
 40
1.0
  0
CIRCLE
  5
7C1
330
1D
100
AcDbEntity
  8
0
100
AcDbCircle
 10
228.6
 20
-100.0125
 30
0.0
 40
1.0
  0
CIRCLE
  5
7C2
330
1D
100
AcDbEntity
  8
0
100
AcDbCircle
 10
142.875
 20
-100.0125
 30
0.0
 40
1.0
  0
CIRCLE
  5
7C3
330
1D
100
AcDbEntity
  8
0
100
AcDbCircle
 10
204.7875
 20
-100.0125
 30
0.0
 40
1.0
  0
CIRCLE
  5
7C4
330
1D
100
AcDbEntity
  8
0
100
AcDbCircle
 10
39.290625
 20
-100.0125
 30
0.0
 40
1.0
  0
CIRCLE
  5
7C5
330
1D
100
AcDbEntity
  8
0
100
AcDbCircle
 10
15.478125
 20
-100.0125
 30
0.0
 40
1.0
  0
CIRCLE
  5
7C6
330
1D
100
AcDbEntity
  8
0
100
AcDbCircle
 10
171.45
 20
-100.0125
 30
0.0
 40
1.0
  0
CIRCLE
  5
7C7
330
1D
100
AcDbEntity
  8
0
100
AcDbCircle
 10
135.4625
 20
-107.2125
 30
0.0
 40
1.0
  0
CIRCLE
  5
7C8
330
1D
100
AcDbEntity
  8
0
100
AcDbCircle
 10
102.6625
 20
-107.2125
 30
0.0
 40
1.0
  0
LWPOLYLINE
  5
7C9
330
1D
100
AcDbEntity
  8
0
100
AcDbPolyline
 90
        8
 70
     1
 43
0.0
 10
103.0625
 20
-105.255525
 10
106.0625
 20
-106.987525
 10
132.0625
 20
-106.987525
 10
135.0625
 20
-105.255525
 10
135.0625
 20
-93.53752499999999
 42
0.4142135623730847
 10
134.5625
 20
-93.037525
 10
103.5625
 20
-93.037525
 42
0.4142123908030345
 10
103.0625
 20
-93.53752499999999
  0
LWPOLYLINE
  5
7CA
330
1D
100
AcDbEntity
  8
0
100
AcDbPolyline
 90
        8
 70
     1
 43
0.0
 10
163.9625
 20
-107.012525
 42
0.4142135623730951
 10
164.4625
 20
-106.512525
 10
164.4625
 20
-93.512525
 42
0.4142135623730951
 10
163.9625
 20
-93.01252500000002
 10
150.3625
 20
-93.01252500000002
 42
0.4142123908030449
 10
149.8625
 20
-93.512525
 10
149.8625
 20
-106.512525
 42
0.4142123908030658
 10
150.3625
 20
-107.012525
  0
LWPOLYLINE
  5
7CB
330
1D
100
AcDbEntity
  8
0
100
AcDbPolyline
 90
        8
 70
     1
 43
0.0
 10
178.4375
 20
-93.512525
 10
178.4375
 20
-106.512525
 42
0.4142123908030762
 10
178.9375
 20
-107.012525
 10
192.5375
 20
-107.012525
 42
0.4142135623730951
 10
193.0375
 20
-106.512525
 10
193.0375
 20
-93.512525
 42
0.4142135623730951
 10
192.5375
 20
-93.01252500000002
 10
178.9375
 20
-93.01252500000002
 42
0.4142123908030554
  0
LWPOLYLINE
  5
7CC
330
1D
100
AcDbEntity
  8
0
100
AcDbPolyline
 90
        8
 70
     1
 43
0.0
 10
255.1375
 20
-107.012525
 10
268.7375
 20
-107.012525
 42
0.4142135623730951
 10
269.2375000000001
 20
-106.512525
 10
269.2375000000001
 20
-93.512525
 42
0.4142135623730951
 10
268.7375
 20
-93.01252500000002
 10
255.1375
 20
-93.01252500000002
 42
0.4142123908030138
 10
254.6374999999999
 20
-93.512525
 10
254.6374999999999
 20
-106.512525
 42
0.4142123908030345
  0
LWPOLYLINE
  5
7CD
330
1D
100
AcDbEntity
  8
0
100
AcDbPolyline
 90
        8
 70
     1
 43
0.0
 10
221.1125
 20
-93.01252500000002
 10
207.5125
 20
-93.01252500000002
 42
0.4142123908030138
 10
207.0124999999999
 20
-93.512525
 10
207.0124999999999
 20
-106.512525
 42
0.4142123908030345
 10
207.5125
 20
-107.012525
 10
221.1125
 20
-107.012525
 42
0.4142135623730951
 10
221.6125000000001
 20
-106.512525
 10
221.6125000000001
 20
-93.512525
 42
0.4142135623730951
  0
LWPOLYLINE
  5
7CE
330
1D
100
AcDbEntity
  8
0
100
AcDbPolyline
 90
        8
 70
     1
 43
0.0
 10
45.0875
 20
-106.5125
 42
0.4142123908030501
 10
45.5875
 20
-107.0125
 10
59.18749999999999
 20
-107.0125
 42
0.4142135623730951
 10
59.6875
 20
-106.5125
 10
59.6875
 20
-93.51249999999999
 42
0.4142135623730951
 10
59.18749999999999
 20
-93.01249999999999
 10
45.5875
 20
-93.01249999999999
 42
0.4142123908030293
 10
45.0875
 20
-93.51249999999999
  0
LWPOLYLINE
  5
7CF
330
1D
100
AcDbEntity
  8
0
100
AcDbPolyline
 90
        8
 70
     1
 43
0.0
 10
87.76249999999999
 20
-93.01249999999999
 10
74.1625
 20
-93.01249999999999
 42
0.4142123908030241
 10
73.6625
 20
-93.51249999999999
 10
73.6625
 20
-106.5125
 42
0.4142123908030501
 10
74.1625
 20
-107.0125
 10
87.76250000000002
 20
-107.0125
 42
0.4142135623730847
 10
88.2625
 20
-106.5125
 10
88.2625
 20
-93.51249999999999
 42
0.4142135623730951
  0
LWPOLYLINE
  5
7D0
330
1D
100
AcDbEntity
  8
0
100
AcDbPolyline
 90
        8
 70
     1
 43
0.0
 10
11.5625
 20
-93.01249999999997
 10
-2.037499999988394
 20
-93.01250000000002
 42
0.4142123908166447
 10
-2.537499999999998
 20
-93.51250000001161
 10
-2.537499999999998
 20
-106.5124999999884
 42
0.4142123908166446
 10
-2.037499999988394
 20
-107.0125
 10
11.5625
 20
-107.0125
 42
0.4142135623730951
 10
12.0625
 20
-106.5125
 10
12.0625
 20
-93.51249999999999
 42
0.4142135623730951
  0
ENDSEC
  0
SECTION
  2
OBJECTS
  0
DICTIONARY
  5
C
330
0
100
AcDbDictionary
281
     1
  3
ACAD_COLOR
350
77E
  3
ACAD_DETAILVIEWSTYLE
350
77C
  3
ACAD_GROUP
350
D
  3
ACAD_LAYOUT
350
1A
  3
ACAD_MATERIAL
350
76C
  3
ACAD_MLEADERSTYLE
350
772
  3
ACAD_MLINESTYLE
350
17
  3
ACAD_PLOTSETTINGS
350
19
  3
ACAD_PLOTSTYLENAME
350
E
  3
ACAD_SCALELIST
350
73D
  3
ACAD_SECTIONVIEWSTYLE
350
77D
  3
ACAD_TABLESTYLE
350
770
  3
ACAD_VISUALSTYLE
350
753
  3
AcDbVariableDictionary
350
774
  3
ACDB_RECOMPOSE_DATA
350
7D3
  3
EZDXF_META
350
783
  0
DICTIONARY
  5
77E
330
C
100
AcDbDictionary
281
     1
  0
DICTIONARY
  5
77C
102
{ACAD_REACTORS
330
C
102
}
330
C
100
AcDbDictionary
281
     1
  0
DICTIONARY
  5
D
102
{ACAD_REACTORS
330
C
102
}
330
C
100
AcDbDictionary
281
     1
  0
DICTIONARY
  5
1A
102
{ACAD_REACTORS
330
C
102
}
330
C
100
AcDbDictionary
281
     1
  3
Layout1
350
1C
  3
Model
350
1E
  0
DICTIONARY
  5
76C
102
{ACAD_REACTORS
330
C
102
}
330
C
100
AcDbDictionary
281
     1
  3
ByBlock
350
76E
  3
ByLayer
350
76D
  3
Global
350
76F
  0
DICTIONARY
  5
772
102
{ACAD_REACTORS
330
C
102
}
330
C
100
AcDbDictionary
281
     1
  3
Standard
350
773
  0
DICTIONARY
  5
17
102
{ACAD_REACTORS
330
C
102
}
330
C
100
AcDbDictionary
281
     1
  3
Standard
350
18
  0
DICTIONARY
  5
19
102
{ACAD_REACTORS
330
C
102
}
330
C
100
AcDbDictionary
281
     1
  0
ACDBDICTIONARYWDFLT
  5
E
102
{ACAD_REACTORS
330
C
102
}
330
C
100
AcDbDictionary
281
     1
  3
Normal
350
F
100
AcDbDictionaryWithDefault
340
F
  0
DICTIONARY
  5
73D
102
{ACAD_REACTORS
330
C
102
}
330
C
100
AcDbDictionary
281
     1
  3
A0
350
73E
  3
A1
350
73F
  3
A2
350
740
  3
A3
350
741
  3
A4
350
742
  3
A5
350
743
  3
A6
350
744
  3
A7
350
745
  3
A8
350
746
  3
A9
350
747
  3
B0
350
748
  3
B1
350
749
  3
B2
350
74A
  3
B3
350
74B
  3
B4
350
74C
  3
B5
350
74D
  3
B6
350
74E
  0
DICTIONARY
  5
77D
102
{ACAD_REACTORS
330
C
102
}
330
C
100
AcDbDictionary
281
     1
  0
DICTIONARY
  5
770
102
{ACAD_REACTORS
330
C
102
}
330
C
100
AcDbDictionary
281
     1
  3
Standard
350
771
  0
DICTIONARY
  5
753
102
{ACAD_REACTORS
330
C
102
}
330
C
100
AcDbDictionary
281
     1
  3
2dWireframe
350
758
  3
Basic
350
75B
  3
Brighten
350
75F
  3
ColorChange
350
763
  3
Conceptual
350
75D
  3
Dim
350
75E
  3
EdgeColorOff
350
766
  3
Facepattern
350
762
  3
Flat
350
754
  3
FlatWithEdges
350
755
  3
Gouraud
350
756
  3
GouraudWithEdges
350
757
  3
Hidden
350
75A
  3
JitterOff
350
764
  3
Linepattern
350
761
  3
OverhangOff
350
765
  3
Realistic
350
75C
  3
Shaded
350
76B
  3
Shaded with edges
350
76A
  3
Shades of Gray
350
767
  3
Sketchy
350
768
  3
Thicken
350
760
  3
Wireframe
350
759
  3
X-Ray
350
769
  0
DICTIONARY
  5
774
102
{ACAD_REACTORS
330
C
102
}
330
C
100
AcDbDictionary
281
     1
  3
CANNOSCALE
350
775
  3
CMLEADERSTYLE
350
77A
  3
CTABLESTYLE
350
779
  3
MSLTSCALE
350
77B
  0
XRECORD
  5
7D3
102
{ACAD_REACTORS
330
C
102
}
330
C
100
AcDbXrecord
280
     1
 90
        1
330
771
  0
DICTIONARY
  5
783
330
C
100
AcDbDictionary
280
     1
281
     1
  3
WRITTEN_BY_EZDXF
360
784
  0
LAYOUT
  5
1C
102
{ACAD_REACTORS
330
1A
102
}
330
1A
100
AcDbPlotSettings
  1

  2
none_device
  4

  6

 40
0.0
 41
0.0
 42
0.0
 43
0.0
 44
0.0
 45
0.0
 46
0.0
 47
0.0
 48
0.0
 49
0.0
140
0.0
141
0.0
142
1.0
143
1.0
 70
   688
 72
     0
 73
     0
 74
     5
  7

 75
    16
 76
     0
 77
     2
 78
   300
147
1.0
148
0.0
149
0.0
100
AcDbLayout
  1
Layout1
 70
     1
 71
     1
 10
0.0
 20
0.0
 11
12.0
 21
9.0
 12
0.0
 22
0.0
 32
0.0
 14
1.000000000000000E+20
 24
1.000000000000000E+20
 34
1.000000000000000E+20
 15
-1.000000000000000E+20
 25
-1.000000000000000E+20
 35
-1.000000000000000E+20
146
0.0
 13
0.0
 23
0.0
 33
0.0
 16
1.0
 26
0.0
 36
0.0
 17
0.0
 27
1.0
 37
0.0
 76
     0
330
1B
  0
LAYOUT
  5
1E
102
{ACAD_REACTORS
330
1A
102
}
330
1A
100
AcDbPlotSettings
  1

  2
none_device
  4
Letter_(8.50_x_11.00_Inches)
  6

 40
6.35
 41
6.35
 42
6.35000508
 43
6.35000508
 44
215.9
 45
279.4
 46
0.0
 47
0.0
 48
0.0
 49
0.0
140
0.0
141
0.0
142
1.0
143
1.0
 70
  1712
 72
     0
 73
     0
 74
     0
  7

 75
     0
 76
     0
 77
     2
 78
   300
147
1.0
148
0.0
149
0.0
100
AcDbLayout
  1
Model
 70
     1
 71
     0
 10
0.0
 20
0.0
 11
12.0
 21
9.0
 12
0.0
 22
0.0
 32
0.0
 14
1.000000000000000E+20
 24
1.000000000000000E+20
 34
1.000000000000000E+20
 15
-1.000000000000000E+20
 25
-1.000000000000000E+20
 35
-1.000000000000000E+20
146
0.0
 13
0.0
 23
0.0
 33
0.0
 16
1.0
 26
0.0
 36
0.0
 17
0.0
 27
1.0
 37
0.0
 76
     0
330
1D
331
442
  0
MATERIAL
  5
76E
102
{ACAD_REACTORS
330
76C
102
}
330
76C
100
AcDbMaterial
  1
ByBlock
 72
     1
273
     1
 94
      127
  0
MATERIAL
  5
76D
102
{ACAD_REACTORS
330
76C
102
}
330
76C
100
AcDbMaterial
  1
ByLayer
 72
     1
273
     1
 94
      127
  0
MATERIAL
  5
76F
102
{ACAD_REACTORS
330
76C
102
}
330
76C
100
AcDbMaterial
  1
Global
 72
     1
273
     1
 94
      127
  0
MLEADERSTYLE
  5
773
102
{ACAD_REACTORS
330
772
102
}
330
772
100
AcDbMLeaderStyle
179
     2
170
     2
171
     1
172
     0
 90
        2
 40
0.0
 41
0.0
173
     1
 91
-1056964608
340
14
 92
       -2
290
     1
 42
2.0
291
     1
 43
8.0
  3
Standard
341
0
 44
4.0
300

342
11
174
     1
178
     6
175
     1
176
     0
 93
-1056964608
 45
4.0
292
     0
297
     0
 46
4.0
343
0
 94
-1056964608
 47
1.0
 49
1.0
140
1.0
293
     1
141
0.0
294
     1
177
     0
142
1.0
295
     0
296
     0
143
3.75
271
     0
272
     9
273
     9
298
     0
  0
MLINESTYLE
  5
18
102
{ACAD_REACTORS
330
17
102
}
330
17
100
AcDbMlineStyle
  2
Standard
 70
     0
  3

 62
   256
 51
90.0
 52
90.0
 71
     2
 49
0.5
 62
   256
  6
BYLAYER
 49
-0.5
 62
   256
  6
BYLAYER
  0
ACDBPLACEHOLDER
  5
F
102
{ACAD_REACTORS
330
E
102
}
330
E
  0
SCALE
  5
73E
102
{ACAD_REACTORS
330
73D
102
}
330
73D
100
AcDbScale
 70
     0
300
1:1
140
1.0
141
1.0
290
     1
  0
SCALE
  5
73F
102
{ACAD_REACTORS
330
73D
102
}
330
73D
100
AcDbScale
 70
     0
300
1:2
140
1.0
141
2.0
290
     0
  0
SCALE
  5
740
102
{ACAD_REACTORS
330
73D
102
}
330
73D
100
AcDbScale
 70
     0
300
1:4
140
1.0
141
4.0
290
     0
  0
SCALE
  5
741
102
{ACAD_REACTORS
330
73D
102
}
330
73D
100
AcDbScale
 70
     0
300
1:5
140
1.0
141
5.0
290
     0
  0
SCALE
  5
742
102
{ACAD_REACTORS
330
73D
102
}
330
73D
100
AcDbScale
 70
     0
300
1:8
140
1.0
141
8.0
290
     0
  0
SCALE
  5
743
102
{ACAD_REACTORS
330
73D
102
}
330
73D
100
AcDbScale
 70
     0
300
1:10
140
1.0
141
10.0
290
     0
  0
SCALE
  5
744
102
{ACAD_REACTORS
330
73D
102
}
330
73D
100
AcDbScale
 70
     0
300
1:16
140
1.0
141
16.0
290
     0
  0
SCALE
  5
745
102
{ACAD_REACTORS
330
73D
102
}
330
73D
100
AcDbScale
 70
     0
300
1:20
140
1.0
141
20.0
290
     0
  0
SCALE
  5
746
102
{ACAD_REACTORS
330
73D
102
}
330
73D
100
AcDbScale
 70
     0
300
1:30
140
1.0
141
30.0
290
     0
  0
SCALE
  5
747
102
{ACAD_REACTORS
330
73D
102
}
330
73D
100
AcDbScale
 70
     0
300
1:40
140
1.0
141
40.0
290
     0
  0
SCALE
  5
748
102
{ACAD_REACTORS
330
73D
102
}
330
73D
100
AcDbScale
 70
     0
300
1:50
140
1.0
141
50.0
290
     0
  0
SCALE
  5
749
102
{ACAD_REACTORS
330
73D
102
}
330
73D
100
AcDbScale
 70
     0
300
1:100
140
1.0
141
100.0
290
     0
  0
SCALE
  5
74A
102
{ACAD_REACTORS
330
73D
102
}
330
73D
100
AcDbScale
 70
     0
300
2:1
140
2.0
141
1.0
290
     0
  0
SCALE
  5
74B
102
{ACAD_REACTORS
330
73D
102
}
330
73D
100
AcDbScale
 70
     0
300
4:1
140
4.0
141
1.0
290
     0
  0
SCALE
  5
74C
102
{ACAD_REACTORS
330
73D
102
}
330
73D
100
AcDbScale
 70
     0
300
8:1
140
8.0
141
1.0
290
     0
  0
SCALE
  5
74D
102
{ACAD_REACTORS
330
73D
102
}
330
73D
100
AcDbScale
 70
     0
300
10:1
140
10.0
141
1.0
290
     0
  0
SCALE
  5
74E
102
{ACAD_REACTORS
330
73D
102
}
330
73D
100
AcDbScale
 70
     0
300
100:1
140
100.0
141
1.0
290
     0
  0
TABLESTYLE
  5
771
102
{ACAD_REACTORS
330
770
102
}
102
{ACAD_XDICTIONARY
360
7D1
102
}
330
770
100
AcDbTableStyle
  3
Standard
 70
     0
 71
     0
 40
0.06
 41
0.06
280
     0
281
     0
  7
Standard
140
4.5
170
     2
 62
     0
 63
   257
283
     0
 90
        4
 91
        0
  1

274
    -2
284
     1
 64
     0
275
    -2
285
     1
 65
     0
276
    -2
286
     1
 66
     0
277
    -2
287
     1
 67
     0
278
    -2
288
     1
 68
     0
279
    -2
289
     1
 69
     0
  7
Standard
140
6.0
170
     5
 62
     0
 63
   257
283
     0
 90
        4
 91
        0
  1

274
    -2
284
     1
 64
     0
275
    -2
285
     1
 65
     0
276
    -2
286
     1
 66
     0
277
    -2
287
     1
 67
     0
278
    -2
288
     1
 68
     0
279
    -2
289
     1
 69
     0
  7
Standard
140
4.5
170
     5
 62
     0
 63
   257
283
     0
 90
        4
 91
        0
  1

274
    -2
284
     1
 64
     0
275
    -2
285
     1
 65
     0
276
    -2
286
     1
 66
     0
277
    -2
287
     1
 67
     0
278
    -2
288
     1
 68
     0
279
    -2
289
     1
 69
     0
  0
VISUALSTYLE
  5
758
102
{ACAD_REACTORS
330
753
102
}
330
753
100
AcDbVisualStyle
  2
2dWireframe
 70
     4
177
     3
291
     0
 70
    58
 90
        0
176
     1
 90
        2
176
     1
 90
        0
176
     1
 90
        0
176
     1
 40
0.6
176
     1
 40
30.0
176
     1
 62
     7
420
 16777215
176
     1
 90
        1
176
     1
 90
        4
176
     1
 62
     7
176
     1
 62
   257
176
     1
 90
        1
176
     1
 90
        1
176
     1
 40
1.0
176
     1
 90
        0
176
     1
 62
   257
176
     1
 40
1.0
176
     1
 90
        1
176
     1
 90
        6
176
     1
 90
        2
176
     1
 62
     7
176
     1
 90
        5
176
     1
 90
        0
176
     1
 90
        0
176
     1
290
     0
176
     1
 90
        1
176
     1
 40
0.0
176
     1
 90
        0
176
     1
290
     1
176
     1
290
     1
176
     1
290
     0
176
     1
290
     0
176
     1
290
     0
176
     1
290
     0
176
     1
290
     0
176
     1
290
     0
176
     1
290
     0
176
     1
 90
       50
176
     1
 40
0.0
176
     1
 40
1.0
176
     1
 90
        0
176
     1
 62
    18
420
        0
176
     1
 90
       50
176
     1
 90
        3
176
     1
 62
     5
420
      255
176
     1
290
     0
176
     1
 90
       50
176
     1
 90
       50
176
     1
 90
       50
176
     1
290
     0
176
     1
 90
       50
176
     1
 62
   256
176
     0
 40
1.0
176
     0
 90
        2
176
     1
  1
strokes_ogs.tif
176
     1
290
     0
176
     1
 40
1.0
176
     1
 40
1.0
176
     1
  0
VISUALSTYLE
  5
75B
102
{ACAD_REACTORS
330
753
102
}
330
753
100
AcDbVisualStyle
  2
Basic
 70
     7
177
     3
291
     1
 70
    58
 90
        1
176
     1
 90
        0
176
     1
 90
        1
176
     1
 90
        0
176
     1
 40
0.6
176
     1
 40
30.0
176
     1
 62
     7
420
 16777215
176
     1
 90
        0
176
     1
 90
        4
176
     1
 62
     7
176
     1
 62
   257
176
     1
 90
        1
176
     1
 90
        1
176
     1
 40
1.0
176
     1
 90
        8
176
     1
 62
     7
176
     1
 40
1.0
176
     1
 90
        1
176
     1
 90
        6
176
     1
 90
        2
176
     1
 62
     7
176
     1
 90
        5
176
     1
 90
        0
176
     1
 90
        0
176
     1
290
     0
176
     1
 90
        1
176
     1
 40
0.0
176
     1
 90
        0
176
     1
290
     0
176
     1
290
     1
176
     1
290
     1
176
     1
290
     0
176
     1
290
     0
176
     1
290
     0
176
     1
290
     0
176
     1
290
     0
176
     1
290
     0
176
     1
 90
       50
176
     1
 40
0.0
176
     1
 40
1.0
176
     1
 90
        0
176
     1
 62
    18
420
        0
176
     1
 90
       50
176
     1
 90
        3
176
     1
 62
     5
420
      255
176
     1
290
     0
176
     1
 90
       50
176
     1
 90
       50
176
     1
 90
       50
176
     1
290
     0
176
     1
 90
       50
176
     1
 62
   256
176
     0
 40
1.0
176
     0
 90
        2
176
     1
  1
strokes_ogs.tif
176
     1
290
     0
176
     1
 40
1.0
176
     1
 40
1.0
176
     1
  0
VISUALSTYLE
  5
75F
102
{ACAD_REACTORS
330
753
102
}
330
753
100
AcDbVisualStyle
  2
Brighten
 70
    12
177
     3
291
     1
 70
    58
 90
        2
176
     1
 90
        2
176
     1
 90
        0
176
     1
 90
        0
176
     1
 40
0.6
176
     1
 40
30.0
176
     1
 62
     7
420
 16777215
176
     1
 90
        1
176
     1
 90
        4
176
     1
 62
     7
176
     1
 62
   257
176
     1
 90
        1
176
     1
 90
        1
176
     1
 40
1.0
176
     1
 90
        8
176
     1
 62
     7
176
     1
 40
1.0
176
     1
 90
        1
176
     1
 90
        6
176
     1
 90
        2
176
     1
 62
     7
176
     1
 90
        5
176
     1
 90
        0
176
     1
 90
        0
176
     1
290
     0
176
     1
 90
        1
176
     1
 40
50.0
176
     1
 90
        0
176
     1
290
     0
176
     1
290
     1
176
     1
290
     1
176
     1
290
     0
176
     1
290
     0
176
     1
290
     0
176
     1
290
     0
176
     1
290
     0
176
     1
290
     0
176
     1
 90
       50
176
     1
 40
0.0
176
     1
 40
1.0
176
     1
 90
        0
176
     1
 62
    18
420
        0
176
     1
 90
       50
176
     1
 90
        3
176
     1
 62
     5
420
      255
176
     1
290
     0
176
     1
 90
       50
176
     1
 90
       50
176
     1
 90
       50
176
     1
290
     0
176
     1
 90
       50
176
     1
 62
   256
176
     0
 40
1.0
176
     0
 90
        2
176
     1
  1
strokes_ogs.tif
176
     1
290
     0
176
     1
 40
1.0
176
     1
 40
1.0
176
     1
  0
VISUALSTYLE
  5
763
102
{ACAD_REACTORS
330
753
102
}
330
753
100
AcDbVisualStyle
  2
ColorChange
 70
    16
177
     3
291
     1
 70
    58
 90
        2
176
     1
 90
        2
176
     1
 90
        3
176
     1
 90
        0
176
     1
 40
0.6
176
     1
 40
30.0
176
     1
 62
     8
420
  8421504
176
     1
 90
        1
176
     1
 90
        4
176
     1
 62
     7
176
     1
 62
   257
176
     1
 90
        1
176
     1
 90
        1
176
     1
 40
1.0
176
     1
 90
        8
176
     1
 62
     8
420
  8421504
176
     1
 40
1.0
176
     1
 90
        1
176
     1
 90
        6
176
     1
 90
        2
176
     1
 62
     7
176
     1
 90
        5
176
     1
 90
        0
176
     1
 90
        0
176
     1
290
     0
176
     1
 90
        1
176
     1
 40
0.0
176
     1
 90
        0
176
     1
290
     0
176
     1
290
     1
176
     1
290
     1
176
     1
290
     0
176
     1
290
     0
176
     1
290
     0
176
     1
290
     0
176
     1
290
     0
176
     1
290
     0
176
     1
 90
       50
176
     1
 40
0.0
176
     1
 40
1.0
176
     1
 90
        0
176
     1
 62
    18
420
        0
176
     1
 90
       50
176
     1
 90
        3
176
     1
 62
     5
420
      255
176
     1
290
     0
176
     1
 90
       50
176
     1
 90
       50
176
     1
 90
       50
176
     1
290
     0
176
     1
 90
       50
176
     1
 62
   256
176
     0
 40
1.0
176
     0
 90
        2
176
     1
  1
strokes_ogs.tif
176
     1
290
     0
176
     1
 40
1.0
176
     1
 40
1.0
176
     1
  0
VISUALSTYLE
  5
75D
102
{ACAD_REACTORS
330
753
102
}
330
753
100
AcDbVisualStyle
  2
Conceptual
 70
     9
177
     3
291
     0
 70
    58
 90
        3
176
     1
 90
        2
176
     1
 90
        0
176
     1
 90
        0
176
     1
 40
0.6
176
     1
 40
30.0
176
     1
 62
     7
420
 16777215
176
     1
 90
        2
176
     1
 90
        2
176
     1
 62
     7
176
     1
 62
   257
176
     1
 90
        1
176
     1
 90
        1
176
     1
 40
179.0
176
     1
 90
        8
176
     1
 62
     7
176
     1
 40
1.0
176
     1
 90
        1
176
     1
 90
        6
176
     1
 90
        2
176
     1
 62
     7
176
     1
 90
        3
176
     1
 90
        0
176
     1
 90
        0
176
     1
290
     0
176
     1
 90
        1
176
     1
 40
0.0
176
     1
 90
        0
176
     1
290
     0
176
     1
290
     1
176
     1
290
     1
176
     1
290
     0
176
     1
290
     0
176
     1
290
     0
176
     1
290
     0
176
     1
290
     0
176
     1
290
     0
176
     1
 90
       50
176
     1
 40
0.0
176
     1
 40
1.0
176
     1
 90
        0
176
     1
 62
    18
420
        0
176
     1
 90
       50
176
     1
 90
        3
176
     1
 62
     5
420
      255
176
     1
290
     0
176
     1
 90
       50
176
     1
 90
       50
176
     1
 90
       50
176
     1
290
     0
176
     1
 90
       50
176
     1
 62
   256
176
     0
 40
1.0
176
     0
 90
        2
176
     1
  1
strokes_ogs.tif
176
     1
290
     0
176
     1
 40
1.0
176
     1
 40
1.0
176
     1
  0
VISUALSTYLE
  5
75E
102
{ACAD_REACTORS
330
753
102
}
330
753
100
AcDbVisualStyle
  2
Dim
 70
    11
177
     3
291
     1
 70
    58
 90
        2
176
     1
 90
        2
176
     1
 90
        0
176
     1
 90
        0
176
     1
 40
0.6
176
     1
 40
30.0
176
     1
 62
     7
420
 16777215
176
     1
 90
        1
176
     1
 90
        4
176
     1
 62
     7
176
     1
 62
   257
176
     1
 90
        1
176
     1
 90
        1
176
     1
 40
1.0
176
     1
 90
        8
176
     1
 62
     7
176
     1
 40
1.0
176
     1
 90
        1
176
     1
 90
        6
176
     1
 90
        2
176
     1
 62
     7
176
     1
 90
        5
176
     1
 90
        0
176
     1
 90
        0
176
     1
290
     0
176
     1
 90
        1
176
     1
 40
-50.0
176
     1
 90
        0
176
     1
290
     0
176
     1
290
     1
176
     1
290
     1
176
     1
290
     0
176
     1
290
     0
176
     1
290
     0
176
     1
290
     0
176
     1
290
     0
176
     1
290
     0
176
     1
 90
       50
176
     1
 40
0.0
176
     1
 40
1.0
176
     1
 90
        0
176
     1
 62
    18
420
        0
176
     1
 90
       50
176
     1
 90
        3
176
     1
 62
     5
420
      255
176
     1
290
     0
176
     1
 90
       50
176
     1
 90
       50
176
     1
 90
       50
176
     1
290
     0
176
     1
 90
       50
176
     1
 62
   256
176
     0
 40
1.0
176
     0
 90
        2
176
     1
  1
strokes_ogs.tif
176
     1
290
     0
176
     1
 40
1.0
176
     1
 40
1.0
176
     1
  0
VISUALSTYLE
  5
766
102
{ACAD_REACTORS
330
753
102
}
330
753
100
AcDbVisualStyle
  2
EdgeColorOff
 70
    22
177
     3
291
     1
 70
    58
 90
        2
176
     0
 90
        2
176
     0
 90
        0
176
     0
 90
        0
176
     0
 40
0.6
176
     0
 40
30.0
176
     0
 62
     7
420
 16777215
176
     0
 90
        1
176
     0
 90
        4
176
     0
 62
     7
176
     0
 62
   257
176
     0
 90
        1
176
     0
 90
        1
176
     0
 40
1.0
176
     0
 90
        8
176
     2
 62
     7
176
     0
 40
1.0
176
     0
 90
        1
176
     0
 90
        6
176
     0
 90
        2
176
     0
 62
     7
176
     0
 90
        5
176
     0
 90
        0
176
     0
 90
        0
176
     0
290
     0
176
     0
 90
        1
176
     0
 40
0.0
176
     0
 90
        0
176
     0
290
     0
176
     0
290
     1
176
     0
290
     1
176
     0
290
     0
176
     0
290
     0
176
     0
290
     0
176
     0
290
     0
176
     0
290
     0
176
     0
290
     0
176
     0
 90
       50
176
     0
 40
0.0
176
     0
 40
1.0
176
     0
 90
        0
176
     0
 62
    18
420
        0
176
     0
 90
       50
176
     0
 90
        3
176
     0
 62
     5
420
      255
176
     0
290
     0
176
     0
 90
       50
176
     0
 90
       50
176
     0
 90
       50
176
     0
290
     0
176
     0
 90
       50
176
     0
 62
   256
176
     0
 40
1.0
176
     0
 90
        2
176
     0
  1
strokes_ogs.tif
176
     0
290
     0
176
     0
 40
1.0
176
     0
 40
1.0
176
     0
  0
VISUALSTYLE
  5
762
102
{ACAD_REACTORS
330
753
102
}
330
753
100
AcDbVisualStyle
  2
Facepattern
 70
    15
177
     3
291
     1
 70
    58
 90
        2
176
     1
 90
        2
176
     1
 90
        0
176
     1
 90
        0
176
     1
 40
0.6
176
     1
 40
30.0
176
     1
 62
     7
420
 16777215
176
     1
 90
        1
176
     1
 90
        4
176
     1
 62
     7
176
     1
 62
   257
176
     1
 90
        1
176
     1
 90
        1
176
     1
 40
1.0
176
     1
 90
        8
176
     1
 62
     7
176
     1
 40
1.0
176
     1
 90
        1
176
     1
 90
        6
176
     1
 90
        2
176
     1
 62
     7
176
     1
 90
        5
176
     1
 90
        0
176
     1
 90
        0
176
     1
290
     0
176
     1
 90
        1
176
     1
 40
0.0
176
     1
 90
        0
176
     1
290
     0
176
     1
290
     1
176
     1
290
     1
176
     1
290
     0
176
     1
290
     0
176
     1
290
     0
176
     1
290
     0
176
     1
290
     0
176
     1
290
     0
176
     1
 90
       50
176
     1
 40
0.0
176
     1
 40
1.0
176
     1
 90
        0
176
     1
 62
    18
420
        0
176
     1
 90
       50
176
     1
 90
        3
176
     1
 62
     5
420
      255
176
     1
290
     0
176
     1
 90
       50
176
     1
 90
       50
176
     1
 90
       50
176
     1
290
     0
176
     1
 90
       50
176
     1
 62
   256
176
     0
 40
1.0
176
     0
 90
        2
176
     1
  1
strokes_ogs.tif
176
     1
290
     0
176
     1
 40
1.0
176
     1
 40
1.0
176
     1
  0
VISUALSTYLE
  5
754
102
{ACAD_REACTORS
330
753
102
}
330
753
100
AcDbVisualStyle
  2
Flat
 70
     0
177
     3
291
     1
 70
    58
 90
        2
176
     1
 90
        1
176
     1
 90
        1
176
     1
 90
        2
176
     1
 40
0.6
176
     1
 40
30.0
176
     1
 62
     7
420
 16777215
176
     1
 90
        0
176
     1
 90
        0
176
     1
 62
     7
176
     1
 62
   257
176
     1
 90
        1
176
     1
 90
        1
176
     1
 40
1.0
176
     1
 90
        8
176
     1
 62
     7
176
     1
 40
1.0
176
     1
 90
        1
176
     1
 90
        6
176
     1
 90
        2
176
     1
 62
     7
176
     1
 90
        5
176
     1
 90
        0
176
     1
 90
        0
176
     1
290
     0
176
     1
 90
       13
176
     1
 40
0.0
176
     1
 90
        0
176
     1
290
     0
176
     1
290
     1
176
     1
290
     1
176
     1
290
     0
176
     1
290
     0
176
     1
290
     0
176
     1
290
     0
176
     1
290
     0
176
     1
290
     0
176
     1
 90
       50
176
     1
 40
0.0
176
     1
 40
1.0
176
     1
 90
        0
176
     1
 62
    18
420
        0
176
     1
 90
       50
176
     1
 90
        3
176
     1
 62
     5
420
      255
176
     1
290
     0
176
     1
 90
       50
176
     1
 90
       50
176
     1
 90
       50
176
     1
290
     0
176
     1
 90
       50
176
     1
 62
   256
176
     0
 40
1.0
176
     0
 90
        2
176
     1
  1
strokes_ogs.tif
176
     1
290
     0
176
     1
 40
1.0
176
     1
 40
1.0
176
     1
  0
VISUALSTYLE
  5
755
102
{ACAD_REACTORS
330
753
102
}
330
753
100
AcDbVisualStyle
  2
FlatWithEdges
 70
     1
177
     3
291
     1
 70
    58
 90
        2
176
     1
 90
        1
176
     1
 90
        1
176
     1
 90
        2
176
     1
 40
0.6
176
     1
 40
30.0
176
     1
 62
     7
420
 16777215
176
     1
 90
        1
176
     1
 90
        0
176
     1
 62
     7
176
     1
 62
   257
176
     1
 90
        1
176
     1
 90
        1
176
     1
 40
1.0
176
     1
 90
        0
176
     1
 62
   257
176
     1
 40
1.0
176
     1
 90
        1
176
     1
 90
        6
176
     1
 90
        2
176
     1
 62
     7
176
     1
 90
        5
176
     1
 90
        0
176
     1
 90
        0
176
     1
290
     0
176
     1
 90
       13
176
     1
 40
0.0
176
     1
 90
        0
176
     1
290
     0
176
     1
290
     1
176
     1
290
     1
176
     1
290
     0
176
     1
290
     0
176
     1
290
     0
176
     1
290
     0
176
     1
290
     0
176
     1
290
     0
176
     1
 90
       50
176
     1
 40
0.0
176
     1
 40
1.0
176
     1
 90
        0
176
     1
 62
    18
420
        0
176
     1
 90
       50
176
     1
 90
        3
176
     1
 62
     5
420
      255
176
     1
290
     0
176
     1
 90
       50
176
     1
 90
       50
176
     1
 90
       50
176
     1
290
     0
176
     1
 90
       50
176
     1
 62
   256
176
     0
 40
1.0
176
     0
 90
        2
176
     1
  1
strokes_ogs.tif
176
     1
290
     0
176
     1
 40
1.0
176
     1
 40
1.0
176
     1
  0
VISUALSTYLE
  5
756
102
{ACAD_REACTORS
330
753
102
}
330
753
100
AcDbVisualStyle
  2
Gouraud
 70
     2
177
     3
291
     1
 70
    58
 90
        2
176
     1
 90
        2
176
     1
 90
        1
176
     1
 90
        2
176
     1
 40
0.6
176
     1
 40
30.0
176
     1
 62
     7
420
 16777215
176
     1
 90
        0
176
     1
 90
        0
176
     1
 62
     7
176
     1
 62
   257
176
     1
 90
        1
176
     1
 90
        1
176
     1
 40
1.0
176
     1
 90
        0
176
     1
 62
     7
176
     1
 40
1.0
176
     1
 90
        1
176
     1
 90
        6
176
     1
 90
        2
176
     1
 62
     7
176
     1
 90
        5
176
     1
 90
        0
176
     1
 90
        0
176
     1
290
     0
176
     1
 90
       13
176
     1
 40
0.0
176
     1
 90
        0
176
     1
290
     0
176
     1
290
     1
176
     1
290
     1
176
     1
290
     0
176
     1
290
     0
176
     1
290
     0
176
     1
290
     0
176
     1
290
     0
176
     1
290
     0
176
     1
 90
       50
176
     1
 40
0.0
176
     1
 40
1.0
176
     1
 90
        0
176
     1
 62
    18
420
        0
176
     1
 90
       50
176
     1
 90
        3
176
     1
 62
     5
420
      255
176
     1
290
     0
176
     1
 90
       50
176
     1
 90
       50
176
     1
 90
       50
176
     1
290
     0
176
     1
 90
       50
176
     1
 62
   256
176
     0
 40
1.0
176
     0
 90
        2
176
     1
  1
strokes_ogs.tif
176
     1
290
     0
176
     1
 40
1.0
176
     1
 40
1.0
176
     1
  0
VISUALSTYLE
  5
757
102
{ACAD_REACTORS
330
753
102
}
330
753
100
AcDbVisualStyle
  2
GouraudWithEdges
 70
     3
177
     3
291
     1
 70
    58
 90
        2
176
     1
 90
        2
176
     1
 90
        1
176
     1
 90
        2
176
     1
 40
0.6
176
     1
 40
30.0
176
     1
 62
     7
420
 16777215
176
     1
 90
        1
176
     1
 90
        0
176
     1
 62
     7
176
     1
 62
   257
176
     1
 90
        1
176
     1
 90
        1
176
     1
 40
1.0
176
     1
 90
        0
176
     1
 62
   257
176
     1
 40
1.0
176
     1
 90
        1
176
     1
 90
        6
176
     1
 90
        2
176
     1
 62
     7
176
     1
 90
        5
176
     1
 90
        0
176
     1
 90
        0
176
     1
290
     0
176
     1
 90
       13
176
     1
 40
0.0
176
     1
 90
        0
176
     1
290
     0
176
     1
290
     1
176
     1
290
     1
176
     1
290
     0
176
     1
290
     0
176
     1
290
     0
176
     1
290
     0
176
     1
290
     0
176
     1
290
     0
176
     1
 90
       50
176
     1
 40
0.0
176
     1
 40
1.0
176
     1
 90
        0
176
     1
 62
    18
420
        0
176
     1
 90
       50
176
     1
 90
        3
176
     1
 62
     5
420
      255
176
     1
290
     0
176
     1
 90
       50
176
     1
 90
       50
176
     1
 90
       50
176
     1
290
     0
176
     1
 90
       50
176
     1
 62
   256
176
     0
 40
1.0
176
     0
 90
        2
176
     1
  1
strokes_ogs.tif
176
     1
290
     0
176
     1
 40
1.0
176
     1
 40
1.0
176
     1
  0
VISUALSTYLE
  5
75A
102
{ACAD_REACTORS
330
753
102
}
330
753
100
AcDbVisualStyle
  2
Hidden
 70
     6
177
     3
291
     0
 70
    58
 90
        1
176
     1
 90
        2
176
     1
 90
        2
176
     1
 90
        0
176
     1
 40
0.6
176
     1
 40
30.0
176
     1
 62
     7
420
 16777215
176
     1
 90
        2
176
     1
 90
        2
176
     1
 62
     7
176
     1
 62
   257
176
     1
 90
        2
176
     1
 90
        1
176
     1
 40
40.0
176
     1
 90
        0
176
     1
 62
   257
176
     1
 40
1.0
176
     1
 90
        1
176
     1
 90
        6
176
     1
 90
        2
176
     1
 62
     7
176
     1
 90
        3
176
     1
 90
        0
176
     1
 90
        0
176
     1
290
     0
176
     1
 90
        1
176
     1
 40
0.0
176
     1
 90
        0
176
     1
290
     0
176
     1
290
     1
176
     1
290
     1
176
     1
290
     0
176
     1
290
     0
176
     1
290
     0
176
     1
290
     0
176
     1
290
     0
176
     1
290
     0
176
     1
 90
       50
176
     1
 40
0.0
176
     1
 40
1.0
176
     1
 90
        0
176
     1
 62
    18
420
        0
176
     1
 90
       50
176
     1
 90
        3
176
     1
 62
     5
420
      255
176
     1
290
     0
176
     1
 90
       50
176
     1
 90
       50
176
     1
 90
       50
176
     1
290
     0
176
     1
 90
       50
176
     1
 62
   256
176
     0
 40
1.0
176
     0
 90
        2
176
     1
  1
strokes_ogs.tif
176
     1
290
     0
176
     1
 40
1.0
176
     1
 40
1.0
176
     1
  0
VISUALSTYLE
  5
764
102
{ACAD_REACTORS
330
753
102
}
330
753
100
AcDbVisualStyle
  2
JitterOff
 70
    20
177
     3
291
     1
 70
    58
 90
        2
176
     0
 90
        2
176
     0
 90
        0
176
     0
 90
        0
176
     0
 40
0.6
176
     0
 40
30.0
176
     0
 62
     7
420
 16777215
176
     0
 90
        1
176
     0
 90
        4
176
     0
 62
     7
176
     0
 62
   257
176
     0
 90
        1
176
     0
 90
        1
176
     0
 40
1.0
176
     0
 90
       10
176
     2
 62
     7
176
     0
 40
1.0
176
     0
 90
        1
176
     0
 90
        6
176
     0
 90
        2
176
     0
 62
     7
176
     0
 90
        5
176
     0
 90
        0
176
     0
 90
        0
176
     0
290
     0
176
     0
 90
        1
176
     0
 40
0.0
176
     0
 90
        0
176
     0
290
     0
176
     0
290
     1
176
     0
290
     1
176
     0
290
     0
176
     0
290
     0
176
     0
290
     0
176
     0
290
     0
176
     0
290
     0
176
     0
290
     0
176
     0
 90
       50
176
     0
 40
0.0
176
     0
 40
1.0
176
     0
 90
        0
176
     0
 62
    18
420
        0
176
     0
 90
       50
176
     0
 90
        3
176
     0
 62
     5
420
      255
176
     0
290
     0
176
     0
 90
       50
176
     0
 90
       50
176
     0
 90
       50
176
     0
290
     0
176
     0
 90
       50
176
     0
 62
   256
176
     0
 40
1.0
176
     0
 90
        2
176
     0
  1
strokes_ogs.tif
176
     0
290
     0
176
     0
 40
1.0
176
     0
 40
1.0
176
     0
  0
VISUALSTYLE
  5
761
102
{ACAD_REACTORS
330
753
102
}
330
753
100
AcDbVisualStyle
  2
Linepattern
 70
    14
177
     3
291
     1
 70
    58
 90
        2
176
     1
 90
        2
176
     1
 90
        0
176
     1
 90
        0
176
     1
 40
0.6
176
     1
 40
30.0
176
     1
 62
     7
420
 16777215
176
     1
 90
        1
176
     1
 90
        4
176
     1
 62
     7
176
     1
 62
   257
176
     1
 90
        7
176
     1
 90
        7
176
     1
 40
1.0
176
     1
 90
        8
176
     1
 62
     7
176
     1
 40
1.0
176
     1
 90
        1
176
     1
 90
        6
176
     1
 90
        2
176
     1
 62
     7
176
     1
 90
        5
176
     1
 90
        0
176
     1
 90
        0
176
     1
290
     0
176
     1
 90
        1
176
     1
 40
0.0
176
     1
 90
        0
176
     1
290
     0
176
     1
290
     1
176
     1
290
     1
176
     1
290
     0
176
     1
290
     0
176
     1
290
     0
176
     1
290
     0
176
     1
290
     0
176
     1
290
     0
176
     1
 90
       50
176
     1
 40
0.0
176
     1
 40
1.0
176
     1
 90
        0
176
     1
 62
    18
420
        0
176
     1
 90
       50
176
     1
 90
        3
176
     1
 62
     5
420
      255
176
     1
290
     0
176
     1
 90
       50
176
     1
 90
       50
176
     1
 90
       50
176
     1
290
     0
176
     1
 90
       50
176
     1
 62
   256
176
     0
 40
1.0
176
     0
 90
        2
176
     1
  1
strokes_ogs.tif
176
     1
290
     0
176
     1
 40
1.0
176
     1
 40
1.0
176
     1
  0
VISUALSTYLE
  5
765
102
{ACAD_REACTORS
330
753
102
}
330
753
100
AcDbVisualStyle
  2
OverhangOff
 70
    21
177
     3
291
     1
 70
    58
 90
        2
176
     0
 90
        2
176
     0
 90
        0
176
     0
 90
        0
176
     0
 40
0.6
176
     0
 40
30.0
176
     0
 62
     7
420
 16777215
176
     0
 90
        1
176
     0
 90
        4
176
     0
 62
     7
176
     0
 62
   257
176
     0
 90
        1
176
     0
 90
        1
176
     0
 40
1.0
176
     0
 90
        9
176
     2
 62
     7
176
     0
 40
1.0
176
     0
 90
        1
176
     0
 90
        6
176
     0
 90
        2
176
     0
 62
     7
176
     0
 90
        5
176
     0
 90
        0
176
     0
 90
        0
176
     0
290
     0
176
     0
 90
        1
176
     0
 40
0.0
176
     0
 90
        0
176
     0
290
     0
176
     0
290
     1
176
     0
290
     1
176
     0
290
     0
176
     0
290
     0
176
     0
290
     0
176
     0
290
     0
176
     0
290
     0
176
     0
290
     0
176
     0
 90
       50
176
     0
 40
0.0
176
     0
 40
1.0
176
     0
 90
        0
176
     0
 62
    18
420
        0
176
     0
 90
       50
176
     0
 90
        3
176
     0
 62
     5
420
      255
176
     0
290
     0
176
     0
 90
       50
176
     0
 90
       50
176
     0
 90
       50
176
     0
290
     0
176
     0
 90
       50
176
     0
 62
   256
176
     0
 40
1.0
176
     0
 90
        2
176
     0
  1
strokes_ogs.tif
176
     0
290
     0
176
     0
 40
1.0
176
     0
 40
1.0
176
     0
  0
VISUALSTYLE
  5
75C
102
{ACAD_REACTORS
330
753
102
}
330
753
100
AcDbVisualStyle
  2
Realistic
 70
     8
177
     3
291
     0
 70
    58
 90
        2
176
     1
 90
        3
176
     1
 90
        0
176
     1
 90
        2
176
     1
 40
0.6
176
     1
 40
30.0
176
     1
 62
     7
420
 16777215
176
     1
 90
        0
176
     1
 90
        0
176
     1
 62
     7
176
     1
 62
   257
176
     1
 90
        1
176
     1
 90
        1
176
     1
 40
1.0
176
     1
 90
        8
176
     1
 62
   257
176
     1
 40
1.0
176
     1
 90
        1
176
     1
 90
        6
176
     1
 90
        2
176
     1
 62
     7
176
     1
 90
        3
176
     1
 90
        0
176
     1
 90
        0
176
     1
290
     0
176
     1
 90
       13
176
     1
 40
0.0
176
     1
 90
        0
176
     1
290
     0
176
     1
290
     1
176
     1
290
     1
176
     1
290
     0
176
     1
290
     0
176
     1
290
     0
176
     1
290
     0
176
     1
290
     0
176
     1
290
     0
176
     1
 90
       50
176
     1
 40
0.0
176
     1
 40
1.0
176
     1
 90
        0
176
     1
 62
    18
420
        0
176
     1
 90
       50
176
     1
 90
        3
176
     1
 62
     5
420
      255
176
     1
290
     0
176
     1
 90
       50
176
     1
 90
       50
176
     1
 90
       50
176
     1
290
     0
176
     1
 90
       50
176
     1
 62
   256
176
     0
 40
1.0
176
     0
 90
        2
176
     1
  1
strokes_ogs.tif
176
     1
290
     0
176
     1
 40
1.0
176
     1
 40
1.0
176
     1
  0
VISUALSTYLE
  5
76B
102
{ACAD_REACTORS
330
753
102
}
330
753
100
AcDbVisualStyle
  2
Shaded
 70
    27
177
     3
291
     0
 70
    58
 90
        2
176
     1
 90
        2
176
     1
 90
        1
176
     1
 90
        2
176
     1
 40
0.6
176
     1
 40
30.0
176
     1
 62
     7
420
 16777215
176
     1
 90
        0
176
     1
 90
        4
176
     1
 62
     7
176
     1
 62
   257
176
     1
 90
        1
176
     1
 90
        1
176
     1
 40
1.0
176
     1
 90
        8
176
     1
 62
   257
176
     1
 40
1.0
176
     1
 90
        1
176
     1
 90
        6
176
     1
 90
        2
176
     1
 62
     8
420
  7895160
176
     1
 90
        3
176
     1
 90
        0
176
     1
 90
        0
176
     1
290
     0
176
     1
 90
        5
176
     1
 40
0.0
176
     1
 90
        0
176
     1
290
     0
176
     1
290
     1
176
     1
290
     1
176
     1
290
     0
176
     1
290
     0
176
     1
290
     0
176
     1
290
     0
176
     1
290
     0
176
     1
290
     0
176
     1
 90
       50
176
     1
 40
0.0
176
     1
 40
1.0
176
     1
 90
        0
176
     1
 62
    18
420
        0
176
     1
 90
       50
176
     1
 90
        3
176
     1
 62
     5
420
      255
176
     1
290
     0
176
     1
 90
       50
176
     1
 90
       50
176
     1
 90
       50
176
     1
290
     0
176
     1
 90
       50
176
     1
 62
   256
176
     0
 40
1.0
176
     0
 90
        2
176
     1
  1
strokes_ogs.tif
176
     1
290
     0
176
     1
 40
1.0
176
     1
 40
1.0
176
     1
  0
VISUALSTYLE
  5
76A
102
{ACAD_REACTORS
330
753
102
}
330
753
100
AcDbVisualStyle
  2
Shaded with edges
 70
    26
177
     3
291
     0
 70
    58
 90
        2
176
     1
 90
        2
176
     1
 90
        1
176
     1
 90
        2
176
     1
 40
0.6
176
     1
 40
30.0
176
     1
 62
     7
420
 16777215
176
     1
 90
        1
176
     1
 90
       10
176
     1
 62
     7
176
     1
 62
   257
176
     1
 90
        2
176
     1
 90
        1
176
     1
 40
1.0
176
     1
 90
        8
176
     1
 62
   257
176
     1
 40
1.0
176
     1
 90
        1
176
     1
 90
        6
176
     1
 90
        2
176
     1
 62
     7
176
     1
 90
        3
176
     1
 90
        0
176
     1
 90
        0
176
     1
290
     0
176
     1
 90
        5
176
     1
 40
0.0
176
     1
 90
        0
176
     1
290
     0
176
     1
290
     1
176
     1
290
     1
176
     1
290
     0
176
     1
290
     0
176
     1
290
     0
176
     1
290
     0
176
     1
290
     0
176
     1
290
     0
176
     1
 90
       50
176
     1
 40
0.0
176
     1
 40
1.0
176
     1
 90
        0
176
     1
 62
    18
420
        0
176
     1
 90
       50
176
     1
 90
        3
176
     1
 62
     5
420
      255
176
     1
290
     0
176
     1
 90
       50
176
     1
 90
       50
176
     1
 90
       50
176
     1
290
     0
176
     1
 90
       50
176
     1
 62
   256
176
     0
 40
1.0
176
     0
 90
        2
176
     1
  1
strokes_ogs.tif
176
     1
290
     0
176
     1
 40
1.0
176
     1
 40
1.0
176
     1
  0
VISUALSTYLE
  5
767
102
{ACAD_REACTORS
330
753
102
}
330
753
100
AcDbVisualStyle
  2
Shades of Gray
 70
    23
177
     3
291
     0
 70
    58
 90
        2
176
     1
 90
        2
176
     1
 90
        3
176
     1
 90
        0
176
     1
 40
0.6
176
     1
 40
30.0
176
     1
 62
     7
420
 16777215
176
     1
 90
        2
176
     1
 90
        2
176
     1
 62
     7
176
     1
 62
     7
176
     1
 90
        1
176
     1
 90
        1
176
     1
 40
40.0
176
     1
 90
        8
176
     1
 62
     7
176
     1
 40
1.0
176
     1
 90
        1
176
     1
 90
        6
176
     1
 90
        2
176
     1
 62
     7
176
     1
 90
        3
176
     1
 90
        0
176
     1
 90
        0
176
     1
290
     0
176
     1
 90
        1
176
     1
 40
0.0
176
     1
 90
        0
176
     1
290
     0
176
     1
290
     1
176
     1
290
     1
176
     1
290
     0
176
     1
290
     0
176
     1
290
     0
176
     1
290
     0
176
     1
290
     0
176
     1
290
     0
176
     1
 90
       50
176
     1
 40
0.0
176
     1
 40
1.0
176
     1
 90
        0
176
     1
 62
    18
420
        0
176
     1
 90
       50
176
     1
 90
        3
176
     1
 62
     5
420
      255
176
     1
290
     0
176
     1
 90
       50
176
     1
 90
       50
176
     1
 90
       50
176
     1
290
     0
176
     1
 90
       50
176
     1
 62
   256
176
     0
 40
1.0
176
     0
 90
        2
176
     1
  1
strokes_ogs.tif
176
     1
290
     0
176
     1
 40
1.0
176
     1
 40
1.0
176
     1
  0
VISUALSTYLE
  5
768
102
{ACAD_REACTORS
330
753
102
}
330
753
100
AcDbVisualStyle
  2
Sketchy
 70
    24
177
     3
291
     0
 70
    58
 90
        1
176
     1
 90
        2
176
     1
 90
        2
176
     1
 90
        0
176
     1
 40
0.6
176
     1
 40
30.0
176
     1
 62
     7
420
 16777215
176
     1
 90
        2
176
     1
 90
        2
176
     1
 62
     7
176
     1
 62
     7
176
     1
 90
        1
176
     1
 90
        1
176
     1
 40
40.0
176
     1
 90
       11
176
     1
 62
     7
176
     1
 40
1.0
176
     1
 90
        1
176
     1
 90
        6
176
     1
 90
        2
176
     1
 62
     7
176
     1
 90
        6
176
     1
 90
        0
176
     1
 90
        0
176
     1
290
     0
176
     1
 90
        1
176
     1
 40
0.0
176
     1
 90
        0
176
     1
290
     0
176
     1
290
     1
176
     1
290
     1
176
     1
290
     0
176
     1
290
     0
176
     1
290
     0
176
     1
290
     0
176
     1
290
     0
176
     1
290
     0
176
     1
 90
       50
176
     1
 40
0.0
176
     1
 40
1.0
176
     1
 90
        0
176
     1
 62
    18
420
        0
176
     1
 90
       50
176
     1
 90
        3
176
     1
 62
     5
420
      255
176
     1
290
     0
176
     1
 90
       50
176
     1
 90
       50
176
     1
 90
       50
176
     1
290
     0
176
     1
 90
       50
176
     1
 62
   256
176
     0
 40
1.0
176
     0
 90
        2
176
     1
  1
strokes_ogs.tif
176
     1
290
     0
176
     1
 40
1.0
176
     1
 40
1.0
176
     1
  0
VISUALSTYLE
  5
760
102
{ACAD_REACTORS
330
753
102
}
330
753
100
AcDbVisualStyle
  2
Thicken
 70
    13
177
     3
291
     1
 70
    58
 90
        2
176
     1
 90
        2
176
     1
 90
        0
176
     1
 90
        0
176
     1
 40
0.6
176
     1
 40
30.0
176
     1
 62
     7
420
 16777215
176
     1
 90
        1
176
     1
 90
        4
176
     1
 62
     7
176
     1
 62
   257
176
     1
 90
        1
176
     1
 90
        1
176
     1
 40
1.0
176
     1
 90
       12
176
     1
 62
     7
176
     1
 40
1.0
176
     1
 90
        1
176
     1
 90
        6
176
     1
 90
        2
176
     1
 62
     7
176
     1
 90
        5
176
     1
 90
        0
176
     1
 90
        0
176
     1
290
     0
176
     1
 90
        1
176
     1
 40
0.0
176
     1
 90
        0
176
     1
290
     0
176
     1
290
     1
176
     1
290
     1
176
     1
290
     0
176
     1
290
     0
176
     1
290
     0
176
     1
290
     0
176
     1
290
     0
176
     1
290
     0
176
     1
 90
       50
176
     1
 40
0.0
176
     1
 40
1.0
176
     1
 90
        0
176
     1
 62
    18
420
        0
176
     1
 90
       50
176
     1
 90
        3
176
     1
 62
     5
420
      255
176
     1
290
     0
176
     1
 90
       50
176
     1
 90
       50
176
     1
 90
       50
176
     1
290
     0
176
     1
 90
       50
176
     1
 62
   256
176
     0
 40
1.0
176
     0
 90
        2
176
     1
  1
strokes_ogs.tif
176
     1
290
     0
176
     1
 40
1.0
176
     1
 40
1.0
176
     1
  0
VISUALSTYLE
  5
759
102
{ACAD_REACTORS
330
753
102
}
330
753
100
AcDbVisualStyle
  2
Wireframe
 70
     5
177
     3
291
     0
 70
    58
 90
        0
176
     1
 90
        2
176
     1
 90
        0
176
     1
 90
        0
176
     1
 40
0.6
176
     1
 40
30.0
176
     1
 62
     7
420
 16777215
176
     1
 90
        1
176
     1
 90
        4
176
     1
 62
     7
176
     1
 62
   257
176
     1
 90
        1
176
     1
 90
        1
176
     1
 40
1.0
176
     1
 90
        0
176
     1
 62
   257
176
     1
 40
1.0
176
     1
 90
        1
176
     1
 90
        6
176
     1
 90
        2
176
     1
 62
     7
176
     1
 90
        3
176
     1
 90
        0
176
     1
 90
        0
176
     1
290
     0
176
     1
 90
        1
176
     1
 40
0.0
176
     1
 90
        0
176
     1
290
     0
176
     1
290
     1
176
     1
290
     1
176
     1
290
     0
176
     1
290
     0
176
     1
290
     0
176
     1
290
     0
176
     1
290
     0
176
     1
290
     0
176
     1
 90
       50
176
     1
 40
0.0
176
     1
 40
1.0
176
     1
 90
        0
176
     1
 62
    18
420
        0
176
     1
 90
       50
176
     1
 90
        3
176
     1
 62
     5
420
      255
176
     1
290
     0
176
     1
 90
       50
176
     1
 90
       50
176
     1
 90
       50
176
     1
290
     0
176
     1
 90
       50
176
     1
 62
   256
176
     0
 40
1.0
176
     0
 90
        2
176
     1
  1
strokes_ogs.tif
176
     1
290
     0
176
     1
 40
1.0
176
     1
 40
1.0
176
     1
  0
VISUALSTYLE
  5
769
102
{ACAD_REACTORS
330
753
102
}
330
753
100
AcDbVisualStyle
  2
X-Ray
 70
    25
177
     3
291
     0
 70
    58
 90
        2
176
     1
 90
        2
176
     1
 90
        1
176
     1
 90
        1
176
     1
 40
0.5
176
     1
 40
30.0
176
     1
 62
     7
420
 16777215
176
     1
 90
        1
176
     1
 90
        0
176
     1
 62
     7
176
     1
 62
   257
176
     1
 90
        1
176
     1
 90
        1
176
     1
 40
1.0
176
     1
 90
        8
176
     1
 62
     7
176
     1
 40
1.0
176
     1
 90
        1
176
     1
 90
        6
176
     1
 90
        2
176
     1
 62
     7
176
     1
 90
        3
176
     1
 90
        0
176
     1
 90
        0
176
     1
290
     0
176
     1
 90
       13
176
     1
 40
0.0
176
     1
 90
        0
176
     1
290
     0
176
     1
290
     1
176
     1
290
     1
176
     1
290
     0
176
     1
290
     0
176
     1
290
     0
176
     1
290
     0
176
     1
290
     0
176
     1
290
     0
176
     1
 90
       50
176
     1
 40
0.0
176
     1
 40
1.0
176
     1
 90
        0
176
     1
 62
    18
420
        0
176
     1
 90
       50
176
     1
 90
        3
176
     1
 62
     5
420
      255
176
     1
290
     0
176
     1
 90
       50
176
     1
 90
       50
176
     1
 90
       50
176
     1
290
     0
176
     1
 90
       50
176
     1
 62
   256
176
     0
 40
1.0
176
     0
 90
        2
176
     1
  1
strokes_ogs.tif
176
     1
290
     0
176
     1
 40
1.0
176
     1
 40
1.0
176
     1
  0
DICTIONARYVAR
  5
775
102
{ACAD_REACTORS
330
774
102
}
330
774
100
DictionaryVariables
280
     0
  1
1:1
  0
DICTIONARYVAR
  5
77A
102
{ACAD_REACTORS
330
774
102
}
330
774
100
DictionaryVariables
280
     0
  1
Standard
  0
DICTIONARYVAR
  5
779
102
{ACAD_REACTORS
330
774
102
}
330
774
100
DictionaryVariables
280
     0
  1
Standard
  0
DICTIONARYVAR
  5
77B
102
{ACAD_REACTORS
330
774
102
}
330
774
100
DictionaryVariables
280
     0
  1
0
  0
DICTIONARYVAR
  5
784
330
783
100
DictionaryVariables
280
     0
  1
1.4.3 @ 2025-11-02T17:51:10.263795+00:00
  0
DICTIONARY
  5
7D1
330
771
100
AcDbDictionary
280
     1
281
     1
  3
ACAD_ROUNDTRIP_2008_TABLESTYLE_CELLSTYLEMAP
360
7D2
  0
CELLSTYLEMAP
  5
7D2
102
{ACAD_REACTORS
330
7D1
102
}
330
7D1
100
AcDbCellStyleMap
 90
        3
300
CELLSTYLE
  1
TABLEFORMAT_BEGIN
 90
        5
170
     1
 91
        0
 92
    32768
 62
   257
 93
        1
300
CONTENTFORMAT
  1
CONTENTFORMAT_BEGIN
 90
        0
 91
        0
 92
        4
 93
        0
300

 40
0.0
140
1.0
 94
        5
 62
     0
340
11
144
6.0
309
CONTENTFORMAT_END
171
     1
301
MARGIN
  1
CELLMARGIN_BEGIN
 40
1.5
 40
1.5
 40
1.5
 40
1.5
 40
1.5
 40
1.5
309
CELLMARGIN_END
 94
        6
 95
        1
302
GRIDFORMAT
  1
GRIDFORMAT_BEGIN
 90
        0
 91
        1
 62
     0
 92
       -2
340
14
 93
        0
 40
0.045
309
GRIDFORMAT_END
 95
        2
302
GRIDFORMAT
  1
GRIDFORMAT_BEGIN
 90
        0
 91
        1
 62
     0
 92
       -2
340
14
 93
        0
 40
0.045
309
GRIDFORMAT_END
 95
        4
302
GRIDFORMAT
  1
GRIDFORMAT_BEGIN
 90
        0
 91
        1
 62
     0
 92
       -2
340
14
 93
        0
 40
0.045
309
GRIDFORMAT_END
 95
        8
302
GRIDFORMAT
  1
GRIDFORMAT_BEGIN
 90
        0
 91
        1
 62
     0
 92
       -2
340
14
 93
        0
 40
0.045
309
GRIDFORMAT_END
 95
       16
302
GRIDFORMAT
  1
GRIDFORMAT_BEGIN
 90
        0
 91
        1
 62
     0
 92
       -2
340
14
 93
        0
 40
0.045
309
GRIDFORMAT_END
 95
       32
302
GRIDFORMAT
  1
GRIDFORMAT_BEGIN
 90
        0
 91
        1
 62
     0
 92
       -2
340
14
 93
        0
 40
0.045
309
GRIDFORMAT_END
309
TABLEFORMAT_END
  1
CELLSTYLE_BEGIN
 90
        1
 91
        1
300
_TITLE
309
CELLSTYLE_END
300
CELLSTYLE
  1
TABLEFORMAT_BEGIN
 90
        5
170
     1
 91
        0
 92
        0
 62
   257
 93
        1
300
CONTENTFORMAT
  1
CONTENTFORMAT_BEGIN
 90
        0
 91
        0
 92
        4
 93
        0
300

 40
0.0
140
1.0
 94
        5
 62
     0
340
11
144
4.5
309
CONTENTFORMAT_END
171
     1
301
MARGIN
  1
CELLMARGIN_BEGIN
 40
1.5
 40
1.5
 40
1.5
 40
1.5
 40
1.5
 40
1.5
309
CELLMARGIN_END
 94
        6
 95
        1
302
GRIDFORMAT
  1
GRIDFORMAT_BEGIN
 90
        0
 91
        1
 62
     0
 92
       -2
340
14
 93
        0
 40
0.045
309
GRIDFORMAT_END
 95
        2
302
GRIDFORMAT
  1
GRIDFORMAT_BEGIN
 90
        0
 91
        1
 62
     0
 92
       -2
340
14
 93
        0
 40
0.045
309
GRIDFORMAT_END
 95
        4
302
GRIDFORMAT
  1
GRIDFORMAT_BEGIN
 90
        0
 91
        1
 62
     0
 92
       -2
340
14
 93
        0
 40
0.045
309
GRIDFORMAT_END
 95
        8
302
GRIDFORMAT
  1
GRIDFORMAT_BEGIN
 90
        0
 91
        1
 62
     0
 92
       -2
340
14
 93
        0
 40
0.045
309
GRIDFORMAT_END
 95
       16
302
GRIDFORMAT
  1
GRIDFORMAT_BEGIN
 90
        0
 91
        1
 62
     0
 92
       -2
340
14
 93
        0
 40
0.045
309
GRIDFORMAT_END
 95
       32
302
GRIDFORMAT
  1
GRIDFORMAT_BEGIN
 90
        0
 91
        1
 62
     0
 92
       -2
340
14
 93
        0
 40
0.045
309
GRIDFORMAT_END
309
TABLEFORMAT_END
  1
CELLSTYLE_BEGIN
 90
        2
 91
        1
300
_HEADER
309
CELLSTYLE_END
300
CELLSTYLE
  1
TABLEFORMAT_BEGIN
 90
        5
170
     1
 91
        0
 92
        0
 62
   257
 93
        1
300
CONTENTFORMAT
  1
CONTENTFORMAT_BEGIN
 90
        0
 91
        0
 92
        4
 93
        0
300

 40
0.0
140
1.0
 94
        2
 62
     0
340
11
144
4.5
309
CONTENTFORMAT_END
171
     1
301
MARGIN
  1
CELLMARGIN_BEGIN
 40
1.5
 40
1.5
 40
1.5
 40
1.5
 40
1.5
 40
1.5
309
CELLMARGIN_END
 94
        6
 95
        1
302
GRIDFORMAT
  1
GRIDFORMAT_BEGIN
 90
        0
 91
        1
 62
     0
 92
       -2
340
14
 93
        0
 40
0.045
309
GRIDFORMAT_END
 95
        2
302
GRIDFORMAT
  1
GRIDFORMAT_BEGIN
 90
        0
 91
        1
 62
     0
 92
       -2
340
14
 93
        0
 40
0.045
309
GRIDFORMAT_END
 95
        4
302
GRIDFORMAT
  1
GRIDFORMAT_BEGIN
 90
        0
 91
        1
 62
     0
 92
       -2
340
14
 93
        0
 40
0.045
309
GRIDFORMAT_END
 95
        8
302
GRIDFORMAT
  1
GRIDFORMAT_BEGIN
 90
        0
 91
        1
 62
     0
 92
       -2
340
14
 93
        0
 40
0.045
309
GRIDFORMAT_END
 95
       16
302
GRIDFORMAT
  1
GRIDFORMAT_BEGIN
 90
        0
 91
        1
 62
     0
 92
       -2
340
14
 93
        0
 40
0.045
309
GRIDFORMAT_END
 95
       32
302
GRIDFORMAT
  1
GRIDFORMAT_BEGIN
 90
        0
 91
        1
 62
     0
 92
       -2
340
14
 93
        0
 40
0.045
309
GRIDFORMAT_END
309
TABLEFORMAT_END
  1
CELLSTYLE_BEGIN
 90
        3
 91
        2
300
_DATA
309
CELLSTYLE_END
  0
ENDSEC
  0
EOF
